SplineFontDB: 3.0
FontName: Antonio-Light
FullName: Antonio Light
FamilyName: Antonio
Weight: Light
Copyright: Copyright (c) 2011-12, vernon adams (vern@newtypography.co.uk), with Reserved Font Names 'Antonio'
Version: 1
ItalicAngle: 0
UnderlinePosition: 0
UnderlineWidth: 0
Ascent: 1638
Descent: 410
sfntRevision: 0x00010000
LayerCount: 2
Layer: 0 1 "Back"  1
Layer: 1 1 "Fore"  0
XUID: [1021 913 -2060267417 2748317]
FSType: 0
OS2Version: 4
OS2_WeightWidthSlopeOnly: 0
OS2_UseTypoMetrics: 1
CreationTime: 1374865713
ModificationTime: 1374877215
PfmFamily: 17
TTFWeight: 300
TTFWidth: 1
LineGap: 0
VLineGap: 0
Panose: 2 0 3 3 0 0 0 0 0 0
OS2TypoAscent: 2342
OS2TypoAOffset: 0
OS2TypoDescent: -612
OS2TypoDOffset: 0
OS2TypoLinegap: 0
OS2WinAscent: 2342
OS2WinAOffset: 0
OS2WinDescent: 612
OS2WinDOffset: 0
HheadAscent: 2342
HheadAOffset: 0
HheadDescent: -612
HheadDOffset: 0
OS2SubXSize: 1331
OS2SubYSize: 1433
OS2SubXOff: 0
OS2SubYOff: 286
OS2SupXSize: 1331
OS2SupYSize: 1433
OS2SupXOff: 0
OS2SupYOff: 983
OS2StrikeYSize: 102
OS2StrikeYPos: 530
OS2Vendor: 'newt'
OS2CodePages: 20000093.00000000
OS2UnicodeRanges: a00000ef.5000204b.00000000.00000000
Lookup: 258 0 0 "'kern' Horizontal Kerning in Latin lookup 0"  {"'kern' Horizontal Kerning in Latin lookup 0 subtable"  "'kern' Horizontal Kerning in Latin lookup 1 subtable"  } ['kern' ('DFLT' <'dflt' > 'latn' <'dflt' > ) ]
MarkAttachClasses: 1
DEI: 91125
KernClass2: 16 27 "'kern' Horizontal Kerning in Latin lookup 1 subtable" 
 89 A Agrave Aacute Acircumflex Atilde Adieresis Aring Abreve Amacron Aogonek uni0200 uni0202
 9 B uni1E02
 47 C Ccedilla Cacute Ccaron Ccircumflex Cdotaccent
 16 D Dcaron uni1E0A
 9 F uni1E1E
 52 G Gbreve Gcircumflex Gcommaaccent Gdotaccent uni01F4
 13 J Jcircumflex
 14 K Kcommaaccent
 28 L Lacute Lcaron Lcommaaccent
 9 P uni1E56
 1 V
 37 W Wacute Wcircumflex Wdieresis Wgrave
 37 Y Yacute Ycircumflex Ydieresis Ygrave
 89 o ograve oacute ocircumflex otilde odieresis obreve ohungarumlaut omacron uni020D uni020F

StartChar: .notdef
Encoding: 65536 -1 0
Width: 1152
Flags: W
LayerCount: 2
UndoRedoHistory
Layer: 1
Undoes
EndUndoes
Redoes
EndRedoes
EndUndoRedoHistory
Fore
SplineSet
691 1501 m 1,0,-1
 767 1501 l 1,1,-1
 767 240 l 1,2,-1
 699 240 l 1,3,-1
 463 1190 l 1,4,-1
 469 849 l 1,5,-1
 469 240 l 1,6,-1
 388 240 l 1,7,-1
 388 1501 l 1,8,-1
 448 1501 l 1,9,-1
 700 526 l 1,10,-1
 691 960 l 1,11,-1
 691 1501 l 1,0,-1
166 1760 m 1,12,-1
 986 1760 l 1,13,-1
 986 0 l 1,14,-1
 166 0 l 1,15,-1
 166 1760 l 1,12,-1
904 72 m 1,16,-1
 904 1688 l 1,17,-1
 248 1688 l 1,18,-1
 248 72 l 1,19,-1
 904 72 l 1,16,-1
EndSplineSet
EndChar

StartChar: exclam
Encoding: 33 33 4
Width: 501
Flags: W
LayerCount: 2
UndoRedoHistory
Layer: 1
Undoes
EndUndoes
Redoes
EndRedoes
EndUndoRedoHistory
Fore
SplineSet
157 1760 m 1,0,-1
 345 1760 l 1,1,-1
 280 368 l 1,2,-1
 220 368 l 1,3,-1
 157 1760 l 1,0,-1
156 202 m 1,4,-1
 342 202 l 1,5,-1
 342 0 l 1,6,-1
 156 0 l 1,7,-1
 156 202 l 1,4,-1
EndSplineSet
EndChar

StartChar: quotedbl
Encoding: 34 34 5
Width: 771
Flags: W
LayerCount: 2
UndoRedoHistory
Layer: 1
Undoes
EndUndoes
Redoes
EndRedoes
EndUndoRedoHistory
Fore
SplineSet
487 1760 m 1,0,-1
 644 1760 l 1,1,-1
 551 1125 l 1,2,-1
 487 1125 l 1,3,-1
 487 1760 l 1,0,-1
196 1760 m 1,4,-1
 352 1760 l 1,5,-1
 260 1125 l 1,6,-1
 196 1125 l 1,7,-1
 196 1760 l 1,4,-1
EndSplineSet
EndChar

StartChar: numbersign
Encoding: 35 35 6
Width: 829
Flags: W
LayerCount: 2
UndoRedoHistory
Layer: 1
Undoes
EndUndoes
Redoes
EndRedoes
EndUndoRedoHistory
Fore
SplineSet
698 1760 m 1,0,-1
 801 1760 l 1,1,-1
 678 1138 l 1,2,-1
 841 1138 l 1,3,-1
 841 1041 l 1,4,-1
 658 1041 l 1,5,-1
 604 767 l 1,6,-1
 798 767 l 1,7,-1
 798 670 l 1,8,-1
 585 670 l 1,9,-1
 452 0 l 1,10,-1
 350 0 l 1,11,-1
 480 670 l 1,12,-1
 264 670 l 1,13,-1
 133 0 l 1,14,-1
 22 0 l 1,15,-1
 154 670 l 1,16,-1
 -12 670 l 1,17,-1
 -12 767 l 1,18,-1
 174 767 l 1,19,-1
 228 1041 l 1,20,-1
 31 1041 l 1,21,-1
 31 1138 l 1,22,-1
 247 1138 l 1,23,-1
 370 1760 l 1,24,-1
 482 1760 l 1,25,-1
 357 1138 l 1,26,-1
 573 1138 l 1,27,-1
 698 1760 l 1,0,-1
502 765 m 1,28,-1
 555 1035 l 1,29,-1
 336 1035 l 1,30,-1
 282 765 l 1,31,-1
 502 765 l 1,28,-1
EndSplineSet
EndChar

StartChar: dollar
Encoding: 36 36 7
Width: 830
Flags: W
LayerCount: 2
UndoRedoHistory
Layer: 1
Undoes
EndUndoes
Redoes
EndRedoes
EndUndoRedoHistory
Fore
SplineSet
354 1782 m 1,0,-1
 461 1782 l 1,1,-1
 461 1564 l 1,2,3
 634 1544 634 1544 682 1322 c 0,4,5
 702 1230 702 1230 701 1099 c 2,6,-1
 701 1005 l 1,7,-1
 561 1005 l 1,8,-1
 561 1126 l 2,9,10
 561 1283 561 1283 528.5 1356 c 128,-1,11
 496 1429 496 1429 426 1429 c 0,12,13
 291 1429 291 1429 291 1198 c 0,14,15
 291 1121 291 1121 319 1059.5 c 128,-1,16
 347 998 347 998 434 912 c 2,17,-1
 539 809 l 1,18,19
 731 623 731 623 731 373 c 0,20,21
 731 213 731 213 668.5 129 c 128,-1,22
 606 45 606 45 503 31 c 1,23,-1
 503 -221 l 1,24,-1
 396 -221 l 1,25,-1
 396 32 l 1,26,27
 283 48 283 48 216.5 140 c 128,-1,28
 150 232 150 232 150 455 c 2,29,-1
 150 584 l 1,30,-1
 299 584 l 1,31,-1
 299 481 l 2,32,33
 299 164 299 164 441 164 c 0,34,35
 515 164 515 164 546 212 c 128,-1,36
 577 260 577 260 577 372.5 c 128,-1,37
 577 485 577 485 552 558.5 c 128,-1,38
 527 632 527 632 436 718 c 2,39,-1
 325 823 l 2,40,41
 141 996 141 996 141 1234 c 0,42,43
 141 1398 141 1398 217 1482 c 0,44,45
 272 1543 272 1543 354 1559 c 1,46,-1
 354 1782 l 1,0,-1
EndSplineSet
EndChar

StartChar: percent
Encoding: 37 37 8
Width: 2078
Flags: W
LayerCount: 2
UndoRedoHistory
Layer: 1
Undoes
EndUndoes
Redoes
EndRedoes
EndUndoRedoHistory
Fore
SplineSet
1337 1760 m 1,0,-1
 1477 1760 l 1,1,-1
 755 0 l 1,2,-1
 607 0 l 1,3,-1
 1337 1760 l 1,0,-1
566 1436 m 2,4,5
 566 1559 566 1559 537.5 1602.5 c 128,-1,6
 509 1646 509 1646 429.5 1646 c 128,-1,7
 350 1646 350 1646 321 1602.5 c 128,-1,8
 292 1559 292 1559 292 1436 c 2,9,-1
 292 936 l 2,10,11
 292 808 292 808 320.5 763 c 128,-1,12
 349 718 349 718 429 718 c 128,-1,13
 509 718 509 718 537.5 763 c 128,-1,14
 566 808 566 808 566 936 c 2,15,-1
 566 1436 l 2,4,5
155 1364 m 2,16,17
 155 1492 155 1492 166 1568.5 c 128,-1,18
 177 1645 177 1645 209 1695 c 128,-1,19
 241 1745 241 1745 292.5 1763.5 c 128,-1,20
 344 1782 344 1782 421 1782 c 128,-1,21
 498 1782 498 1782 543.5 1769.5 c 128,-1,22
 589 1757 589 1757 621.5 1729.5 c 128,-1,23
 654 1702 654 1702 672 1652 c 0,24,25
 704 1558 704 1558 704 1364 c 2,26,-1
 704 1012 l 2,27,28
 704 879 704 879 693 800 c 128,-1,29
 682 721 682 721 650 669.5 c 128,-1,30
 618 618 618 618 566.5 599.5 c 128,-1,31
 515 581 515 581 437.5 581 c 128,-1,32
 360 581 360 581 314.5 594 c 128,-1,33
 269 607 269 607 236.5 634.5 c 128,-1,34
 204 662 204 662 187 714 c 0,35,36
 155 812 155 812 155 1012 c 2,37,-1
 155 1364 l 2,16,17
1374 763 m 2,38,39
 1374 957 1374 957 1399 1029 c 0,40,41
 1424 1100 1424 1100 1456 1128 c 0,42,43
 1518 1180 1518 1180 1626 1180.5 c 128,-1,44
 1734 1181 1734 1181 1785.5 1162.5 c 128,-1,45
 1837 1144 1837 1144 1869 1094 c 128,-1,46
 1901 1044 1901 1044 1912 967.5 c 128,-1,47
 1923 891 1923 891 1923 763 c 2,48,-1
 1923 411 l 2,49,50
 1923 211 1923 211 1898.5 136 c 0,51,52
 1874 62 1874 62 1842 34 c 0,53,54
 1779 -20 1779 -20 1671 -20 c 1,55,56
 1672 -60 1672 -60 1512 -2 c 0,57,58
 1460 16 1460 16 1428 68 c 128,-1,59
 1396 120 1396 120 1385 199 c 128,-1,60
 1374 278 1374 278 1374 411 c 2,61,-1
 1374 763 l 2,38,39
1786 835 m 2,62,63
 1786 958 1786 958 1757 1001.5 c 128,-1,64
 1728 1045 1728 1045 1648.5 1045 c 128,-1,65
 1569 1045 1569 1045 1540.5 1001.5 c 128,-1,66
 1512 958 1512 958 1512 835 c 2,67,-1
 1512 335 l 2,68,69
 1512 207 1512 207 1540.5 162 c 128,-1,70
 1569 117 1569 117 1649 117 c 128,-1,71
 1729 117 1729 117 1757.5 162 c 128,-1,72
 1786 207 1786 207 1786 335 c 2,73,-1
 1786 835 l 2,62,63
EndSplineSet
EndChar

StartChar: ampersand
Encoding: 38 38 9
Width: 830
Flags: W
LayerCount: 2
UndoRedoHistory
Layer: 1
Undoes
EndUndoes
Redoes
EndRedoes
EndUndoRedoHistory
Fore
SplineSet
832 690 m 1,0,1
 756 580 756 580 682 368 c 1,2,-1
 837 0 l 1,3,-1
 710 0 l 1,4,-1
 607 253 l 1,5,6
 556 54 556 54 444 2 c 0,7,8
 398 -20 398 -20 338 -20 c 0,9,10
 217 -20 217 -20 144.5 65 c 128,-1,11
 72 150 72 150 72 333 c 0,12,13
 72 532 72 532 144 684 c 0,14,15
 201 803 201 803 311 959 c 1,16,17
 166 1331 166 1331 166 1443 c 0,18,19
 166 1612 166 1612 232 1697 c 128,-1,20
 298 1782 298 1782 424 1782 c 0,21,22
 569 1782 569 1782 618 1690 c 0,23,24
 662 1606 662 1606 662 1434 c 0,25,26
 662 1288 662 1288 594 1159 c 0,27,28
 542 1060 542 1060 448 925 c 1,29,-1
 620 516 l 1,30,31
 697 697 697 697 771 797 c 1,32,-1
 832 690 l 1,0,1
295 1468 m 2,33,-1
 295 1445 l 2,34,35
 295 1353 295 1353 399 1057 c 1,36,37
 539 1256 539 1256 539 1456 c 0,38,39
 539 1570 539 1570 517 1618.5 c 128,-1,40
 495 1667 495 1667 425 1667 c 0,41,42
 358 1666 358 1666 332 1628 c 0,43,44
 303 1586 303 1586 300 1551 c 0,45,46
 295 1505 295 1505 295 1468 c 2,33,-1
365 826 m 1,47,48
 292 732 292 732 246 593.5 c 0,49,50
 200 454 200 454 200 342 c 0,51,52
 200 104 200 104 354 105 c 0,53,54
 399 105 399 105 435 142 c 128,-1,55
 471 179 471 179 489 218 c 0,56,57
 526 299 526 299 552 376 c 1,58,-1
 365 826 l 1,47,48
EndSplineSet
EndChar

StartChar: quotesingle
Encoding: 39 39 10
Width: 404
Flags: W
LayerCount: 2
UndoRedoHistory
Layer: 1
Undoes
EndUndoes
Redoes
EndRedoes
EndUndoRedoHistory
Fore
SplineSet
124 1761 m 1,0,-1
 282 1761 l 1,1,-1
 217 1125 l 1,2,-1
 184 1125 l 1,3,-1
 124 1761 l 1,0,-1
EndSplineSet
EndChar

StartChar: parenleft
Encoding: 40 40 11
Width: 546
Flags: W
LayerCount: 2
UndoRedoHistory
Layer: 1
Undoes
EndUndoes
Redoes
EndRedoes
EndUndoRedoHistory
Fore
SplineSet
428 -4 m 2,0,-1
 448 -4 l 1,1,-1
 448 -117 l 1,2,3
 324 -117 324 -117 278.5 -95.5 c 128,-1,4
 233 -74 233 -74 214.5 -47.5 c 128,-1,5
 196 -21 196 -21 182 27 c 0,6,7
 160 107 160 107 160 295 c 2,8,-1
 160 1370 l 2,9,10
 160 1558 160 1558 178 1622 c 128,-1,11
 196 1686 196 1686 214.5 1712.5 c 0,12,13
 233 1740 233 1740 268 1756 c 0,14,15
 324 1782 324 1782 448 1782 c 1,16,-1
 448 1669 l 1,17,-1
 439 1669 l 2,18,19
 362 1669 362 1669 352 1658 c 128,-1,20
 342 1647 342 1647 332.5 1632 c 128,-1,21
 323 1617 323 1617 320.5 1597.5 c 128,-1,22
 318 1578 318 1578 314 1544 c 0,23,24
 309 1502 309 1502 309 1374 c 2,25,-1
 309 291 l 2,26,27
 308 70 308 70 332 33 c 0,28,29
 342 18 342 18 348 11.5 c 128,-1,30
 354 5 354 5 372 1 c 0,31,32
 394 -4 394 -4 428 -4 c 2,0,-1
EndSplineSet
EndChar

StartChar: parenright
Encoding: 41 41 12
Width: 546
Flags: W
LayerCount: 2
UndoRedoHistory
Layer: 1
Undoes
EndUndoes
Redoes
EndRedoes
EndUndoRedoHistory
Fore
SplineSet
98 1669 m 1,0,-1
 98 1782 l 1,1,2
 222 1782 222 1782 267.5 1760.5 c 128,-1,3
 313 1739 313 1739 331.5 1712.5 c 128,-1,4
 350 1686 350 1686 364 1638 c 0,5,6
 386 1558 386 1558 386 1370 c 2,7,-1
 386 293 l 2,8,9
 386 105 386 105 368 41 c 128,-1,10
 350 -23 350 -23 331.5 -49.5 c 128,-1,11
 313 -76 313 -76 278 -92 c 0,12,13
 222 -118 222 -118 98 -119 c 1,14,-1
 98 -6 l 1,15,-1
 107 -6 l 2,16,17
 184 -6 184 -6 194 5 c 128,-1,18
 204 16 204 16 213.5 31 c 128,-1,19
 223 46 223 46 225.5 65.5 c 0,20,21
 228 84 228 84 232 118 c 0,22,23
 237 160 237 160 237 289 c 2,24,-1
 237 1374 l 2,25,26
 238 1595 238 1595 214 1632 c 0,27,28
 204 1647 204 1647 198 1653.5 c 128,-1,29
 192 1660 192 1660 174 1664 c 0,30,31
 152 1669 152 1669 127 1669 c 2,32,-1
 98 1669 l 1,0,-1
EndSplineSet
EndChar

StartChar: asterisk
Encoding: 42 42 13
Width: 960
Flags: W
LayerCount: 2
UndoRedoHistory
Layer: 1
Undoes
EndUndoes
Redoes
EndRedoes
EndUndoRedoHistory
Fore
SplineSet
414 1782 m 1,0,-1
 547 1782 l 1,1,-1
 527 1514 l 1,2,-1
 751 1686 l 1,3,-1
 819 1570 l 1,4,-1
 569 1438 l 1,5,-1
 819 1298 l 1,6,-1
 751 1181 l 1,7,-1
 527 1358 l 1,8,-1
 547 1086 l 1,9,-1
 414 1086 l 1,10,-1
 438 1362 l 1,11,-1
 216 1190 l 1,12,-1
 149 1308 l 1,13,-1
 391 1438 l 1,14,-1
 141 1560 l 1,15,-1
 209 1676 l 1,16,-1
 438 1513 l 1,17,-1
 414 1782 l 1,0,-1
EndSplineSet
EndChar

StartChar: plus
Encoding: 43 43 14
Width: 766
Flags: W
LayerCount: 2
UndoRedoHistory
Layer: 1
Undoes
EndUndoes
Redoes
EndRedoes
EndUndoRedoHistory
Fore
SplineSet
322 1208 m 1,0,-1
 440 1208 l 1,1,-1
 440 948 l 1,2,-1
 674 948 l 1,3,-1
 674 842 l 1,4,-1
 440 842 l 1,5,-1
 440 576 l 1,6,-1
 322 576 l 1,7,-1
 322 842 l 1,8,-1
 92 842 l 1,9,-1
 92 948 l 1,10,-1
 322 948 l 1,11,-1
 322 1208 l 1,0,-1
EndSplineSet
EndChar

StartChar: comma
Encoding: 44 44 15
Width: 437
Flags: W
LayerCount: 2
UndoRedoHistory
Layer: 1
Undoes
EndUndoes
Redoes
EndRedoes
EndUndoRedoHistory
Fore
SplineSet
143 173 m 1,0,-1
 343 173 l 1,1,-1
 343 9 l 1,2,-1
 239 -350 l 1,3,-1
 162 -350 l 1,4,-1
 258 0 l 1,5,-1
 143 0 l 1,6,-1
 143 173 l 1,0,-1
EndSplineSet
EndChar

StartChar: hyphen
Encoding: 45 45 16
Width: 696
Flags: W
LayerCount: 2
UndoRedoHistory
Layer: 1
Undoes
EndUndoes
Redoes
EndRedoes
EndUndoRedoHistory
Fore
SplineSet
109 958 m 1,0,-1
 587 958 l 1,1,-1
 587 842 l 1,2,-1
 109 842 l 1,3,-1
 109 958 l 1,0,-1
EndSplineSet
EndChar

StartChar: period
Encoding: 46 46 17
Width: 532
Flags: W
LayerCount: 2
UndoRedoHistory
Layer: 1
Undoes
EndUndoes
Redoes
EndRedoes
EndUndoRedoHistory
Fore
SplineSet
174 164 m 1,0,-1
 328 164 l 1,1,-1
 328 0 l 1,2,-1
 174 0 l 1,3,-1
 174 164 l 1,0,-1
EndSplineSet
EndChar

StartChar: slash
Encoding: 47 47 18
Width: 743
Flags: W
LayerCount: 2
UndoRedoHistory
Layer: 1
Undoes
EndUndoes
Redoes
EndRedoes
EndUndoRedoHistory
Fore
SplineSet
538 1782 m 1,0,-1
 673 1782 l 1,1,-1
 222 0 l 1,2,-1
 88 0 l 1,3,-1
 538 1782 l 1,0,-1
EndSplineSet
EndChar

StartChar: zero
Encoding: 48 48 19
Width: 831
Flags: W
LayerCount: 2
UndoRedoHistory
Layer: 1
Undoes
EndUndoes
Redoes
EndRedoes
EndUndoRedoHistory
Fore
SplineSet
136 1316 m 2,0,1
 136 1568 136 1568 197 1674.5 c 128,-1,2
 258 1781 258 1781 417 1781 c 0,3,4
 580 1781 580 1781 640 1670 c 0,5,6
 696 1566 696 1566 695 1316 c 2,7,-1
 695 475 l 2,8,9
 695 263 695 263 669 176.5 c 128,-1,10
 643 90 643 90 611 54 c 0,11,12
 546 -20 546 -20 417 -21 c 0,13,14
 258 -21 258 -21 197 93 c 128,-1,15
 136 207 136 207 136 475 c 2,16,-1
 136 1316 l 2,0,1
546 1327 m 2,17,18
 546 1556 546 1556 512 1608 c 0,19,20
 480 1656 480 1656 408 1657 c 1,21,22
 334 1657 334 1657 309 1585 c 128,-1,23
 284 1513 284 1513 284 1328 c 2,24,-1
 284 470 l 2,25,26
 284 258 284 258 307 188 c 0,27,28
 335 102 335 102 414 102 c 0,29,30
 476 102 476 102 502 140 c 0,31,32
 531 184 531 184 537 245 c 0,33,34
 546 336 546 336 546 470 c 2,35,-1
 546 1327 l 2,17,18
EndSplineSet
EndChar

StartChar: one
Encoding: 49 49 20
Width: 830
Flags: W
LayerCount: 2
UndoRedoHistory
Layer: 1
Undoes
EndUndoes
Redoes
EndRedoes
EndUndoRedoHistory
Fore
SplineSet
469 1761 m 1,0,-1
 558 1761 l 1,1,-1
 558 0 l 1,2,-1
 409 0 l 1,3,-1
 409 1534 l 1,4,5
 374 1493 374 1493 291.5 1460.5 c 128,-1,6
 209 1428 209 1428 151 1428 c 1,7,-1
 151 1521 l 1,8,9
 238 1533 238 1533 334 1600.5 c 128,-1,10
 430 1668 430 1668 469 1761 c 1,0,-1
EndSplineSet
EndChar

StartChar: two
Encoding: 50 50 21
Width: 830
Flags: W
LayerCount: 2
UndoRedoHistory
Layer: 1
Undoes
EndUndoes
Redoes
EndRedoes
EndUndoRedoHistory
Fore
SplineSet
176 1323 m 2,0,1
 176 1572 176 1572 244 1677 c 128,-1,2
 312 1782 312 1782 461 1782 c 0,3,4
 599 1782 599 1782 658.5 1669.5 c 128,-1,5
 718 1557 718 1557 718 1337.5 c 128,-1,6
 718 1118 718 1118 684 979 c 128,-1,7
 650 840 650 840 572 669 c 2,8,-1
 321 121 l 1,9,-1
 694 121 l 1,10,-1
 694 0 l 1,11,-1
 179 0 l 1,12,-1
 179 121 l 1,13,-1
 456 729 l 2,14,15
 536 905 536 905 557.5 1015 c 128,-1,16
 579 1125 579 1125 579 1289.5 c 128,-1,17
 579 1454 579 1454 567 1528.5 c 128,-1,18
 555 1603 555 1603 529 1629.5 c 128,-1,19
 503 1656 503 1656 454 1656 c 0,20,21
 382 1656 382 1656 349.5 1578.5 c 128,-1,22
 317 1501 317 1501 317 1319 c 2,23,-1
 317 1065 l 1,24,-1
 176 1065 l 1,25,-1
 176 1323 l 2,0,1
EndSplineSet
EndChar

StartChar: three
Encoding: 51 51 22
Width: 830
Flags: W
LayerCount: 2
UndoRedoHistory
Layer: 1
Undoes
EndUndoes
Redoes
EndRedoes
EndUndoRedoHistory
Fore
SplineSet
106 1321 m 2,0,1
 106 1555 106 1555 175 1667.5 c 128,-1,2
 244 1780 244 1780 408.5 1780 c 128,-1,3
 573 1780 573 1780 648 1666 c 128,-1,4
 723 1552 723 1552 723 1321 c 0,5,6
 723 980 723 980 548 914 c 1,7,8
 637 874 637 874 681.5 750 c 128,-1,9
 726 626 726 626 726 468 c 0,10,11
 726 218 726 218 649 99 c 128,-1,12
 572 -20 572 -20 406.5 -20 c 128,-1,13
 241 -20 241 -20 170.5 99.5 c 128,-1,14
 100 219 100 219 100 474 c 2,15,-1
 100 517 l 1,16,-1
 250 517 l 1,17,-1
 250 474 l 2,18,19
 250 253 250 253 281.5 178.5 c 128,-1,20
 313 104 313 104 411 104 c 128,-1,21
 509 104 509 104 542.5 182.5 c 128,-1,22
 576 261 576 261 576 440.5 c 128,-1,23
 576 620 576 620 553 704 c 128,-1,24
 530 788 530 788 484.5 821 c 128,-1,25
 439 854 439 854 362 854 c 2,26,-1
 323 854 l 1,27,-1
 323 982 l 1,28,-1
 360 982 l 2,29,30
 451 982 451 982 488.5 1007 c 128,-1,31
 526 1032 526 1032 541 1070 c 0,32,33
 573 1150 573 1150 573 1288 c 128,-1,34
 573 1426 573 1426 560 1495 c 128,-1,35
 547 1564 547 1564 522 1598 c 0,36,37
 479 1656 479 1656 404 1655 c 0,38,39
 292 1655 292 1655 266 1488 c 0,40,41
 256 1420 256 1420 255 1318 c 2,42,-1
 255 1287 l 1,43,-1
 106 1287 l 1,44,-1
 106 1321 l 2,0,1
EndSplineSet
EndChar

StartChar: four
Encoding: 52 52 23
Width: 830
Flags: W
LayerCount: 2
UndoRedoHistory
Layer: 1
Undoes
EndUndoes
Redoes
EndRedoes
EndUndoRedoHistory
Fore
SplineSet
476 1760 m 1,0,-1
 620 1760 l 1,1,-1
 620 468 l 1,2,-1
 774 468 l 1,3,-1
 774 352 l 1,4,-1
 620 352 l 1,5,-1
 620 -1 l 1,6,-1
 485 -1 l 1,7,-1
 485 352 l 1,8,-1
 95 352 l 1,9,-1
 95 449 l 1,10,-1
 476 1760 l 1,0,-1
485 468 m 1,11,-1
 485 1468 l 1,12,-1
 217 468 l 1,13,-1
 485 468 l 1,11,-1
EndSplineSet
EndChar

StartChar: five
Encoding: 53 53 24
Width: 830
Flags: W
LayerCount: 2
UndoRedoHistory
Layer: 1
Undoes
EndUndoes
Redoes
EndRedoes
EndUndoRedoHistory
Fore
SplineSet
188 1760 m 1,0,-1
 648 1760 l 1,1,-1
 648 1624 l 1,2,-1
 323 1624 l 1,3,-1
 323 1126 l 1,4,5
 336 1168 336 1168 376 1193.5 c 128,-1,6
 416 1219 416 1219 444.5 1220.5 c 128,-1,7
 473 1222 473 1222 493 1222 c 128,-1,8
 513 1222 513 1222 539.5 1216.5 c 128,-1,9
 566 1211 566 1211 596 1187 c 0,10,11
 626 1162 626 1162 644 1120 c 0,12,13
 686 1025 686 1025 686 828 c 2,14,-1
 686 321 l 2,15,16
 686 155 686 155 628 67.5 c 128,-1,17
 570 -20 570 -20 430 -20 c 0,18,19
 251 -20 251 -20 194 113 c 0,20,21
 164 183 164 183 164 291 c 2,22,-1
 164 459 l 1,23,-1
 307 459 l 1,24,-1
 307 263 l 2,25,26
 307 178 307 178 335 140 c 128,-1,27
 363 102 363 102 424.5 102 c 128,-1,28
 486 102 486 102 515.5 141.5 c 128,-1,29
 545 181 545 181 545 274 c 2,30,-1
 545 869 l 2,31,32
 545 985 545 985 519.5 1038 c 128,-1,33
 494 1091 494 1091 437 1091 c 128,-1,34
 380 1091 380 1091 346 1039.5 c 128,-1,35
 312 988 312 988 312 888 c 1,36,-1
 188 910 l 1,37,-1
 188 1760 l 1,0,-1
EndSplineSet
EndChar

StartChar: six
Encoding: 54 54 25
Width: 830
Flags: W
LayerCount: 2
UndoRedoHistory
Layer: 1
Undoes
EndUndoes
Redoes
EndRedoes
EndUndoRedoHistory
Fore
SplineSet
284 1013 m 1,0,1
 350 1102 350 1102 462 1102 c 0,2,3
 618 1102 618 1102 681.5 984 c 128,-1,4
 745 866 745 866 745 559 c 2,5,-1
 745 442 l 2,6,7
 744 212 744 212 684 100 c 0,8,9
 618 -20 618 -20 442 -20 c 0,10,11
 275 -20 275 -20 207 94 c 0,12,13
 136 213 136 213 136 506 c 2,14,-1
 136 1264 l 2,15,16
 136 1486 136 1486 162.5 1575.5 c 128,-1,17
 189 1665 189 1665 223 1703 c 0,18,19
 294 1782 294 1782 440 1782 c 0,20,21
 590 1782 590 1782 645 1691 c 0,22,23
 685 1625 685 1625 694 1549 c 0,24,25
 709 1432 709 1432 711 1284 c 1,26,-1
 711 1252 l 1,27,-1
 559 1252 l 1,28,-1
 559 1283 l 2,29,30
 559 1519 559 1519 539 1579 c 0,31,32
 520 1636 520 1636 483 1648 c 0,33,34
 463 1654 463 1654 427.5 1654.5 c 128,-1,35
 392 1655 392 1655 366.5 1643 c 128,-1,36
 341 1631 341 1631 323.5 1607 c 0,37,38
 306 1582 306 1582 298 1532 c 0,39,40
 284 1444 284 1444 284 1255 c 2,41,-1
 284 1013 l 1,0,1
595 547 m 2,42,43
 595 797 595 797 567 887.5 c 128,-1,44
 539 978 539 978 453 978 c 0,45,46
 380 978 380 978 333.5 952.5 c 128,-1,47
 287 927 287 927 284 926 c 1,48,-1
 284 504 l 2,49,50
 284 262 284 262 307 200 c 0,51,52
 332 132 332 132 378 116 c 0,53,54
 404 107 404 107 454.5 107 c 128,-1,55
 505 107 505 107 536.5 135 c 128,-1,56
 568 163 568 163 581.5 234 c 128,-1,57
 595 305 595 305 595 446 c 2,58,-1
 595 547 l 2,42,43
EndSplineSet
EndChar

StartChar: seven
Encoding: 55 55 26
Width: 830
Flags: W
LayerCount: 2
UndoRedoHistory
Layer: 1
Undoes
EndUndoes
Redoes
EndRedoes
EndUndoRedoHistory
Fore
SplineSet
95 1760 m 1,0,-1
 728 1760 l 1,1,-1
 728 1654 l 1,2,3
 723 1654 723 1654 676.5 1509 c 128,-1,4
 630 1364 630 1364 582 1175 c 0,5,6
 427 560 427 560 391 1 c 1,7,-1
 236 1 l 1,8,9
 285 619 285 619 434 1165 c 1,10,11
 509 1425 509 1425 576 1592 c 1,12,-1
 598 1643 l 1,13,-1
 95 1643 l 1,14,-1
 95 1760 l 1,0,-1
EndSplineSet
EndChar

StartChar: eight
Encoding: 56 56 27
Width: 830
Flags: W
LayerCount: 2
UndoRedoHistory
Layer: 1
Undoes
EndUndoes
Redoes
EndRedoes
EndUndoRedoHistory
Fore
SplineSet
111 403 m 2,0,-1
 110 434 l 1,1,2
 110 638 110 638 146.5 755 c 128,-1,3
 183 872 183 872 265 927 c 1,4,5
 193 978 193 978 160.5 1077.5 c 128,-1,6
 128 1177 128 1177 128 1375.5 c 128,-1,7
 128 1574 128 1574 198.5 1678 c 128,-1,8
 269 1782 269 1782 423.5 1782 c 128,-1,9
 578 1782 578 1782 647.5 1678.5 c 128,-1,10
 717 1575 717 1575 717 1378 c 128,-1,11
 717 1181 717 1181 682.5 1082.5 c 128,-1,12
 648 984 648 984 571 931 c 1,13,14
 650 874 650 874 685.5 756 c 128,-1,15
 721 638 721 638 721 434 c 2,16,-1
 721 413 l 1,17,18
 716 186 716 186 644.5 83 c 128,-1,19
 573 -20 573 -20 419 -20 c 128,-1,20
 265 -20 265 -20 191.5 80.5 c 128,-1,21
 118 181 118 181 111 403 c 2,0,-1
536.5 767 m 128,-1,23
 501 869 501 869 419 869 c 0,24,25
 337 868 337 868 298 764 c 0,26,27
 259 661 259 661 259 464 c 0,28,29
 260 460 260 460 260 458 c 0,30,31
 260 256 260 256 299 179.5 c 128,-1,32
 338 103 338 103 419.5 103 c 128,-1,33
 501 103 501 103 536.5 183 c 128,-1,34
 572 263 572 263 572 464 c 128,-1,22
 572 665 572 665 536.5 767 c 128,-1,23
533 1070 m 128,-1,36
 568 1158 568 1158 568 1334.5 c 128,-1,37
 568 1511 568 1511 533 1582 c 128,-1,38
 498 1653 498 1653 421.5 1653 c 128,-1,39
 345 1653 345 1653 311 1580.5 c 128,-1,40
 277 1508 277 1508 277 1332 c 128,-1,41
 277 1156 277 1156 311 1069 c 128,-1,42
 345 982 345 982 421.5 982 c 128,-1,35
 498 982 498 982 533 1070 c 128,-1,36
EndSplineSet
EndChar

StartChar: nine
Encoding: 57 57 28
Width: 830
Flags: W
LayerCount: 2
UndoRedoHistory
Layer: 1
Undoes
EndUndoes
Redoes
EndRedoes
EndUndoRedoHistory
Fore
SplineSet
109 1252 m 2,0,1
 109 1469 109 1469 123.5 1528.5 c 128,-1,2
 138 1588 138 1588 152 1628 c 128,-1,3
 166 1668 166 1668 188 1693.5 c 0,4,5
 210 1718 210 1718 240 1740 c 0,6,7
 297 1782 297 1782 378 1782 c 128,-1,8
 459 1782 459 1782 504 1767.5 c 128,-1,9
 549 1753 549 1753 579.5 1729.5 c 128,-1,10
 610 1706 610 1706 631.5 1666 c 128,-1,11
 653 1626 653 1626 665 1586 c 0,12,13
 678 1546 678 1546 684 1486 c 0,14,15
 694 1390 694 1390 694 1254 c 2,16,-1
 694 542 l 2,17,18
 694 264 694 264 666 170 c 0,19,20
 634 64 634 64 584 28 c 0,21,22
 517 -20 517 -20 435 -20 c 128,-1,23
 353 -20 353 -20 307 0 c 128,-1,24
 261 20 261 20 231 57 c 0,25,26
 202 94 202 94 184 156 c 0,27,28
 150 279 150 279 149 508 c 1,29,-1
 292 508 l 1,30,-1
 292 483 l 1,31,32
 295 229 295 229 317 170 c 0,33,34
 336 119 336 119 379 108 c 0,35,36
 399 103 399 103 431 103 c 0,37,38
 502 103 502 103 523 158 c 128,-1,39
 544 213 544 213 544 370 c 0,40,41
 544 378 544 378 544 391 c 128,-1,42
 544 404 544 404 544 450 c 2,43,-1
 544 712 l 1,44,45
 493 662 493 662 407.5 662 c 128,-1,46
 322 662 322 662 271 686.5 c 128,-1,47
 220 711 220 711 188.5 753.5 c 0,48,49
 158 796 158 796 140 869 c 0,50,51
 110 996 110 996 109 1226 c 2,52,-1
 109 1252 l 2,0,1
544 1255 m 2,53,54
 544 1484 544 1484 522 1554 c 0,55,56
 499 1624 499 1624 458 1642 c 0,57,58
 435 1652 435 1652 402.5 1652.5 c 128,-1,59
 370 1653 370 1653 345.5 1642.5 c 128,-1,60
 321 1632 321 1632 305.5 1607 c 128,-1,61
 290 1582 290 1582 280.5 1553.5 c 0,62,63
 270 1524 270 1524 266 1474 c 0,64,65
 258 1390 258 1390 259 1257 c 2,66,-1
 259 1208 l 2,67,68
 258 942 258 942 282 870 c 0,69,70
 305 800 305 800 350 784 c 0,71,72
 374 776 374 776 429 776 c 128,-1,73
 484 776 484 776 544 803 c 1,74,-1
 544 1255 l 2,53,54
EndSplineSet
EndChar

StartChar: colon
Encoding: 58 58 29
Width: 555
Flags: W
LayerCount: 2
UndoRedoHistory
Layer: 1
Undoes
EndUndoes
Redoes
EndRedoes
EndUndoRedoHistory
Fore
SplineSet
179 543 m 1,0,-1
 362 543 l 1,1,-1
 362 312 l 1,2,-1
 179 312 l 1,3,-1
 179 543 l 1,0,-1
179 1279 m 1,4,-1
 362 1279 l 1,5,-1
 362 1048 l 1,6,-1
 179 1048 l 1,7,-1
 179 1279 l 1,4,-1
EndSplineSet
EndChar

StartChar: semicolon
Encoding: 59 59 30
Width: 561
Flags: W
LayerCount: 2
UndoRedoHistory
Layer: 1
Undoes
EndUndoes
Redoes
EndRedoes
EndUndoRedoHistory
Fore
SplineSet
179 1279 m 1,0,-1
 362 1279 l 1,1,-1
 362 1048 l 1,2,-1
 179 1048 l 1,3,-1
 179 1279 l 1,0,-1
181 523 m 1,4,-1
 381 523 l 1,5,-1
 381 359 l 1,6,-1
 277 0 l 1,7,-1
 200 0 l 1,8,-1
 296 350 l 1,9,-1
 181 350 l 1,10,-1
 181 523 l 1,4,-1
EndSplineSet
EndChar

StartChar: less
Encoding: 60 60 31
Width: 730
Flags: W
LayerCount: 2
UndoRedoHistory
Layer: 1
Undoes
EndUndoes
Redoes
EndRedoes
EndUndoRedoHistory
Fore
SplineSet
63 823 m 1,0,-1
 642 1219 l 1,1,-1
 642 1051 l 1,2,-1
 174 758 l 1,3,-1
 642 448 l 1,4,-1
 642 288 l 1,5,-1
 63 688 l 1,6,-1
 63 823 l 1,0,-1
EndSplineSet
EndChar

StartChar: equal
Encoding: 61 61 32
Width: 722
Flags: W
LayerCount: 2
UndoRedoHistory
Layer: 1
Undoes
EndUndoes
Redoes
EndRedoes
EndUndoRedoHistory
Fore
SplineSet
94 1025 m 1,0,-1
 628 1025 l 1,1,-1
 628 896 l 1,2,-1
 94 896 l 1,3,-1
 94 1025 l 1,0,-1
94 729 m 1,4,-1
 628 729 l 1,5,-1
 628 601 l 1,6,-1
 94 601 l 1,7,-1
 94 729 l 1,4,-1
EndSplineSet
EndChar

StartChar: greater
Encoding: 62 62 33
Width: 730
Flags: W
LayerCount: 2
UndoRedoHistory
Layer: 1
Undoes
EndUndoes
Redoes
EndRedoes
EndUndoRedoHistory
Fore
SplineSet
84 1059 m 1,0,-1
 84 1219 l 1,1,-1
 663 818 l 1,2,-1
 663 684 l 1,3,-1
 84 288 l 1,4,-1
 84 456 l 1,5,-1
 552 749 l 1,6,-1
 84 1059 l 1,0,-1
EndSplineSet
EndChar

StartChar: question
Encoding: 63 63 34
Width: 708
Flags: W
LayerCount: 2
UndoRedoHistory
Layer: 1
Undoes
EndUndoes
Redoes
EndRedoes
EndUndoRedoHistory
Fore
SplineSet
158 1365 m 1,0,1
 156 1476 l 1,2,3
 156 1614 156 1614 192 1678 c 0,4,5
 221 1731 221 1731 254 1748 c 0,6,7
 315 1782 315 1782 375 1782 c 128,-1,8
 435 1782 435 1782 468.5 1775 c 128,-1,9
 502 1768 502 1768 526 1748.5 c 128,-1,10
 550 1729 550 1729 567 1712 c 128,-1,11
 584 1695 584 1695 594.5 1658 c 128,-1,12
 605 1621 605 1621 611 1596 c 0,13,14
 618 1571 618 1571 620 1518 c 0,15,16
 624 1444 624 1444 623 1383 c 2,17,-1
 623 1314 l 2,18,19
 623 1048 623 1048 564.5 920.5 c 128,-1,20
 506 793 506 793 353 750 c 1,21,-1
 353 494 l 1,22,-1
 228 494 l 1,23,-1
 228 810 l 1,24,25
 324 845 324 845 362.5 878.5 c 128,-1,26
 401 912 401 912 420 935.5 c 128,-1,27
 439 959 439 959 452.5 995.5 c 128,-1,28
 466 1032 466 1032 473.5 1064.5 c 128,-1,29
 481 1097 481 1097 485 1150 c 0,30,31
 491 1230 491 1230 491 1382 c 128,-1,32
 491 1534 491 1534 472.5 1597.5 c 128,-1,33
 454 1661 454 1661 393 1661 c 128,-1,34
 332 1661 332 1661 311 1602.5 c 128,-1,35
 290 1544 290 1544 290 1375 c 2,36,-1
 290 1160 l 1,37,-1
 158 1160 l 1,38,-1
 158 1365 l 1,0,1
227 299 m 1,39,-1
 353 299 l 1,40,-1
 353 1 l 1,41,-1
 227 1 l 1,42,-1
 227 299 l 1,39,-1
EndSplineSet
EndChar

StartChar: at
Encoding: 64 64 35
Width: 1340
Flags: W
LayerCount: 2
UndoRedoHistory
Layer: 1
Undoes
EndUndoes
Redoes
EndRedoes
EndUndoRedoHistory
Fore
SplineSet
1161 121 m 1,0,1
 948 53 948 53 783 53 c 128,-1,2
 618 53 618 53 491.5 96.5 c 128,-1,3
 365 140 365 140 266 232 c 0,4,5
 60 423 60 423 60 790 c 0,6,7
 60 1266 60 1266 277 1466 c 0,8,9
 440 1616 440 1616 739 1616 c 0,10,11
 1042 1616 1042 1616 1166 1410 c 0,12,13
 1280 1220 1280 1220 1280 867 c 0,14,15
 1280 663 1280 663 1228 527 c 0,16,17
 1173 382 1173 382 1051 382 c 1,18,19
 986 382 986 382 942 426.5 c 128,-1,20
 898 471 898 471 886 548 c 1,21,22
 858 450 858 450 766 402 c 0,23,24
 710 373 710 373 660 373 c 128,-1,25
 610 373 610 373 567 388 c 0,26,27
 449 431 449 431 394 572 c 0,28,29
 357 668 357 668 357 767 c 128,-1,30
 357 866 357 866 364 923.5 c 128,-1,31
 371 981 371 981 389 1041 c 0,32,33
 406 1101 406 1101 436 1146 c 0,34,35
 526 1284 526 1284 714 1284 c 0,36,37
 831 1284 831 1284 975 1237 c 1,38,-1
 975 641 l 2,39,40
 975 553 975 553 992 510.5 c 128,-1,41
 1009 468 1009 468 1052 468 c 0,42,43
 1171 468 1171 468 1171 864 c 0,44,45
 1171 1061 1171 1061 1156 1136 c 128,-1,46
 1141 1211 1141 1211 1125 1260 c 128,-1,47
 1109 1309 1109 1309 1086.5 1344 c 128,-1,48
 1064 1379 1064 1379 1030.5 1413 c 0,49,50
 997 1448 997 1448 955 1468 c 0,51,52
 860 1514 860 1514 735.5 1514 c 128,-1,53
 611 1514 611 1514 518 1479 c 128,-1,54
 425 1444 425 1444 363 1382 c 0,55,56
 302 1320 302 1320 262 1228 c 0,57,58
 188 1056 188 1056 188 787 c 0,59,60
 188 610 188 610 240 478 c 0,61,62
 338 234 338 234 596 170 c 0,63,64
 680 149 680 149 771 149 c 0,65,66
 945 149 945 149 1143 221 c 1,67,-1
 1161 121 l 1,0,1
856 1188 m 1,68,69
 798 1198 798 1198 767 1198 c 128,-1,70
 736 1198 736 1198 703.5 1195 c 128,-1,71
 671 1192 671 1192 639.5 1179 c 128,-1,72
 608 1166 608 1166 576.5 1137.5 c 0,73,74
 545 1108 545 1108 524 1066 c 0,75,76
 477 971 477 971 477 806 c 0,77,78
 477 549 477 549 588 485 c 0,79,80
 620 467 620 467 659.5 467 c 128,-1,81
 699 467 699 467 747 494 c 0,82,83
 819 535 819 535 849 607 c 1,84,-1
 856 628 l 1,85,-1
 856 1188 l 1,68,69
EndSplineSet
EndChar

StartChar: A
Encoding: 65 65 36
Width: 817
Flags: W
LayerCount: 2
UndoRedoHistory
Layer: 1
Undoes
EndUndoes
Redoes
EndRedoes
EndUndoRedoHistory
Fore
SplineSet
561 473 m 1,0,-1
 399 1476 l 1,1,-1
 397 1476 l 1,2,-1
 248 473 l 1,3,-1
 561 473 l 1,0,-1
318 1760 m 1,4,-1
 470 1760 l 1,5,-1
 783 0 l 1,6,-1
 639 0 l 1,7,-1
 581 362 l 1,8,-1
 229 362 l 1,9,-1
 176 0 l 1,10,-1
 35 0 l 1,11,-1
 318 1760 l 1,4,-1
EndSplineSet
EndChar

StartChar: B
Encoding: 66 66 37
Width: 868
Flags: W
LayerCount: 2
UndoRedoHistory
Layer: 1
Undoes
EndUndoes
Redoes
EndRedoes
EndUndoRedoHistory
Fore
SplineSet
166 1760 m 1,0,-1
 423 1760 l 2,1,2
 581 1760 581 1760 656 1703 c 0,3,4
 724 1652 724 1652 742 1516 c 0,5,6
 750 1456 750 1456 751 1366 c 1,7,-1
 751 1343 l 2,8,9
 751 1172 751 1172 729 1082 c 128,-1,10
 707 992 707 992 638 947 c 1,11,12
 716 909 716 909 745.5 797.5 c 128,-1,13
 775 686 775 686 775 518 c 2,14,-1
 775 487 l 1,15,16
 771 230 771 230 711 119 c 0,17,18
 647 0 647 0 468 0 c 2,19,-1
 166 0 l 1,20,-1
 166 1760 l 1,0,-1
476 884 m 2,21,-1
 315 884 l 1,22,-1
 315 128 l 1,23,-1
 473 128 l 2,24,25
 546 128 546 128 581 178 c 0,26,27
 613 224 613 224 620 330 c 0,28,29
 626 428 626 428 626 562 c 0,30,31
 626 572 626 572 626 583 c 0,32,33
 626 731 626 731 595.5 807.5 c 128,-1,34
 565 884 565 884 476 884 c 2,21,-1
427 1629 m 2,35,-1
 315 1629 l 1,36,-1
 315 1004 l 1,37,-1
 449 1004 l 2,38,39
 518 1004 518 1004 541.5 1019 c 128,-1,40
 565 1034 565 1034 574 1054.5 c 0,41,42
 582 1075 582 1075 590 1116 c 0,43,44
 601 1176 601 1176 602 1291 c 0,45,46
 602 1296 602 1296 602 1301 c 0,47,48
 602 1424 602 1424 595 1473.5 c 128,-1,49
 588 1523 588 1523 576.5 1554.5 c 128,-1,50
 565 1586 565 1586 542 1602 c 0,51,52
 503 1629 503 1629 427 1629 c 2,35,-1
EndSplineSet
EndChar

StartChar: C
Encoding: 67 67 38
Width: 868
Flags: W
LayerCount: 2
UndoRedoHistory
Layer: 1
Undoes
EndUndoes
Redoes
EndRedoes
EndUndoRedoHistory
Fore
SplineSet
136 1251 m 2,0,1
 136 1570 136 1570 221 1682 c 0,2,3
 297 1782 297 1782 454 1782 c 0,4,5
 594 1782 594 1782 658 1709 c 0,6,7
 704 1656 704 1656 718 1603.5 c 128,-1,8
 732 1551 732 1551 737.5 1516.5 c 128,-1,9
 743 1482 743 1482 746 1430 c 0,10,11
 751 1344 751 1344 751 1239 c 2,12,-1
 751 1087 l 1,13,-1
 600 1087 l 1,14,-1
 600 1257 l 2,15,16
 600 1461 600 1461 580 1535 c 128,-1,17
 560 1609 560 1609 530 1633.5 c 128,-1,18
 500 1658 500 1658 453 1658 c 0,19,20
 358 1658 358 1658 321.5 1562 c 128,-1,21
 285 1466 285 1466 285 1258 c 2,22,-1
 285 552 l 2,23,24
 285 297 285 297 317 199.5 c 128,-1,25
 349 102 349 102 445 102 c 128,-1,26
 541 102 541 102 570.5 199 c 128,-1,27
 600 296 600 296 600 551 c 2,28,-1
 600 692 l 1,29,-1
 750 692 l 1,30,-1
 750 552 l 2,31,32
 750 321 750 321 724 219.5 c 128,-1,33
 698 118 698 118 665 74 c 0,34,35
 595 -20 595 -20 448 -20 c 0,36,37
 301 -20 301 -20 227 73 c 0,38,39
 136 187 136 187 136 550 c 2,40,-1
 136 1251 l 2,0,1
EndSplineSet
EndChar

StartChar: D
Encoding: 68 68 39
Width: 914
Flags: W
LayerCount: 2
UndoRedoHistory
Layer: 1
Undoes
EndUndoes
Redoes
EndRedoes
EndUndoRedoHistory
Fore
SplineSet
166 1760 m 1,0,-1
 437 1760 l 2,1,2
 675 1760 675 1760 740 1566 c 0,3,4
 778 1453 778 1453 778 1258 c 2,5,-1
 778 504 l 2,6,7
 778 229 778 229 700 114.5 c 128,-1,8
 622 0 622 0 431 0 c 2,9,-1
 166 0 l 1,10,-1
 166 1760 l 1,0,-1
629 1274 m 2,11,12
 629 1466 629 1466 584.5 1551 c 128,-1,13
 540 1636 540 1636 446 1636 c 2,14,-1
 314 1636 l 1,15,-1
 314 128 l 1,16,-1
 437 128 l 2,17,18
 560 128 560 128 598 241 c 0,19,20
 628 334 628 334 629 519 c 2,21,-1
 629 1274 l 2,11,12
EndSplineSet
EndChar

StartChar: E
Encoding: 69 69 40
Width: 716
Flags: W
LayerCount: 2
UndoRedoHistory
Layer: 1
Undoes
EndUndoes
Redoes
EndRedoes
EndUndoRedoHistory
Fore
SplineSet
166 1760 m 1,0,-1
 631 1760 l 1,1,-1
 631 1644 l 1,2,-1
 315 1644 l 1,3,-1
 315 956 l 1,4,-1
 612 956 l 1,5,-1
 612 835 l 1,6,-1
 315 835 l 1,7,-1
 315 118 l 1,8,-1
 628 118 l 1,9,-1
 628 0 l 1,10,-1
 166 0 l 1,11,-1
 166 1760 l 1,0,-1
EndSplineSet
EndChar

StartChar: F
Encoding: 70 70 41
Width: 695
Flags: W
LayerCount: 2
UndoRedoHistory
Layer: 1
Undoes
EndUndoes
Redoes
EndRedoes
EndUndoRedoHistory
Fore
SplineSet
166 1760 m 1,0,-1
 628 1760 l 1,1,-1
 628 1644 l 1,2,-1
 314 1644 l 1,3,-1
 314 1005 l 1,4,-1
 611 1005 l 1,5,-1
 611 886 l 1,6,-1
 314 886 l 1,7,-1
 314 0 l 1,8,-1
 166 0 l 1,9,-1
 166 1760 l 1,0,-1
EndSplineSet
EndChar

StartChar: G
Encoding: 71 71 42
Width: 890
Flags: W
LayerCount: 2
UndoRedoHistory
Layer: 1
Undoes
EndUndoes
Redoes
EndRedoes
EndUndoRedoHistory
Fore
SplineSet
136 1245 m 2,0,1
 136 1518 136 1518 190 1627 c 0,2,3
 242 1733 242 1733 334 1764 c 0,4,5
 386 1782 386 1782 446.5 1782 c 128,-1,6
 507 1782 507 1782 548 1772 c 128,-1,7
 589 1762 589 1762 618.5 1740 c 128,-1,8
 648 1718 648 1718 670 1692.5 c 128,-1,9
 692 1667 692 1667 706 1626.5 c 128,-1,10
 720 1586 720 1586 729 1548.5 c 0,11,12
 738 1510 738 1510 742 1456 c 0,13,14
 749 1361 749 1361 749 1247 c 2,15,-1
 749 1100 l 1,16,-1
 597 1100 l 1,17,-1
 597 1372 l 2,18,19
 597 1521 597 1521 567 1589.5 c 128,-1,20
 537 1658 537 1658 447 1658 c 128,-1,21
 357 1658 357 1658 321 1569.5 c 128,-1,22
 285 1481 285 1481 285 1261 c 2,23,-1
 285 543 l 2,24,25
 285 294 285 294 317 198 c 128,-1,26
 349 102 349 102 443 102 c 128,-1,27
 537 102 537 102 569 199 c 128,-1,28
 601 296 601 296 601 541 c 2,29,-1
 601 763 l 1,30,-1
 450 763 l 1,31,-1
 450 890 l 1,32,-1
 749 890 l 1,33,-1
 749 0 l 1,34,-1
 651 0 l 1,35,-1
 635 102 l 1,36,37
 598 40 598 40 548 10 c 128,-1,38
 498 -20 498 -20 419 -20 c 0,39,40
 271 -20 271 -20 203.5 109.5 c 128,-1,41
 136 239 136 239 136 532 c 2,42,-1
 136 1245 l 2,0,1
EndSplineSet
EndChar

StartChar: H
Encoding: 72 72 43
Width: 952
Flags: W
LayerCount: 2
UndoRedoHistory
Layer: 1
Undoes
EndUndoes
Redoes
EndRedoes
EndUndoRedoHistory
Fore
SplineSet
637 1760 m 1,0,-1
 786 1760 l 1,1,-1
 786 0 l 1,2,-1
 637 0 l 1,3,-1
 637 886 l 1,4,-1
 315 886 l 1,5,-1
 315 0 l 1,6,-1
 166 0 l 1,7,-1
 166 1760 l 1,8,-1
 315 1760 l 1,9,-1
 315 998 l 1,10,-1
 637 998 l 1,11,-1
 637 1760 l 1,0,-1
EndSplineSet
EndChar

StartChar: I
Encoding: 73 73 44
Width: 485
Flags: W
LayerCount: 2
UndoRedoHistory
Layer: 1
Undoes
EndUndoes
Redoes
EndRedoes
EndUndoRedoHistory
Fore
SplineSet
168 1760 m 1,0,-1
 317 1760 l 1,1,-1
 317 0 l 1,2,-1
 168 0 l 1,3,-1
 168 1760 l 1,0,-1
EndSplineSet
EndChar

StartChar: J
Encoding: 74 74 45
Width: 784
Flags: W
LayerCount: 2
UndoRedoHistory
Layer: 1
Undoes
EndUndoes
Redoes
EndRedoes
EndUndoRedoHistory
Fore
SplineSet
481 1760 m 1,0,-1
 630 1760 l 1,1,-1
 630 420 l 2,2,3
 630 190 630 190 567.5 85 c 128,-1,4
 505 -20 505 -20 354 -20 c 128,-1,5
 203 -20 203 -20 140.5 77 c 128,-1,6
 78 174 78 174 78 389 c 2,7,-1
 78 540 l 1,8,-1
 229 540 l 1,9,-1
 229 337 l 2,10,11
 228 212 228 212 250 170 c 0,12,13
 271 130 271 130 286 121 c 0,14,15
 319 101 319 101 357 101 c 0,16,17
 376 100 376 100 396 106 c 0,18,19
 420 112 420 112 440 136 c 128,-1,20
 460 160 460 160 465.5 185 c 128,-1,21
 471 210 471 210 474.5 226 c 128,-1,22
 478 242 478 242 479.5 277.5 c 128,-1,23
 481 313 481 313 481 332 c 2,24,-1
 481 1760 l 1,0,-1
EndSplineSet
EndChar

StartChar: K
Encoding: 75 75 46
Width: 854
Flags: W
LayerCount: 2
UndoRedoHistory
Layer: 1
Undoes
EndUndoes
Redoes
EndRedoes
EndUndoRedoHistory
Fore
SplineSet
670 1760 m 1,0,-1
 814 1760 l 1,1,-1
 452 891 l 1,2,-1
 837 0 l 1,3,-1
 683 0 l 1,4,-1
 317 860 l 1,5,-1
 317 0 l 1,6,-1
 166 0 l 1,7,-1
 166 1760 l 1,8,-1
 315 1760 l 1,9,-1
 315 893 l 1,10,-1
 670 1760 l 1,0,-1
EndSplineSet
EndChar

StartChar: L
Encoding: 76 76 47
Width: 643
Flags: W
LayerCount: 2
UndoRedoHistory
Layer: 1
Undoes
EndUndoes
Redoes
EndRedoes
EndUndoRedoHistory
Fore
SplineSet
166 1760 m 1,0,-1
 315 1760 l 1,1,-1
 315 118 l 1,2,-1
 627 118 l 1,3,-1
 627 0 l 1,4,-1
 166 0 l 1,5,-1
 166 1760 l 1,0,-1
EndSplineSet
EndChar

StartChar: M
Encoding: 77 77 48
Width: 1204
Flags: W
LayerCount: 2
UndoRedoHistory
Layer: 1
Undoes
EndUndoes
Redoes
EndRedoes
EndUndoRedoHistory
Fore
SplineSet
877 1760 m 1,0,-1
 1044 1760 l 1,1,-1
 1044 0 l 1,2,-1
 909 0 l 1,3,-1
 909 754 l 1,4,-1
 932 1463 l 1,5,-1
 681 38 l 1,6,-1
 539 38 l 1,7,-1
 279 1463 l 1,8,-1
 302 754 l 1,9,-1
 302 0 l 1,10,-1
 166 0 l 1,11,-1
 166 1760 l 1,12,-1
 333 1760 l 1,13,-1
 610 282 l 1,14,-1
 877 1760 l 1,0,-1
EndSplineSet
EndChar

StartChar: N
Encoding: 78 78 49
Width: 983
Flags: W
LayerCount: 2
UndoRedoHistory
Layer: 1
Undoes
EndUndoes
Redoes
EndRedoes
EndUndoRedoHistory
Fore
SplineSet
687 1760 m 1,0,-1
 817 1760 l 1,1,-1
 817 0 l 1,2,-1
 701 0 l 1,3,-1
 296 1326 l 1,4,-1
 306 850 l 1,5,-1
 306 0 l 1,6,-1
 166 0 l 1,7,-1
 166 1760 l 1,8,-1
 270 1760 l 1,9,-1
 702 399 l 1,10,-1
 687 1005 l 1,11,-1
 687 1760 l 1,0,-1
EndSplineSet
EndChar

StartChar: O
Encoding: 79 79 50
Width: 891
Flags: W
LayerCount: 2
UndoRedoHistory
Layer: 1
Undoes
EndUndoes
Redoes
EndRedoes
EndUndoRedoHistory
Fore
SplineSet
136 1268 m 2,0,1
 136 1588 136 1588 220 1690 c 0,2,3
 296 1782 296 1782 454 1782 c 0,4,5
 628 1782 628 1782 691 1674 c 0,6,7
 733 1601 733 1601 742 1522 c 0,8,9
 755 1407 755 1407 755 1268 c 2,10,-1
 755 519 l 2,11,12
 755 290 755 290 727.5 196.5 c 128,-1,13
 700 103 700 103 665.5 63 c 128,-1,14
 631 23 631 23 577 1.5 c 128,-1,15
 523 -20 523 -20 447 -20 c 128,-1,16
 371 -20 371 -20 317 1.5 c 128,-1,17
 263 23 263 23 227.5 63 c 128,-1,18
 192 103 192 103 172 171 c 0,19,20
 136 293 136 293 136 519 c 2,21,-1
 136 1268 l 2,0,1
606 1280 m 2,22,23
 606 1490 606 1490 575.5 1574 c 128,-1,24
 545 1658 545 1658 451 1658 c 128,-1,25
 357 1658 357 1658 321 1571.5 c 128,-1,26
 285 1485 285 1485 285 1281 c 2,27,-1
 285 519 l 2,28,29
 285 276 285 276 310 208 c 128,-1,30
 335 140 335 140 365.5 121 c 128,-1,31
 396 102 396 102 446 102 c 128,-1,32
 496 102 496 102 526 121 c 128,-1,33
 556 140 556 140 574 190 c 0,34,35
 606 275 606 275 606 519 c 2,36,-1
 606 1280 l 2,22,23
EndSplineSet
EndChar

StartChar: P
Encoding: 80 80 51
Width: 847
Flags: W
LayerCount: 2
UndoRedoHistory
Layer: 1
Undoes
EndUndoes
Redoes
EndRedoes
EndUndoRedoHistory
Fore
SplineSet
166 1760 m 1,0,-1
 472 1760 l 2,1,2
 580 1760 580 1760 639 1722 c 0,3,4
 705 1679 705 1679 725.5 1629 c 128,-1,5
 746 1579 746 1579 755.5 1542.5 c 0,6,7
 766 1506 766 1506 770 1454 c 0,8,9
 778 1368 778 1368 777 1249 c 2,10,-1
 777 1231 l 2,11,12
 777 1002 777 1002 748 908 c 0,13,14
 720 814 720 814 684 773 c 0,15,16
 611 689 611 689 463 689 c 2,17,-1
 315 689 l 1,18,-1
 315 0 l 1,19,-1
 166 0 l 1,20,-1
 166 1760 l 1,0,-1
628 1263 m 2,21,22
 628 1270 628 1270 628 1276 c 0,23,24
 628 1470 628 1470 598.5 1553 c 128,-1,25
 569 1636 569 1636 480 1636 c 2,26,-1
 315 1636 l 1,27,-1
 315 815 l 1,28,-1
 473 815 l 2,29,30
 565 815 565 815 596.5 902.5 c 128,-1,31
 628 990 628 990 628 1229 c 2,32,-1
 628 1263 l 2,21,22
EndSplineSet
EndChar

StartChar: Q
Encoding: 81 81 52
Width: 891
Flags: W
LayerCount: 2
UndoRedoHistory
Layer: 1
Undoes
EndUndoes
Redoes
EndRedoes
EndUndoRedoHistory
Fore
SplineSet
606 1280 m 2,0,1
 606 1490 606 1490 575.5 1574 c 128,-1,2
 545 1658 545 1658 451 1658 c 128,-1,3
 357 1658 357 1658 321 1571.5 c 128,-1,4
 285 1485 285 1485 285 1281 c 2,5,-1
 285 519 l 2,6,7
 285 276 285 276 310 208 c 128,-1,8
 335 140 335 140 365.5 121 c 128,-1,9
 396 102 396 102 446 102 c 128,-1,10
 496 102 496 102 526 121 c 128,-1,11
 556 140 556 140 574 190 c 0,12,13
 606 275 606 275 606 519 c 2,14,-1
 606 1280 l 2,0,1
136 1268 m 2,15,16
 136 1588 136 1588 220 1690 c 0,17,18
 296 1782 296 1782 454 1782 c 0,19,20
 628 1782 628 1782 691 1674 c 0,21,22
 733 1601 733 1601 742 1522 c 0,23,24
 755 1407 755 1407 755 1268 c 2,25,-1
 755 519 l 2,26,27
 755 290 755 290 727.5 196.5 c 128,-1,28
 700 103 700 103 666 63 c 0,29,30
 619 8 619 8 539 -10 c 1,31,-1
 720 -337 l 1,32,-1
 622 -389 l 1,33,-1
 410 -19 l 1,34,35
 224 -5 224 -5 172 171 c 0,36,37
 136 293 136 293 136 519 c 2,38,-1
 136 1268 l 2,15,16
EndSplineSet
EndChar

StartChar: R
Encoding: 82 82 53
Width: 899
Flags: W
LayerCount: 2
UndoRedoHistory
Layer: 1
Undoes
EndUndoes
Redoes
EndRedoes
EndUndoRedoHistory
Fore
SplineSet
166 1760 m 1,0,-1
 465 1760 l 2,1,2
 646 1760 646 1760 707 1684 c 0,3,4
 753 1627 753 1627 763 1561 c 0,5,6
 778 1462 778 1462 778 1305 c 128,-1,7
 778 1148 778 1148 741.5 1048.5 c 128,-1,8
 705 949 705 949 616 925 c 1,9,10
 651 919 651 919 675 903.5 c 128,-1,11
 699 888 699 888 718 851 c 128,-1,12
 737 814 737 814 747.5 762 c 128,-1,13
 758 710 758 710 765 622 c 0,14,15
 777 471 777 471 777 284.5 c 128,-1,16
 777 98 777 98 780.5 69.5 c 128,-1,17
 784 41 784 41 799 0 c 1,18,-1
 651 0 l 1,19,20
 635 30 635 30 632 113.5 c 128,-1,21
 629 197 629 197 629 380 c 2,22,-1
 629 574 l 2,23,24
 629 758 629 758 606.5 808 c 128,-1,25
 584 858 584 858 473 858 c 1,26,-1
 315 868 l 1,27,-1
 315 0 l 1,28,-1
 166 0 l 1,29,-1
 166 1760 l 1,0,-1
629 1335 m 2,30,31
 629 1468 629 1468 616.5 1530 c 128,-1,32
 604 1592 604 1592 574.5 1614 c 128,-1,33
 545 1636 545 1636 481 1636 c 2,34,-1
 314 1636 l 1,35,-1
 314 968 l 1,36,-1
 470 968 l 2,37,38
 546 968 546 968 573.5 994 c 0,39,40
 600 1020 600 1020 610 1061 c 0,41,42
 628 1141 628 1141 629 1322 c 2,43,-1
 629 1335 l 2,30,31
EndSplineSet
EndChar

StartChar: S
Encoding: 83 83 54
Width: 794
Flags: W
LayerCount: 2
UndoRedoHistory
Layer: 1
Undoes
EndUndoes
Redoes
EndRedoes
EndUndoRedoHistory
Fore
SplineSet
97.5 1489.5 m 128,-1,1
 104 1550 104 1550 124 1608 c 128,-1,2
 144 1666 144 1666 178 1702 c 0,3,4
 252 1782 252 1782 402 1782 c 0,5,6
 548 1782 548 1782 606 1708 c 0,7,8
 638 1668 638 1668 656.5 1628.5 c 128,-1,9
 675 1589 675 1589 683 1515 c 0,10,11
 695 1404 695 1404 695 1242 c 2,12,-1
 695 1143 l 1,13,-1
 562 1143 l 1,14,-1
 562 1253 l 2,15,16
 562 1558 562 1558 499 1624 c 0,17,18
 466 1658 466 1658 404 1658 c 128,-1,19
 342 1658 342 1658 308 1636 c 0,20,21
 240 1590 240 1590 240 1371 c 0,22,23
 240 1232 240 1232 304 1154 c 0,24,25
 328 1124 328 1124 367.5 1086.5 c 128,-1,26
 407 1049 407 1049 414 1042 c 2,27,-1
 511 946 l 2,28,29
 617 841 617 841 670.5 721.5 c 128,-1,30
 724 602 724 602 724 436 c 0,31,32
 724 160 724 160 636 62 c 0,33,34
 561 -20 561 -20 411 -20 c 1,35,36
 240 -20 240 -20 173 100 c 0,37,38
 130 177 130 177 120 261 c 0,39,40
 105 377 105 377 105 523 c 2,41,-1
 105 705 l 1,42,-1
 251 705 l 1,43,-1
 251 526 l 2,44,45
 251 290 251 290 285 196 c 128,-1,46
 319 102 319 102 420 102 c 0,47,48
 495 102 495 102 524 138 c 0,49,50
 557 180 557 180 564 239 c 0,51,52
 572 316 572 316 572 451.5 c 128,-1,53
 572 587 572 587 538.5 671 c 128,-1,54
 505 755 505 755 419 834 c 2,55,-1
 315 930 l 2,56,57
 190 1046 190 1046 142 1138 c 0,58,59
 92 1237 92 1237 91.5 1333 c 128,-1,0
 91 1429 91 1429 97.5 1489.5 c 128,-1,1
EndSplineSet
EndChar

StartChar: T
Encoding: 84 84 55
Width: 542
Flags: W
LayerCount: 2
UndoRedoHistory
Layer: 1
Undoes
EndUndoes
Redoes
EndRedoes
EndUndoRedoHistory
Fore
SplineSet
23 1760 m 1,0,-1
 520 1760 l 1,1,-1
 520 1644 l 1,2,-1
 355 1644 l 1,3,-1
 355 0 l 1,4,-1
 207 0 l 1,5,-1
 207 1644 l 1,6,-1
 23 1644 l 1,7,-1
 23 1760 l 1,0,-1
EndSplineSet
EndChar

StartChar: U
Encoding: 85 85 56
Width: 915
Flags: W
LayerCount: 2
UndoRedoHistory
Layer: 1
Undoes
EndUndoes
Redoes
EndRedoes
EndUndoRedoHistory
Fore
SplineSet
618 1760 m 1,0,-1
 767 1760 l 1,1,-1
 767 452 l 2,2,3
 766 206 766 206 706 97 c 0,4,5
 640 -20 640 -20 459 -20 c 1,6,7
 277 -20 277 -20 210 97 c 0,8,9
 148 205 148 205 148 452 c 2,10,-1
 148 1760 l 1,11,-1
 297 1760 l 1,12,-1
 297 457 l 2,13,14
 297 274 297 274 307.5 235 c 128,-1,15
 318 196 318 196 330 170 c 128,-1,16
 342 144 342 144 359 132 c 0,17,18
 399 102 399 102 453 102 c 128,-1,19
 507 102 507 102 537.5 119 c 128,-1,20
 568 136 568 136 584 158 c 128,-1,21
 600 180 600 180 608 234 c 0,22,23
 618 302 618 302 618 456 c 2,24,-1
 618 1760 l 1,0,-1
EndSplineSet
EndChar

StartChar: V
Encoding: 86 86 57
Width: 846
Flags: W
LayerCount: 2
UndoRedoHistory
Layer: 1
Undoes
EndUndoes
Redoes
EndRedoes
EndUndoRedoHistory
Fore
SplineSet
656 1760 m 1,0,-1
 799 1760 l 1,1,-1
 515 0 l 1,2,-1
 360 0 l 1,3,-1
 47 1760 l 1,4,-1
 190 1760 l 1,5,-1
 436 318 l 1,6,-1
 437 318 l 1,7,-1
 656 1760 l 1,0,-1
EndSplineSet
EndChar

StartChar: W
Encoding: 87 87 58
Width: 1312
Flags: W
LayerCount: 2
UndoRedoHistory
Layer: 1
Undoes
EndUndoes
Redoes
EndRedoes
EndUndoRedoHistory
Fore
SplineSet
1114 1760 m 1,0,-1
 1255 1760 l 1,1,-1
 1042 0 l 1,2,-1
 895 0 l 1,3,-1
 677 1448 l 1,4,-1
 443 0 l 1,5,-1
 306 0 l 1,6,-1
 57 1760 l 1,7,-1
 203 1760 l 1,8,-1
 387 322 l 1,9,-1
 607 1760 l 1,10,-1
 731 1760 l 1,11,-1
 966 322 l 1,12,-1
 1114 1760 l 1,0,-1
EndSplineSet
EndChar

StartChar: X
Encoding: 88 88 59
Width: 710
Flags: W
LayerCount: 2
UndoRedoHistory
Layer: 1
Undoes
EndUndoes
Redoes
EndRedoes
EndUndoRedoHistory
Fore
SplineSet
437 853 m 1,0,-1
 656 0 l 1,1,-1
 523 0 l 1,2,-1
 347 680 l 1,3,-1
 176 0 l 1,4,-1
 52 0 l 1,5,-1
 285 919 l 1,6,-1
 67 1760 l 1,7,-1
 204 1760 l 1,8,-1
 373 1101 l 1,9,-1
 535 1760 l 1,10,-1
 659 1760 l 1,11,-1
 437 853 l 1,0,-1
EndSplineSet
EndChar

StartChar: Y
Encoding: 89 89 60
Width: 786
Flags: W
LayerCount: 2
UndoRedoHistory
Layer: 1
Undoes
EndUndoes
Redoes
EndRedoes
EndUndoRedoHistory
Fore
SplineSet
616 1760 m 1,0,-1
 770 1760 l 1,1,-1
 483 773 l 1,2,-1
 483 0 l 1,3,-1
 334 0 l 1,4,-1
 334 772 l 1,5,-1
 16 1760 l 1,6,-1
 166 1760 l 1,7,-1
 407 982 l 1,8,-1
 410 982 l 1,9,-1
 616 1760 l 1,0,-1
EndSplineSet
EndChar

StartChar: Z
Encoding: 90 90 61
Width: 638
Flags: W
LayerCount: 2
UndoRedoHistory
Layer: 1
Undoes
EndUndoes
Redoes
EndRedoes
EndUndoRedoHistory
Fore
SplineSet
94 1760 m 1,0,-1
 576 1760 l 1,1,-1
 576 1658 l 1,2,-1
 235 118 l 1,3,-1
 570 118 l 1,4,-1
 570 0 l 1,5,-1
 85 0 l 1,6,-1
 85 125 l 1,7,-1
 424 1644 l 1,8,-1
 94 1644 l 1,9,-1
 94 1760 l 1,0,-1
EndSplineSet
EndChar

StartChar: bracketleft
Encoding: 91 91 62
Width: 589
Flags: W
LayerCount: 2
UndoRedoHistory
Layer: 1
Undoes
EndUndoes
Redoes
EndRedoes
EndUndoRedoHistory
Fore
SplineSet
166 1761 m 1,0,-1
 529 1761 l 1,1,-1
 529 1646 l 1,2,-1
 315 1646 l 1,3,-1
 315 35 l 1,4,-1
 529 35 l 1,5,-1
 529 -80 l 1,6,-1
 166 -80 l 1,7,-1
 166 1761 l 1,0,-1
EndSplineSet
EndChar

StartChar: backslash
Encoding: 92 92 63
Width: 726
Flags: W
LayerCount: 2
UndoRedoHistory
Layer: 1
Undoes
EndUndoes
Redoes
EndRedoes
EndUndoRedoHistory
Fore
SplineSet
94 1761 m 1,0,-1
 222 1761 l 1,1,-1
 632 0 l 1,2,-1
 505 0 l 1,3,-1
 94 1761 l 1,0,-1
EndSplineSet
EndChar

StartChar: bracketright
Encoding: 93 93 64
Width: 589
Flags: W
LayerCount: 2
UndoRedoHistory
Layer: 1
Undoes
EndUndoes
Redoes
EndRedoes
EndUndoRedoHistory
Fore
SplineSet
423 1761 m 1,0,-1
 423 -80 l 1,1,-1
 60 -80 l 1,2,-1
 60 35 l 1,3,-1
 274 35 l 1,4,-1
 274 1646 l 1,5,-1
 60 1646 l 1,6,-1
 60 1761 l 1,7,-1
 423 1761 l 1,0,-1
EndSplineSet
EndChar

StartChar: asciicircum
Encoding: 94 94 65
Width: 972
Flags: W
LayerCount: 2
UndoRedoHistory
Layer: 1
Undoes
EndUndoes
Redoes
EndRedoes
EndUndoRedoHistory
Fore
SplineSet
383 1760 m 1,0,-1
 589 1760 l 1,1,-1
 830 837 l 1,2,-1
 681 837 l 1,3,-1
 487 1648 l 1,4,-1
 293 837 l 1,5,-1
 142 837 l 1,6,-1
 383 1760 l 1,0,-1
EndSplineSet
EndChar

StartChar: underscore
Encoding: 95 95 66
Width: 748
Flags: W
LayerCount: 2
UndoRedoHistory
Layer: 1
Undoes
EndUndoes
Redoes
EndRedoes
EndUndoRedoHistory
Fore
SplineSet
48 -64 m 1,0,-1
 699 -64 l 1,1,-1
 699 -185 l 1,2,-1
 48 -185 l 1,3,-1
 48 -64 l 1,0,-1
EndSplineSet
EndChar

StartChar: grave
Encoding: 96 96 67
Width: 650
Flags: W
LayerCount: 2
UndoRedoHistory
Layer: 1
Undoes
EndUndoes
Redoes
EndRedoes
EndUndoRedoHistory
Fore
SplineSet
335 213 m 1,0,-1
 429 -119 l 1,1,-1
 360 -119 l 1,2,-1
 175 213 l 1,3,-1
 335 213 l 1,0,-1
EndSplineSet
EndChar

StartChar: a
Encoding: 97 97 68
Width: 844
Flags: W
LayerCount: 2
UndoRedoHistory
Layer: 1
Undoes
EndUndoes
Redoes
EndRedoes
EndUndoRedoHistory
Fore
SplineSet
563 837 m 1,0,1
 398 762 398 762 372 742.5 c 128,-1,2
 346 723 346 723 326.5 703.5 c 128,-1,3
 307 684 307 684 300 668 c 0,4,5
 294 652 294 652 286 626 c 0,6,7
 276 590 276 590 275 509 c 2,8,-1
 275 390 l 2,9,10
 275 235 275 235 299 174 c 128,-1,11
 323 113 323 113 385 113 c 128,-1,12
 447 113 447 113 495 144 c 128,-1,13
 543 175 543 175 563 211 c 1,14,-1
 563 837 l 1,0,1
145 1051 m 2,15,16
 145 1214 145 1214 154 1261.5 c 128,-1,17
 163 1309 163 1309 173.5 1344.5 c 128,-1,18
 184 1380 184 1380 198.5 1403 c 128,-1,19
 213 1426 213 1426 234.5 1450 c 128,-1,20
 256 1474 256 1474 284 1487.5 c 128,-1,21
 312 1501 312 1501 349.5 1509.5 c 128,-1,22
 387 1518 387 1518 433 1518 c 128,-1,23
 479 1518 479 1518 516 1510 c 128,-1,24
 553 1502 553 1502 581 1492 c 128,-1,25
 609 1482 609 1482 629.5 1456.5 c 128,-1,26
 650 1431 650 1431 664 1412 c 128,-1,27
 678 1393 678 1393 687.5 1350 c 128,-1,28
 697 1307 697 1307 702 1280 c 128,-1,29
 707 1253 707 1253 709 1194 c 0,30,31
 712 1106 712 1106 712 1043 c 2,32,-1
 712 0 l 1,33,-1
 563 0 l 1,34,-1
 563 112 l 1,35,36
 550 72 550 72 498.5 30.5 c 128,-1,37
 447 -11 447 -11 366 -11 c 0,38,39
 248 -11 248 -11 187.5 88.5 c 128,-1,40
 127 188 127 188 127 377 c 2,41,-1
 127 569 l 2,42,43
 127 672 127 672 180 733 c 0,44,45
 226 786 226 786 262.5 809 c 128,-1,46
 299 832 299 832 319 844 c 128,-1,47
 339 856 339 856 382 876 c 0,48,49
 437 902 437 902 493 926 c 128,-1,50
 549 950 549 950 563 956 c 1,51,-1
 563 1124 l 2,52,53
 563 1269 563 1269 552 1295 c 128,-1,54
 541 1321 541 1321 534 1337 c 128,-1,55
 527 1353 527 1353 517.5 1360 c 0,56,57
 508 1366 508 1366 496 1374 c 0,58,59
 475 1386 475 1386 433 1387 c 0,60,61
 344 1387 344 1387 319.5 1316.5 c 128,-1,62
 295 1246 295 1246 295 1048 c 2,63,-1
 295 1011 l 1,64,-1
 145 1011 l 1,65,-1
 145 1051 l 2,15,16
EndSplineSet
EndChar

StartChar: b
Encoding: 98 98 69
Width: 874
Flags: W
LayerCount: 2
UndoRedoHistory
Layer: 1
Undoes
EndUndoes
Redoes
EndRedoes
EndUndoRedoHistory
Fore
SplineSet
160 1783 m 1,0,-1
 309 1783 l 1,1,-1
 309 1372 l 1,2,3
 320 1432 320 1432 372 1474 c 0,4,5
 426 1518 426 1518 488.5 1518 c 128,-1,6
 551 1518 551 1518 597.5 1494 c 128,-1,7
 644 1470 644 1470 672.5 1427 c 128,-1,8
 701 1384 701 1384 718 1315 c 0,9,10
 746 1201 746 1201 746 1012 c 2,11,-1
 746 490 l 2,12,13
 746 234 746 234 706 132 c 0,14,15
 668 36 668 36 600 6 c 0,16,17
 562 -10 562 -10 510 -11 c 0,18,19
 363 -11 363 -11 309 114 c 1,20,-1
 309 0 l 1,21,-1
 160 0 l 1,22,-1
 160 1783 l 1,0,-1
597 1061 m 2,23,24
 597 1237 597 1237 582 1280.5 c 128,-1,25
 567 1324 567 1324 553 1345 c 0,26,27
 526 1386 526 1386 480.5 1386 c 128,-1,28
 435 1386 435 1386 413.5 1380 c 128,-1,29
 392 1374 392 1374 370.5 1355 c 0,30,31
 348 1336 348 1336 336 1301 c 0,32,33
 308 1224 308 1224 309 1059 c 2,34,-1
 309 460 l 2,35,36
 310 271 310 271 340 193 c 128,-1,37
 370 115 370 115 454 115 c 0,38,39
 455 116 l 0,40,41
 540 116 540 116 568.5 194 c 128,-1,42
 597 272 597 272 597 466 c 2,43,-1
 597 1061 l 2,23,24
EndSplineSet
EndChar

StartChar: c
Encoding: 99 99 70
Width: 803
Flags: W
LayerCount: 2
UndoRedoHistory
Layer: 1
Undoes
EndUndoes
Redoes
EndRedoes
EndUndoRedoHistory
Fore
SplineSet
128 1028 m 2,0,1
 128 1278 128 1278 178 1376 c 0,2,3
 228 1474 228 1474 312 1502 c 0,4,5
 361 1518 361 1518 422 1518 c 128,-1,6
 483 1518 483 1518 526.5 1504.5 c 128,-1,7
 570 1491 570 1491 599 1472 c 128,-1,8
 628 1453 628 1453 647.5 1413 c 128,-1,9
 667 1373 667 1373 677.5 1341 c 128,-1,10
 688 1309 688 1309 693 1246 c 0,11,12
 700 1158 700 1158 700 1020 c 2,13,-1
 700 973 l 1,14,-1
 549 973 l 1,15,-1
 549 1065 l 2,16,17
 549 1239 549 1239 537 1291 c 0,18,19
 515 1381 515 1381 426 1381 c 0,20,21
 317 1381 317 1381 291 1255 c 0,22,23
 277 1187 277 1187 277 1057 c 2,24,-1
 277 455 l 2,25,26
 277 252 277 252 292.5 213.5 c 128,-1,27
 308 175 308 175 324 155 c 0,28,29
 352 119 352 119 419 119 c 0,30,31
 496 120 496 120 522 184 c 0,32,33
 546 246 546 246 547.5 321 c 128,-1,34
 549 396 549 396 549 449 c 2,35,-1
 549 562 l 1,36,-1
 700 562 l 1,37,-1
 700 517 l 2,38,39
 700 292 700 292 685 209 c 0,40,41
 659 58 659 58 560 10 c 0,42,43
 504 -18 504 -18 432 -18 c 128,-1,44
 360 -18 360 -18 316 -4 c 128,-1,45
 272 10 272 10 241.5 32 c 128,-1,46
 211 54 211 54 189.5 93.5 c 128,-1,47
 168 133 168 133 156 172 c 128,-1,48
 144 211 144 211 138 272 c 0,49,50
 128 361 128 361 128 511 c 2,51,-1
 128 1028 l 2,0,1
EndSplineSet
EndChar

StartChar: d
Encoding: 100 100 71
Width: 855
Flags: W
LayerCount: 2
UndoRedoHistory
Layer: 1
Undoes
EndUndoes
Redoes
EndRedoes
EndUndoRedoHistory
Fore
SplineSet
564 1783 m 1,0,-1
 714 1783 l 1,1,-1
 714 0 l 1,2,-1
 564 0 l 1,3,-1
 564 114 l 1,4,5
 512 -11 512 -11 365 -11 c 1,6,7
 198 -10 198 -10 153 188 c 0,8,9
 128 297 128 297 128 481 c 2,10,-1
 128 1008 l 2,11,12
 128 1310 128 1310 207 1423 c 0,13,14
 273 1518 273 1518 405 1518 c 0,15,16
 456 1518 456 1518 499.5 1481.5 c 128,-1,17
 543 1445 543 1445 564 1393 c 1,18,-1
 564 1783 l 1,0,-1
565 1037 m 2,19,20
 566 1230 566 1230 536 1308 c 0,21,22
 507 1385 507 1385 422 1385 c 0,23,24
 421 1384 l 0,25,26
 336 1384 336 1384 307 1305 c 128,-1,27
 278 1226 278 1226 278 1030 c 2,28,-1
 278 436 l 2,29,30
 278 230 278 230 311 171 c 0,31,32
 343 114 343 114 409 114 c 1,33,34
 471 114 471 114 498.5 137.5 c 128,-1,35
 526 161 526 161 538 195 c 0,36,37
 565 271 565 271 565 434 c 2,38,-1
 565 1037 l 2,19,20
EndSplineSet
EndChar

StartChar: e
Encoding: 101 101 72
Width: 802
Flags: W
LayerCount: 2
UndoRedoHistory
Layer: 1
Undoes
EndUndoes
Redoes
EndRedoes
EndUndoRedoHistory
Fore
SplineSet
128 1014 m 2,0,1
 128 1276 128 1276 176 1372 c 0,2,3
 226 1471 226 1471 310 1501 c 0,4,5
 360 1518 360 1518 425.5 1518 c 128,-1,6
 491 1518 491 1518 539 1502 c 128,-1,7
 587 1486 587 1486 616 1447 c 128,-1,8
 645 1408 645 1408 662.5 1371 c 128,-1,9
 680 1334 680 1334 688 1263 c 0,10,11
 698 1164 698 1164 698 1002 c 2,12,-1
 698 752 l 1,13,-1
 277 752 l 1,14,-1
 277 450 l 2,15,16
 276 218 276 218 312 164 c 0,17,18
 346 113 346 113 419 113 c 0,19,20
 482 113 482 113 508 153 c 0,21,22
 537 197 537 197 542 253 c 0,23,24
 549 330 549 330 549 444 c 2,25,-1
 549 556 l 1,26,-1
 694 556 l 1,27,-1
 694 507 l 2,28,29
 694 285 694 285 679 203 c 0,30,31
 653 53 653 53 554 7 c 0,32,33
 501 -18 501 -18 432 -18 c 128,-1,34
 363 -18 363 -18 318 -4 c 128,-1,35
 273 10 273 10 242.5 32 c 128,-1,36
 212 54 212 54 190.5 93.5 c 128,-1,37
 169 133 169 133 157 172 c 0,38,39
 145 212 145 212 138 272 c 0,40,41
 128 358 128 358 128 511 c 2,42,-1
 128 1014 l 2,0,1
549 877 m 1,43,-1
 549 1078 l 2,44,45
 549 1247 549 1247 536 1299 c 0,46,47
 514 1387 514 1387 426 1387 c 0,48,49
 360 1388 360 1388 329 1346 c 0,50,51
 296 1302 296 1302 289 1247 c 0,52,53
 277 1164 277 1164 277 1060 c 2,54,-1
 277 877 l 1,55,-1
 549 877 l 1,43,-1
EndSplineSet
EndChar

StartChar: f
Encoding: 102 102 73
Width: 608
Flags: W
LayerCount: 2
UndoRedoHistory
Layer: 1
Undoes
EndUndoes
Redoes
EndRedoes
EndUndoRedoHistory
Fore
SplineSet
219 1512 m 2,0,1
 219 1650 219 1650 268 1719.5 c 128,-1,2
 317 1789 317 1789 433 1789 c 0,3,4
 514 1789 514 1789 568 1771 c 1,5,-1
 568 1650 l 1,6,7
 523 1657 523 1657 467 1657 c 0,8,9
 411 1657 411 1657 390 1627.5 c 128,-1,10
 369 1598 369 1598 369 1534 c 2,11,-1
 369 1442 l 1,12,-1
 568 1442 l 1,13,-1
 568 1329 l 1,14,-1
 369 1329 l 1,15,-1
 369 0 l 1,16,-1
 219 0 l 1,17,-1
 219 1329 l 1,18,-1
 79 1329 l 1,19,-1
 79 1442 l 1,20,-1
 219 1442 l 1,21,-1
 219 1512 l 2,0,1
EndSplineSet
EndChar

StartChar: g
Encoding: 103 103 74
Width: 858
Flags: W
LayerCount: 2
UndoRedoHistory
Layer: 1
Undoes
EndUndoes
Redoes
EndRedoes
EndUndoRedoHistory
Fore
SplineSet
402 1518 m 0,0,1
 525 1518 525 1518 565 1412 c 1,2,-1
 565 1500 l 1,3,-1
 714 1500 l 1,4,-1
 714 97 l 2,5,6
 714 -126 714 -126 548 -204 c 0,7,8
 486 -233 486 -233 401 -233 c 1,9,-1
 265 -212 l 1,10,11
 186 -188 186 -188 134 -147 c 1,12,-1
 191 -32 l 1,13,14
 289 -105 289 -105 411 -105 c 0,15,16
 488 -105 488 -105 526.5 -54.5 c 128,-1,17
 565 -4 565 -4 565 80 c 2,18,-1
 565 245 l 1,19,20
 535 178 535 178 489.5 152.5 c 128,-1,21
 444 127 444 127 382 127 c 128,-1,22
 320 127 320 127 274.5 152.5 c 128,-1,23
 229 178 229 178 201.5 221.5 c 128,-1,24
 174 265 174 265 157 331 c 0,25,26
 128 444 128 444 128 632 c 2,27,-1
 128 1013 l 2,28,29
 128 1236 128 1236 191 1374 c 0,30,31
 256 1518 256 1518 402 1518 c 0,0,1
565 1050 m 2,32,33
 564 1276 564 1276 526 1336 c 0,34,35
 494 1388 494 1388 424 1387 c 1,36,37
 348 1388 348 1388 314 1328 c 0,38,39
 285 1279 285 1279 281 1199 c 128,-1,40
 277 1119 277 1119 277 1052 c 2,41,-1
 277 611 l 2,42,43
 277 418 277 418 310.5 336.5 c 128,-1,44
 344 255 344 255 436 255 c 0,45,46
 484 256 484 256 510 282 c 0,47,48
 565 338 565 338 565 614 c 2,49,-1
 565 1050 l 2,32,33
EndSplineSet
EndChar

StartChar: h
Encoding: 104 104 75
Width: 921
Flags: W
LayerCount: 2
UndoRedoHistory
Layer: 1
Undoes
EndUndoes
Redoes
EndRedoes
EndUndoRedoHistory
Fore
SplineSet
160 1783 m 1,0,-1
 309 1783 l 1,1,-1
 309 1353 l 1,2,3
 329 1420 329 1420 398.5 1469.5 c 128,-1,4
 468 1519 468 1519 561 1519 c 128,-1,5
 654 1519 654 1519 713.5 1442 c 128,-1,6
 773 1365 773 1365 773 1211 c 2,7,-1
 773 0 l 1,8,-1
 623 0 l 1,9,-1
 623 1201 l 2,10,11
 623 1303 623 1303 587.5 1342 c 128,-1,12
 552 1381 552 1381 501.5 1381 c 128,-1,13
 451 1381 451 1381 422 1372 c 0,14,15
 392 1362 392 1362 366 1342 c 0,16,17
 308 1298 308 1298 309 1191 c 2,18,-1
 309 0 l 1,19,-1
 160 0 l 1,20,-1
 160 1783 l 1,0,-1
EndSplineSet
EndChar

StartChar: i
Encoding: 105 105 76
Width: 460
Flags: W
LayerCount: 2
UndoRedoHistory
Layer: 1
Undoes
EndUndoes
Redoes
EndRedoes
EndUndoRedoHistory
Fore
SplineSet
159 1782 m 1,0,-1
 308 1782 l 1,1,-1
 308 1638 l 1,2,-1
 159 1638 l 1,3,-1
 159 1782 l 1,0,-1
159 1500 m 1,4,-1
 309 1500 l 1,5,-1
 309 0 l 1,6,-1
 159 0 l 1,7,-1
 159 1500 l 1,4,-1
EndSplineSet
EndChar

StartChar: j
Encoding: 106 106 77
Width: 479
Flags: W
LayerCount: 2
UndoRedoHistory
Layer: 1
Undoes
EndUndoes
Redoes
EndRedoes
EndUndoRedoHistory
Fore
SplineSet
274 -185 m 0,0,1
 252 -203 252 -203 229 -213.5 c 128,-1,2
 206 -224 206 -224 154 -224 c 128,-1,3
 102 -224 102 -224 72 -218 c 1,4,-1
 68 -218 l 1,5,-1
 68 -110 l 1,6,7
 88 -114 88 -114 107 -114 c 0,8,9
 124 -114 124 -114 140 -111 c 0,10,11
 176 -105 176 -105 176 -44 c 2,12,-1
 176 1500 l 1,13,-1
 325 1500 l 1,14,-1
 325 -34 l 2,15,16
 324 -145 324 -145 274 -185 c 0,0,1
177 1782 m 1,17,-1
 326 1782 l 1,18,-1
 326 1638 l 1,19,-1
 177 1638 l 1,20,-1
 177 1782 l 1,17,-1
EndSplineSet
EndChar

StartChar: k
Encoding: 107 107 78
Width: 835
Flags: W
LayerCount: 2
UndoRedoHistory
Layer: 1
Undoes
EndUndoes
Redoes
EndRedoes
EndUndoRedoHistory
Fore
SplineSet
160 1783 m 1,0,-1
 309 1783 l 1,1,-1
 309 760 l 1,2,-1
 640 1500 l 1,3,-1
 789 1500 l 1,4,-1
 448 756 l 1,5,-1
 807 0 l 1,6,-1
 651 0 l 1,7,-1
 309 742 l 1,8,-1
 309 0 l 1,9,-1
 160 0 l 1,10,-1
 160 1783 l 1,0,-1
EndSplineSet
EndChar

StartChar: l
Encoding: 108 108 79
Width: 465
Flags: W
LayerCount: 2
UndoRedoHistory
Layer: 1
Undoes
EndUndoes
Redoes
EndRedoes
EndUndoRedoHistory
Fore
SplineSet
162 1783 m 1,0,-1
 312 1783 l 1,1,-1
 312 0 l 1,2,-1
 162 0 l 1,3,-1
 162 1783 l 1,0,-1
EndSplineSet
EndChar

StartChar: m
Encoding: 109 109 80
Width: 1360
Flags: W
LayerCount: 2
UndoRedoHistory
Layer: 1
Undoes
EndUndoes
Redoes
EndRedoes
EndUndoRedoHistory
Fore
SplineSet
1062 1226 m 2,0,1
 1062 1381 1062 1381 925 1381 c 0,2,3
 810 1381 810 1381 778 1314 c 0,4,5
 764 1284 764 1284 760 1239 c 1,6,-1
 760 0 l 1,7,-1
 611 0 l 1,8,-1
 611 1226 l 2,9,10
 611 1312 611 1312 575.5 1346.5 c 128,-1,11
 540 1381 540 1381 467.5 1381 c 128,-1,12
 395 1381 395 1381 352 1337.5 c 128,-1,13
 309 1294 309 1294 309 1209 c 2,14,-1
 309 0 l 1,15,-1
 160 0 l 1,16,-1
 160 1500 l 1,17,-1
 309 1500 l 1,18,-1
 309 1351 l 1,19,20
 329 1419 329 1419 392.5 1469 c 128,-1,21
 456 1519 456 1519 538 1519 c 0,22,23
 688 1519 688 1519 739 1367 c 1,24,25
 776 1435 776 1435 844 1477 c 128,-1,26
 912 1519 912 1519 1002 1519 c 128,-1,27
 1092 1519 1092 1519 1152 1444 c 128,-1,28
 1212 1369 1212 1369 1212 1217 c 2,29,-1
 1212 0 l 1,30,-1
 1062 0 l 1,31,-1
 1062 1226 l 2,0,1
EndSplineSet
EndChar

StartChar: n
Encoding: 110 110 81
Width: 920
Flags: W
LayerCount: 2
UndoRedoHistory
Layer: 1
Undoes
EndUndoes
Redoes
EndRedoes
EndUndoRedoHistory
Fore
SplineSet
309 1353 m 1,0,1
 329 1420 329 1420 397.5 1469.5 c 128,-1,2
 466 1519 466 1519 559 1519 c 0,3,4
 652 1519 652 1519 712 1442 c 128,-1,5
 772 1365 772 1365 772 1211 c 2,6,-1
 772 0 l 1,7,-1
 623 0 l 1,8,-1
 623 1223 l 2,9,10
 623 1310 623 1310 583.5 1348.5 c 128,-1,11
 544 1387 544 1387 478 1387 c 0,12,13
 309 1387 309 1387 309 1220 c 2,14,-1
 309 0 l 1,15,-1
 160 0 l 1,16,-1
 160 1500 l 1,17,-1
 309 1500 l 1,18,-1
 309 1353 l 1,0,1
EndSplineSet
EndChar

StartChar: o
Encoding: 111 111 82
Width: 845
Flags: W
LayerCount: 2
UndoRedoHistory
Layer: 1
Undoes
EndUndoes
Redoes
EndRedoes
EndUndoRedoHistory
Fore
SplineSet
128 1018 m 2,0,1
 128 1278 128 1278 176 1375 c 0,2,3
 224 1474 224 1474 310 1502 c 0,4,5
 360 1518 360 1518 421.5 1518 c 128,-1,6
 483 1518 483 1518 527 1504.5 c 128,-1,7
 571 1491 571 1491 601.5 1469 c 128,-1,8
 632 1447 632 1447 653.5 1409.5 c 128,-1,9
 675 1372 675 1372 687.5 1334 c 128,-1,10
 700 1296 700 1296 706 1240 c 0,11,12
 716 1150 716 1150 717 1018 c 2,13,-1
 717 515 l 2,14,15
 717 338 717 338 709.5 285.5 c 128,-1,16
 702 233 702 233 695 195.5 c 128,-1,17
 688 158 688 158 676.5 133.5 c 128,-1,18
 665 109 665 109 649 82 c 128,-1,19
 633 55 633 55 611.5 38.5 c 128,-1,20
 590 22 590 22 563 8 c 0,21,22
 513 -18 513 -18 444 -18 c 128,-1,23
 375 -18 375 -18 334 -8.5 c 128,-1,24
 293 1 293 1 262.5 22 c 128,-1,25
 232 43 232 43 210 68 c 128,-1,26
 188 93 188 93 173 132.5 c 128,-1,27
 158 172 158 172 149 209.5 c 128,-1,28
 140 247 140 247 136 301 c 0,29,30
 128 391 128 391 128 515 c 2,31,-1
 128 1018 l 2,0,1
568 1053 m 2,32,33
 568 1311 568 1311 500 1364 c 0,34,35
 470 1387 470 1387 428 1387 c 128,-1,36
 386 1387 386 1387 358.5 1370.5 c 128,-1,37
 331 1354 331 1354 315 1327.5 c 0,38,39
 298 1301 298 1301 290 1255 c 0,40,41
 276 1182 276 1182 277 1053 c 2,42,-1
 277 463 l 2,43,44
 277 242 277 242 316 174 c 0,45,46
 352 112 352 112 426 113 c 1,47,48
 516 112 516 112 544 210 c 0,49,50
 568 295 568 295 568 463 c 2,51,-1
 568 1053 l 2,32,33
EndSplineSet
EndChar

StartChar: p
Encoding: 112 112 83
Width: 876
Flags: W
LayerCount: 2
UndoRedoHistory
Layer: 1
Undoes
EndUndoes
Redoes
EndRedoes
EndUndoRedoHistory
Fore
SplineSet
312 1385 m 1,0,1
 365 1511 365 1511 511 1511 c 0,2,3
 614 1510 614 1510 664 1444 c 0,4,5
 716 1375 716 1375 728 1292 c 0,6,7
 748 1162 748 1162 748 1013 c 2,8,-1
 748 475 l 2,9,10
 748 186 748 186 666 74 c 0,11,12
 600 -18 600 -18 472 -18 c 1,13,14
 421 -18 421 -18 376.5 18.5 c 128,-1,15
 332 55 332 55 312 108 c 1,16,-1
 312 -265 l 1,17,-1
 163 -265 l 1,18,-1
 163 1500 l 1,19,-1
 312 1500 l 1,20,-1
 312 1385 l 1,0,1
599 1061 m 2,21,22
 599 1237 599 1237 584.5 1280.5 c 128,-1,23
 570 1324 570 1324 556 1346 c 0,24,25
 530 1386 530 1386 484 1386 c 128,-1,26
 438 1386 438 1386 416 1380 c 128,-1,27
 394 1374 394 1374 373 1355 c 128,-1,28
 352 1336 352 1336 340 1300 c 0,29,30
 312 1222 312 1222 312 1059 c 2,31,-1
 312 463 l 2,32,33
 312 272 312 272 342 194 c 0,34,35
 372 116 372 116 457 115 c 0,36,37
 458 116 l 0,38,39
 543 116 543 116 571 193.5 c 128,-1,40
 599 271 599 271 599 468 c 2,41,-1
 599 1061 l 2,21,22
EndSplineSet
EndChar

StartChar: q
Encoding: 113 113 84
Width: 853
Flags: W
LayerCount: 2
UndoRedoHistory
Layer: 1
Undoes
EndUndoes
Redoes
EndRedoes
EndUndoRedoHistory
Fore
SplineSet
128 1013 m 2,0,1
 128 1268 128 1268 168 1370 c 0,2,3
 206 1466 206 1466 274 1494 c 0,4,5
 312 1510 312 1510 364 1511 c 0,6,7
 511 1511 511 1511 565 1381 c 1,8,-1
 565 1500 l 1,9,-1
 715 1500 l 1,10,-1
 715 -265 l 1,11,-1
 565 -265 l 1,12,-1
 565 106 l 1,13,14
 543 53 543 53 499 17.5 c 128,-1,15
 455 -18 455 -18 388.5 -18 c 128,-1,16
 322 -18 322 -18 266 19 c 128,-1,17
 210 56 210 56 181 127 c 0,18,19
 128 257 128 257 128 479 c 2,20,-1
 128 1013 l 2,0,1
564 1037 m 2,21,22
 564 1269 564 1269 521 1332 c 0,23,24
 485 1385 485 1385 410 1385 c 0,25,26
 409 1384 409 1384 408 1384 c 0,27,28
 332 1384 332 1384 304 1306 c 128,-1,29
 276 1228 276 1228 276 1031 c 2,30,-1
 276 437 l 2,31,32
 276 229 276 229 309 170 c 0,33,34
 340 114 340 114 406 114 c 1,35,36
 469 114 469 114 496.5 139 c 128,-1,37
 524 164 524 164 536 199 c 0,38,39
 564 276 564 276 564 441 c 2,40,-1
 564 1037 l 2,21,22
EndSplineSet
EndChar

StartChar: r
Encoding: 114 114 85
Width: 605
Flags: W
LayerCount: 2
UndoRedoHistory
Layer: 1
Undoes
EndUndoes
Redoes
EndRedoes
EndUndoRedoHistory
Fore
SplineSet
564 1518 m 0,0,1
 568 1518 568 1518 568 1422 c 1,2,-1
 567 1391 l 1,3,4
 488 1391 488 1391 427.5 1359.5 c 128,-1,5
 367 1328 367 1328 309 1246 c 1,6,-1
 309 0 l 1,7,-1
 160 0 l 1,8,-1
 160 1500 l 1,9,-1
 309 1500 l 1,10,-1
 309 1333 l 1,11,12
 335 1421 335 1421 400.5 1469.5 c 128,-1,13
 466 1518 466 1518 564 1518 c 0,0,1
EndSplineSet
EndChar

StartChar: s
Encoding: 115 115 86
Width: 744
Flags: W
LayerCount: 2
UndoRedoHistory
Layer: 1
Undoes
EndUndoes
Redoes
EndRedoes
EndUndoRedoHistory
Fore
SplineSet
375 1518 m 0,0,1
 582 1518 582 1518 634 1274 c 0,2,3
 654 1182 654 1182 653 1051 c 2,4,-1
 653 957 l 1,5,-1
 513 957 l 1,6,-1
 513 1078 l 2,7,8
 513 1235 513 1235 480.5 1308 c 128,-1,9
 448 1381 448 1381 378 1381 c 0,10,11
 243 1381 243 1381 243 1150 c 0,12,13
 243 1073 243 1073 271 1011.5 c 128,-1,14
 299 950 299 950 386 864 c 2,15,-1
 491 761 l 1,16,17
 683 575 683 575 683 325 c 0,18,19
 683 165 683 165 614 72.5 c 128,-1,20
 545 -20 545 -20 397 -20 c 128,-1,21
 249 -20 249 -20 175.5 82 c 128,-1,22
 102 184 102 184 102 407 c 2,23,-1
 102 536 l 1,24,-1
 251 536 l 1,25,-1
 251 433 l 2,26,27
 251 116 251 116 393 116 c 0,28,29
 467 116 467 116 498 164 c 128,-1,30
 529 212 529 212 529 324.5 c 128,-1,31
 529 437 529 437 504 510.5 c 128,-1,32
 479 584 479 584 388 670 c 2,33,-1
 277 775 l 2,34,35
 93 948 93 948 93 1186 c 0,36,37
 93 1349 93 1349 169 1433.5 c 128,-1,38
 245 1518 245 1518 375 1518 c 0,0,1
EndSplineSet
EndChar

StartChar: t
Encoding: 116 116 87
Width: 585
Flags: W
LayerCount: 2
UndoRedoHistory
Layer: 1
Undoes
EndUndoes
Redoes
EndRedoes
EndUndoRedoHistory
Fore
SplineSet
201 1760 m 1,0,-1
 351 1760 l 1,1,-1
 351 1500 l 1,2,-1
 528 1500 l 1,3,-1
 528 1384 l 1,4,-1
 351 1384 l 1,5,-1
 351 209 l 2,6,7
 351 164 351 164 362 147.5 c 0,8,9
 373 130 373 130 394 126 c 0,10,11
 434 117 434 117 527 118 c 1,12,-1
 527 -9 l 1,13,-1
 423 -9 l 2,14,15
 281 -9 281 -9 240 41 c 0,16,17
 216 70 216 70 208.5 109.5 c 128,-1,18
 201 149 201 149 201 217 c 2,19,-1
 201 1384 l 1,20,-1
 51 1384 l 1,21,-1
 51 1500 l 1,22,-1
 201 1500 l 1,23,-1
 201 1760 l 1,0,-1
EndSplineSet
EndChar

StartChar: u
Encoding: 117 117 88
Width: 914
Flags: W
LayerCount: 2
UndoRedoHistory
Layer: 1
Undoes
EndUndoes
Redoes
EndRedoes
EndUndoRedoHistory
Fore
SplineSet
610 1500 m 1,0,-1
 761 1500 l 1,1,-1
 761 0 l 1,2,-1
 612 0 l 1,3,-1
 612 150 l 1,4,5
 593 82 593 82 530.5 31 c 128,-1,6
 468 -20 468 -20 385 -20 c 0,7,8
 304 -20 304 -20 232 42 c 0,9,10
 148 114 148 114 148 285 c 2,11,-1
 148 1500 l 1,12,-1
 297 1500 l 1,13,-1
 297 292 l 2,14,15
 297 206 297 206 336 162.5 c 128,-1,16
 375 119 375 119 448.5 119 c 128,-1,17
 522 119 522 119 567 168.5 c 128,-1,18
 612 218 612 218 612 303 c 2,19,-1
 610 1500 l 1,0,-1
EndSplineSet
EndChar

StartChar: v
Encoding: 118 118 89
Width: 718
Flags: W
LayerCount: 2
UndoRedoHistory
Layer: 1
Undoes
EndUndoes
Redoes
EndRedoes
EndUndoRedoHistory
Fore
SplineSet
524 1500 m 1,0,-1
 660 1500 l 1,1,-1
 436 0 l 1,2,-1
 287 0 l 1,3,-1
 58 1500 l 1,4,-1
 194 1500 l 1,5,-1
 312 690 l 1,6,-1
 363 241 l 1,7,-1
 369 241 l 1,8,-1
 414 691 l 1,9,-1
 524 1500 l 1,0,-1
EndSplineSet
EndChar

StartChar: w
Encoding: 119 119 90
Width: 1080
Flags: W
LayerCount: 2
UndoRedoHistory
Layer: 1
Undoes
EndUndoes
Redoes
EndRedoes
EndUndoRedoHistory
Fore
SplineSet
888 1500 m 1,0,-1
 1020 1500 l 1,1,-1
 846 0 l 1,2,-1
 698 0 l 1,3,-1
 551 1283 l 1,4,-1
 378 0 l 1,5,-1
 236 0 l 1,6,-1
 60 1500 l 1,7,-1
 197 1500 l 1,8,-1
 287 613 l 1,9,-1
 311 302 l 1,10,-1
 323 302 l 1,11,-1
 353 614 l 1,12,-1
 479 1500 l 1,13,-1
 606 1500 l 1,14,-1
 743 646 l 1,15,-1
 783 302 l 1,16,-1
 793 302 l 1,17,-1
 813 648 l 1,18,-1
 888 1500 l 1,0,-1
EndSplineSet
EndChar

StartChar: x
Encoding: 120 120 91
Width: 668
Flags: W
LayerCount: 2
UndoRedoHistory
Layer: 1
Undoes
EndUndoes
Redoes
EndRedoes
EndUndoRedoHistory
Fore
SplineSet
400 779 m 1,0,-1
 636 0 l 1,1,-1
 497 0 l 1,2,-1
 326 574 l 1,3,-1
 165 0 l 1,4,-1
 33 0 l 1,5,-1
 270 762 l 1,6,-1
 51 1500 l 1,7,-1
 181 1500 l 1,8,-1
 341 973 l 1,9,-1
 490 1500 l 1,10,-1
 632 1500 l 1,11,-1
 400 779 l 1,0,-1
EndSplineSet
EndChar

StartChar: y
Encoding: 121 121 92
Width: 745
Flags: W
LayerCount: 2
UndoRedoHistory
Layer: 1
Undoes
EndUndoes
Redoes
EndRedoes
EndUndoRedoHistory
Fore
SplineSet
544 1500 m 1,0,-1
 693 1500 l 1,1,-1
 454 3 l 1,2,3
 431 -151 431 -151 403 -186 c 0,4,5
 371 -225 371 -225 333.5 -231.5 c 128,-1,6
 296 -238 296 -238 257 -238 c 2,7,-1
 133 -238 l 1,8,-1
 133 -110 l 1,9,-1
 188 -110 l 2,10,11
 294 -110 294 -110 311 -99 c 1,12,13
 325 -85 325 -85 325 -51 c 0,14,15
 325 -33 325 -33 321 -9 c 0,16,17
 319 3 319 3 314 38 c 2,18,-1
 64 1500 l 1,19,-1
 214 1500 l 1,20,-1
 333 707 l 1,21,-1
 381 299 l 1,22,-1
 394 299 l 1,23,-1
 437 707 l 1,24,-1
 544 1500 l 1,0,-1
EndSplineSet
EndChar

StartChar: z
Encoding: 122 122 93
Width: 621
Flags: W
LayerCount: 2
UndoRedoHistory
Layer: 1
Undoes
EndUndoes
Redoes
EndRedoes
EndUndoRedoHistory
Fore
SplineSet
105 1500 m 1,0,-1
 568 1500 l 1,1,-1
 568 1407 l 1,2,-1
 234 130 l 1,3,-1
 548 130 l 1,4,-1
 548 0 l 1,5,-1
 80 0 l 1,6,-1
 80 108 l 1,7,-1
 409 1371 l 1,8,-1
 105 1371 l 1,9,-1
 105 1500 l 1,0,-1
EndSplineSet
EndChar

StartChar: braceleft
Encoding: 123 123 94
Width: 628
Flags: W
LayerCount: 2
UndoRedoHistory
Layer: 1
Undoes
EndUndoes
Redoes
EndRedoes
EndUndoRedoHistory
Fore
SplineSet
450 -81 m 2,0,1
 316 -81 316 -81 269 -10 c 128,-1,2
 222 61 222 61 222 258 c 2,3,-1
 222 553 l 2,4,5
 222 714 222 714 202.5 753 c 128,-1,6
 183 792 183 792 157.5 801 c 128,-1,7
 132 810 132 810 84 810 c 1,8,-1
 84 891 l 1,9,10
 132 891 132 891 157.5 900 c 0,11,12
 182 909 182 909 198 940 c 0,13,14
 222 987 222 987 222 1148 c 2,15,-1
 222 1443 l 2,16,17
 222 1640 222 1640 269 1711 c 128,-1,18
 316 1782 316 1782 450 1782 c 2,19,-1
 510 1782 l 1,20,-1
 510 1658 l 1,21,22
 418 1658 418 1658 394 1617 c 128,-1,23
 370 1576 370 1576 370 1430 c 2,24,-1
 370 1164 l 2,25,26
 370 1017 370 1017 346.5 951 c 128,-1,27
 323 885 323 885 251 850 c 1,28,29
 323 816 323 816 346.5 750 c 128,-1,30
 370 684 370 684 370 537 c 2,31,-1
 370 271 l 2,32,33
 370 125 370 125 394 84 c 128,-1,34
 418 43 418 43 510 43 c 1,35,-1
 510 -81 l 1,36,-1
 450 -81 l 2,0,1
EndSplineSet
EndChar

StartChar: bar
Encoding: 124 124 95
Width: 481
Flags: W
LayerCount: 2
UndoRedoHistory
Layer: 1
Undoes
EndUndoes
Redoes
EndRedoes
EndUndoRedoHistory
Fore
SplineSet
166 1782 m 1,0,-1
 315 1782 l 1,1,-1
 315 -134 l 1,2,-1
 166 -134 l 1,3,-1
 166 1782 l 1,0,-1
EndSplineSet
EndChar

StartChar: braceright
Encoding: 125 125 96
Width: 628
Flags: W
LayerCount: 2
UndoRedoHistory
Layer: 1
Undoes
EndUndoes
Redoes
EndRedoes
EndUndoRedoHistory
Fore
SplineSet
178 -81 m 2,0,-1
 118 -81 l 1,1,-1
 118 43 l 1,2,3
 210 43 210 43 234 84 c 128,-1,4
 258 125 258 125 258 271 c 2,5,-1
 258 537 l 2,6,7
 258 684 258 684 281.5 750 c 128,-1,8
 305 816 305 816 377 850 c 1,9,10
 305 885 305 885 281.5 951 c 128,-1,11
 258 1017 258 1017 258 1164 c 2,12,-1
 258 1430 l 2,13,14
 258 1576 258 1576 234 1617 c 128,-1,15
 210 1658 210 1658 118 1658 c 1,16,-1
 118 1782 l 1,17,-1
 178 1782 l 2,18,19
 312 1782 312 1782 359 1711 c 128,-1,20
 406 1640 406 1640 406 1443 c 2,21,-1
 406 1148 l 2,22,23
 406 987 406 987 425.5 948 c 128,-1,24
 445 909 445 909 470.5 900 c 128,-1,25
 496 891 496 891 544 891 c 1,26,-1
 544 810 l 1,27,28
 496 810 496 810 470.5 801 c 0,29,30
 446 792 446 792 430 761 c 0,31,32
 406 714 406 714 406 553 c 2,33,-1
 406 258 l 2,34,35
 406 61 406 61 359 -10 c 128,-1,36
 312 -81 312 -81 178 -81 c 2,0,-1
EndSplineSet
EndChar

StartChar: asciitilde
Encoding: 126 126 97
Width: 1049
Flags: W
LayerCount: 2
UndoRedoHistory
Layer: 1
Undoes
EndUndoes
Redoes
EndRedoes
EndUndoRedoHistory
Fore
SplineSet
111 875 m 1,0,1
 152 1101 152 1101 295 1101 c 0,2,3
 352 1101 352 1101 532.5 1043.5 c 128,-1,4
 713 986 713 986 744 986 c 128,-1,5
 775 986 775 986 791 1018 c 128,-1,6
 807 1050 807 1050 815 1140 c 1,7,-1
 938 1123 l 1,8,9
 915 853 915 853 762 853 c 1,10,11
 696 852 696 852 518 910 c 0,12,13
 333 970 333 970 305.5 970 c 128,-1,14
 278 970 278 970 260.5 939 c 128,-1,15
 243 908 243 908 229 840 c 1,16,-1
 111 875 l 1,0,1
EndSplineSet
EndChar

StartChar: cent
Encoding: 162 162 100
Width: 803
Flags: W
LayerCount: 2
UndoRedoHistory
Layer: 1
Undoes
EndUndoes
Redoes
EndRedoes
EndUndoRedoHistory
Fore
SplineSet
128 1028 m 2,0,1
 128 1278 128 1278 178 1376 c 0,2,3
 242 1501 242 1501 380 1516 c 1,4,-1
 380 1760 l 1,5,-1
 473 1760 l 1,6,-1
 473 1515 l 1,7,8
 606 1500 606 1500 648 1413 c 0,9,10
 668 1373 668 1373 678 1341 c 128,-1,11
 688 1309 688 1309 693 1246 c 0,12,13
 700 1158 700 1158 700 1020 c 2,14,-1
 700 973 l 1,15,-1
 549 973 l 1,16,-1
 549 1065 l 2,17,18
 549 1239 549 1239 537 1291 c 0,19,20
 515 1381 515 1381 426 1381 c 0,21,22
 317 1381 317 1381 291 1255 c 0,23,24
 277 1187 277 1187 277 1057 c 2,25,-1
 277 455 l 2,26,27
 277 252 277 252 292.5 213.5 c 128,-1,28
 308 175 308 175 324 155 c 0,29,30
 352 119 352 119 419 119 c 0,31,32
 496 120 496 120 522 184 c 0,33,34
 546 246 546 246 547.5 321 c 128,-1,35
 549 396 549 396 549 449 c 2,36,-1
 549 562 l 1,37,-1
 700 562 l 1,38,-1
 700 517 l 2,39,40
 700 292 700 292 685 209 c 0,41,42
 659 58 659 58 560 10 c 0,43,44
 523 -8 523 -8 473 -15 c 1,45,-1
 473 -249 l 1,46,-1
 380 -249 l 1,47,-1
 380 -16 l 1,48,49
 244 -4 244 -4 190 94 c 0,50,51
 149 169 149 169 140 251 c 0,52,53
 128 361 128 361 128 511 c 2,54,-1
 128 1028 l 2,0,1
EndSplineSet
EndChar

StartChar: sterling
Encoding: 163 163 101
Width: 830
Flags: W
LayerCount: 2
UndoRedoHistory
Layer: 1
Undoes
EndUndoes
Redoes
EndRedoes
EndUndoRedoHistory
Fore
SplineSet
756 1392 m 2,0,-1
 756 1246 l 1,1,-1
 627 1246 l 1,2,-1
 627 1404 l 2,3,4
 627 1565 627 1565 589 1614 c 0,5,6
 555 1658 555 1658 479.5 1658 c 129,-1,7
 404 1658 404 1658 365 1606 c 128,-1,8
 326 1554 326 1554 326 1434.5 c 128,-1,9
 326 1315 326 1315 361 1120 c 1,10,-1
 398 920 l 1,11,-1
 700 920 l 1,12,-1
 700 817 l 1,13,-1
 418 817 l 1,14,-1
 448 643 l 1,15,16
 473 490 473 490 473 407 c 128,-1,17
 473 324 473 324 463 281 c 0,18,19
 437 169 437 169 329 110 c 1,20,-1
 778 110 l 1,21,-1
 778 0 l 1,22,-1
 118 0 l 1,23,-1
 118 86 l 1,24,25
 232 157 232 157 267.5 207.5 c 0,26,27
 304 258 304 258 316 296 c 0,28,29
 332 344 332 344 331 402 c 0,30,31
 331 499 331 499 305 647 c 2,32,-1
 275 817 l 1,33,-1
 88 817 l 1,34,-1
 88 920 l 1,35,-1
 256 920 l 1,36,-1
 220 1097 l 2,37,38
 182 1285 182 1285 182 1386 c 0,39,40
 182 1583 182 1583 252 1682.5 c 128,-1,41
 322 1782 322 1782 475 1782 c 0,42,43
 577 1782 577 1782 627 1748 c 0,44,45
 678 1714 678 1714 702 1672 c 0,46,47
 756 1578 756 1578 756 1392 c 2,0,-1
EndSplineSet
EndChar

StartChar: currency
Encoding: 164 164 102
Width: 1159
Flags: W
LayerCount: 2
UndoRedoHistory
Layer: 1
Undoes
EndUndoes
Redoes
EndRedoes
EndUndoRedoHistory
Fore
SplineSet
797 1634 m 1,0,-1
 884 1721 l 1,1,-1
 1034 1572 l 1,2,-1
 944 1482 l 1,3,4
 998 1385 998 1385 998 1266.5 c 128,-1,5
 998 1148 998 1148 944 1051 c 1,6,-1
 1034 961 l 1,7,-1
 884 812 l 1,8,-1
 795 900 l 1,9,10
 703 848 703 848 579 848 c 128,-1,11
 455 848 455 848 363 901 c 1,12,-1
 274 812 l 1,13,-1
 125 962 l 1,14,-1
 216 1053 l 1,15,16
 163 1151 163 1151 163 1267.5 c 128,-1,17
 163 1384 163 1384 215 1481 c 1,18,-1
 125 1571 l 1,19,-1
 274 1721 l 1,20,-1
 361 1633 l 1,21,22
 458 1688 458 1688 579 1688 c 128,-1,23
 700 1688 700 1688 797 1634 c 1,0,-1
794 1042.5 m 128,-1,25
 876 1134 876 1134 876 1270 c 128,-1,26
 876 1406 876 1406 795 1494 c 128,-1,27
 714 1582 714 1582 580.5 1582 c 128,-1,28
 447 1582 447 1582 365 1491.5 c 128,-1,29
 283 1401 283 1401 283 1266.5 c 128,-1,30
 283 1132 283 1132 364.5 1041.5 c 128,-1,31
 446 951 446 951 579 951 c 128,-1,24
 712 951 712 951 794 1042.5 c 128,-1,25
EndSplineSet
EndChar

StartChar: yen
Encoding: 165 165 103
Width: 786
Flags: W
LayerCount: 2
UndoRedoHistory
Layer: 1
Undoes
EndUndoes
Redoes
EndRedoes
EndUndoRedoHistory
Fore
SplineSet
616 1760 m 1,0,-1
 770 1760 l 1,1,-1
 498 824 l 1,2,-1
 753 824 l 1,3,-1
 753 741 l 1,4,-1
 483 741 l 1,5,-1
 483 544 l 1,6,-1
 753 544 l 1,7,-1
 753 462 l 1,8,-1
 483 462 l 1,9,-1
 483 0 l 1,10,-1
 334 0 l 1,11,-1
 334 462 l 1,12,-1
 77 462 l 1,13,-1
 77 544 l 1,14,-1
 334 544 l 1,15,-1
 334 741 l 1,16,-1
 77 741 l 1,17,-1
 77 824 l 1,18,-1
 317 824 l 1,19,-1
 16 1760 l 1,20,-1
 166 1760 l 1,21,-1
 407 982 l 1,22,-1
 410 982 l 1,23,-1
 616 1760 l 1,0,-1
EndSplineSet
EndChar

StartChar: brokenbar
Encoding: 166 166 104
Width: 480
Flags: W
LayerCount: 2
UndoRedoHistory
Layer: 1
Undoes
EndUndoes
Redoes
EndRedoes
EndUndoRedoHistory
Fore
SplineSet
166 1761 m 1,0,-1
 314 1761 l 1,1,-1
 314 931 l 1,2,-1
 166 931 l 1,3,-1
 166 1761 l 1,0,-1
166 724 m 1,4,-1
 314 724 l 1,5,-1
 314 -84 l 1,6,-1
 166 -84 l 1,7,-1
 166 724 l 1,4,-1
EndSplineSet
EndChar

StartChar: section
Encoding: 167 167 105
Width: 764
Flags: W
LayerCount: 2
UndoRedoHistory
Layer: 1
Undoes
EndUndoes
Redoes
EndRedoes
EndUndoRedoHistory
Fore
SplineSet
208 1236 m 1,0,1
 127 1369 127 1369 127 1504.5 c 128,-1,2
 127 1640 127 1640 198 1711 c 128,-1,3
 269 1782 269 1782 413.5 1782 c 128,-1,4
 558 1782 558 1782 619 1684 c 128,-1,5
 680 1586 680 1586 680 1360 c 2,6,-1
 680 1220 l 1,7,-1
 547 1220 l 1,8,-1
 547 1327 l 2,9,10
 547 1498 547 1498 520 1578 c 128,-1,11
 493 1658 493 1658 415 1658 c 0,12,13
 306 1658 306 1658 277 1585 c 0,14,15
 263 1549 263 1549 263 1503 c 128,-1,16
 263 1457 263 1457 268 1427.5 c 128,-1,17
 273 1398 273 1398 280 1375 c 0,18,19
 288 1352 288 1352 310 1318 c 0,20,21
 339 1275 339 1275 375.5 1230.5 c 128,-1,22
 412 1186 412 1186 415 1182 c 128,-1,23
 418 1178 418 1178 423.5 1171.5 c 128,-1,24
 429 1165 429 1165 435.5 1157 c 128,-1,25
 442 1149 442 1149 480.5 1103 c 128,-1,26
 519 1057 519 1057 530.5 1041.5 c 128,-1,27
 542 1026 542 1026 569.5 985 c 128,-1,28
 597 944 597 944 607 917 c 0,29,30
 637 836 637 836 637 771.5 c 128,-1,31
 637 707 637 707 591 600 c 1,32,33
 699 461 699 461 699 273 c 0,34,35
 699 152 699 152 633.5 66 c 128,-1,36
 568 -20 568 -20 422 -20 c 0,37,38
 263 -20 263 -20 196 76.5 c 128,-1,39
 129 173 129 173 129 397 c 2,40,-1
 129 526 l 1,41,-1
 266 526 l 1,42,-1
 266 409 l 2,43,44
 266 255 266 255 296 183 c 0,45,46
 329 103 329 103 420 103 c 0,47,48
 565 103 565 103 564 287 c 0,49,50
 564 456 564 456 404 618 c 0,51,52
 340 682 340 682 277 744 c 0,53,54
 126 893 126 893 126 1026 c 128,-1,55
 126 1159 126 1159 208 1236 c 1,0,1
512 681 m 1,56,57
 519 705 519 705 519 751 c 128,-1,58
 519 797 519 797 512.5 825.5 c 128,-1,59
 506 854 506 854 482.5 890 c 128,-1,60
 459 926 459 926 438.5 951 c 128,-1,61
 418 976 418 976 364.5 1038.5 c 128,-1,62
 311 1101 311 1101 270 1152 c 1,63,64
 241 1110 241 1110 241 1051 c 0,65,66
 241 1045 241 1045 242 1021 c 128,-1,67
 243 997 243 997 271.5 948 c 128,-1,68
 300 899 300 899 331 866 c 128,-1,69
 362 833 362 833 423 772.5 c 128,-1,70
 484 712 484 712 512 681 c 1,56,57
EndSplineSet
EndChar

StartChar: dieresis
Encoding: 168 168 106
Width: 976
Flags: W
LayerCount: 2
UndoRedoHistory
Layer: 1
Undoes
EndUndoes
Redoes
EndRedoes
EndUndoRedoHistory
Fore
SplineSet
585 1500 m 1,0,-1
 767 1500 l 1,1,-1
 767 1367 l 1,2,-1
 585 1367 l 1,3,-1
 585 1500 l 1,0,-1
155 1500 m 1,4,-1
 337 1500 l 1,5,-1
 337 1367 l 1,6,-1
 155 1367 l 1,7,-1
 155 1500 l 1,4,-1
EndSplineSet
EndChar

StartChar: copyright
Encoding: 169 169 107
Width: 1466
Flags: W
LayerCount: 2
UndoRedoHistory
Layer: 1
Undoes
EndUndoes
Redoes
EndRedoes
EndUndoRedoHistory
Fore
SplineSet
150 576.5 m 128,-1,1
 104 701 104 701 104 843.5 c 128,-1,2
 104 986 104 986 150 1110.5 c 128,-1,3
 196 1235 196 1235 278 1325 c 128,-1,4
 360 1415 360 1415 478 1467 c 128,-1,5
 596 1519 596 1519 733 1519 c 128,-1,6
 870 1519 870 1519 988 1467 c 128,-1,7
 1106 1415 1106 1415 1188 1325 c 128,-1,8
 1270 1235 1270 1235 1316 1110.5 c 128,-1,9
 1362 986 1362 986 1362 843.5 c 128,-1,10
 1362 701 1362 701 1316 576.5 c 128,-1,11
 1270 452 1270 452 1188 362 c 128,-1,12
 1106 272 1106 272 988 220 c 128,-1,13
 870 168 870 168 733 168 c 128,-1,14
 596 168 596 168 478 220 c 128,-1,15
 360 272 360 272 278 362 c 128,-1,0
 196 452 196 452 150 576.5 c 128,-1,1
509 1036 m 2,16,17
 509 1169 509 1169 564 1234 c 0,18,19
 620 1299 620 1299 730 1299 c 0,20,21
 948 1299 948 1299 947 1097 c 2,22,-1
 947 961 l 1,23,-1
 850 961 l 1,24,-1
 850 1044 l 2,25,26
 850 1132 850 1132 825.5 1168.5 c 128,-1,27
 801 1205 801 1205 733.5 1205 c 128,-1,28
 666 1205 666 1205 641 1168.5 c 128,-1,29
 616 1132 616 1132 616 1057 c 2,30,-1
 616 629 l 2,31,32
 616 556 616 556 643.5 518 c 128,-1,33
 671 480 671 480 736 480 c 128,-1,34
 801 480 801 480 825.5 513.5 c 128,-1,35
 850 547 850 547 850 629 c 2,36,-1
 850 741 l 1,37,-1
 951 741 l 1,38,-1
 951 627 l 2,39,40
 951 509 951 509 902 451 c 0,41,42
 852 393 852 393 740 393 c 0,43,44
 508 393 508 393 509 624 c 2,45,-1
 509 1036 l 2,16,17
1218.5 537 m 128,-1,47
 1289 676 1289 676 1289 822.5 c 128,-1,48
 1289 969 1289 969 1247.5 1081 c 128,-1,49
 1206 1193 1206 1193 1133.5 1274.5 c 128,-1,50
 1061 1356 1061 1356 957 1403.5 c 128,-1,51
 853 1451 853 1451 733 1451 c 128,-1,52
 613 1451 613 1451 509 1403.5 c 128,-1,53
 405 1356 405 1356 332.5 1274.5 c 128,-1,54
 260 1193 260 1193 218.5 1081 c 128,-1,55
 177 969 177 969 177 822.5 c 128,-1,56
 177 676 177 676 247.5 537 c 128,-1,57
 318 398 318 398 445.5 317 c 128,-1,58
 573 236 573 236 733 236 c 128,-1,59
 893 236 893 236 1020.5 317 c 128,-1,46
 1148 398 1148 398 1218.5 537 c 128,-1,47
EndSplineSet
EndChar

StartChar: ordfeminine
Encoding: 170 170 108
Width: 765
Flags: W
LayerCount: 2
UndoRedoHistory
Layer: 1
Undoes
EndUndoes
Redoes
EndRedoes
EndUndoRedoHistory
Fore
SplineSet
521 732 m 1,0,-1
 521 1237 l 1,1,2
 360 1166 360 1166 330 1130 c 0,3,4
 297 1092 297 1092 293 1053 c 128,-1,5
 289 1014 289 1014 289 973 c 2,6,-1
 289 876 l 2,7,8
 289 751 289 751 308.5 702 c 128,-1,9
 328 653 328 653 377.5 653 c 128,-1,10
 427 653 427 653 465.5 678.5 c 128,-1,11
 504 704 504 704 521 732 c 1,0,-1
184 1374 m 1,12,-1
 185 1407 l 1,13,14
 185 1572 185 1572 200 1618 c 128,-1,15
 215 1664 215 1664 231.5 1694.5 c 128,-1,16
 248 1725 248 1725 272 1742 c 0,17,18
 330 1782 330 1782 401 1782 c 128,-1,19
 472 1782 472 1782 511 1771.5 c 128,-1,20
 550 1761 550 1761 574.5 1730.5 c 128,-1,21
 599 1700 599 1700 613 1673.5 c 0,22,23
 627 1648 627 1648 633 1586 c 0,24,25
 641 1504 641 1504 641 1428 c 2,26,-1
 641 563 l 1,27,-1
 521 563 l 1,28,-1
 521 655 l 1,29,30
 509 620 509 620 468.5 586.5 c 128,-1,31
 428 553 428 553 362 553 c 0,32,33
 171 553 171 553 171 866 c 2,34,-1
 171 1019 l 2,35,36
 172 1110 172 1110 230 1170 c 0,37,38
 280 1221 280 1221 354 1256 c 128,-1,39
 428 1291 428 1291 468 1308 c 128,-1,40
 508 1325 508 1325 521 1331 c 1,41,-1
 521 1423 l 2,42,43
 521 1584 521 1584 510.5 1610.5 c 128,-1,44
 500 1637 500 1637 488 1652 c 0,45,46
 468 1677 468 1677 406.5 1677 c 128,-1,47
 345 1677 345 1677 325 1620 c 128,-1,48
 305 1563 305 1563 305 1404 c 2,49,-1
 305 1374 l 1,50,-1
 184 1374 l 1,12,-1
EndSplineSet
EndChar

StartChar: guillemotleft
Encoding: 171 171 109
Width: 1304
Flags: W
LayerCount: 2
UndoRedoHistory
Layer: 1
Undoes
EndUndoes
Redoes
EndRedoes
EndUndoRedoHistory
Fore
SplineSet
599 794 m 1,0,-1
 1065 1065 l 1,1,-1
 1065 915 l 1,2,-1
 753 749 l 1,3,-1
 1065 574 l 1,4,-1
 1065 414 l 1,5,-1
 599 699 l 1,6,-1
 599 794 l 1,0,-1
76 794 m 1,7,-1
 542 1065 l 1,8,-1
 542 915 l 1,9,-1
 230 749 l 1,10,-1
 542 574 l 1,11,-1
 542 414 l 1,12,-1
 76 699 l 1,13,-1
 76 794 l 1,7,-1
EndSplineSet
EndChar

StartChar: logicalnot
Encoding: 172 172 110
Width: 947
Flags: W
LayerCount: 2
UndoRedoHistory
Layer: 1
Undoes
EndUndoes
Redoes
EndRedoes
EndUndoRedoHistory
Fore
SplineSet
97 858 m 1,0,-1
 826 858 l 1,1,-1
 826 439 l 1,2,-1
 701 439 l 1,3,-1
 701 743 l 1,4,-1
 97 743 l 1,5,-1
 97 858 l 1,0,-1
EndSplineSet
EndChar

StartChar: uni00AD
Encoding: 173 173 111
Width: 696
Flags: W
LayerCount: 2
UndoRedoHistory
Layer: 1
Undoes
EndUndoes
Redoes
EndRedoes
EndUndoRedoHistory
Fore
SplineSet
90 741 m 1,0,-1
 606 741 l 1,1,-1
 606 626 l 1,2,-1
 90 626 l 1,3,-1
 90 741 l 1,0,-1
EndSplineSet
EndChar

StartChar: registered
Encoding: 174 174 112
Width: 1502
Flags: W
LayerCount: 2
UndoRedoHistory
Layer: 1
Undoes
EndUndoes
Redoes
EndRedoes
EndUndoRedoHistory
Fore
SplineSet
527 1298 m 1,0,-1
 740 1298 l 2,1,2
 856 1298 856 1298 918.5 1246 c 128,-1,3
 981 1194 981 1194 981 1071.5 c 128,-1,4
 981 949 981 949 858 910 c 1,5,6
 902 902 902 902 934.5 869.5 c 128,-1,7
 967 837 967 837 967 787 c 2,8,-1
 967 446 l 1,9,-1
 849 446 l 1,10,-1
 849 748 l 2,11,12
 848 825 848 825 816 846 c 0,13,14
 784 866 784 866 753 866 c 0,15,16
 751 866 751 866 749 866 c 0,17,18
 689 864 689 864 647 864 c 1,19,-1
 647 446 l 1,20,-1
 527 446 l 1,21,-1
 527 1298 l 1,0,-1
726 951 m 2,22,23
 863 950 863 950 863 1086 c 0,24,25
 863 1158 863 1158 820 1184 c 128,-1,26
 777 1210 777 1210 648 1210 c 1,27,-1
 648 951 l 1,28,-1
 726 951 l 2,22,23
76 862 m 128,-1,30
 76 1046 76 1046 162 1196.5 c 128,-1,31
 248 1347 248 1347 398.5 1433 c 128,-1,32
 549 1519 549 1519 733 1519 c 128,-1,33
 917 1519 917 1519 1067.5 1433 c 128,-1,34
 1218 1347 1218 1347 1304 1196.5 c 128,-1,35
 1390 1046 1390 1046 1390 862 c 128,-1,36
 1390 678 1390 678 1304 527.5 c 128,-1,37
 1218 377 1218 377 1067.5 291 c 128,-1,38
 917 205 917 205 733 205 c 128,-1,39
 549 205 549 205 398.5 291 c 128,-1,40
 248 377 248 377 162 527.5 c 128,-1,29
 76 678 76 678 76 862 c 128,-1,30
1309 862 m 128,-1,42
 1309 1024 1309 1024 1233.5 1160 c 128,-1,43
 1158 1296 1158 1296 1025.5 1374.5 c 128,-1,44
 893 1453 893 1453 733 1453 c 128,-1,45
 573 1453 573 1453 440.5 1374.5 c 128,-1,46
 308 1296 308 1296 232.5 1160 c 128,-1,47
 157 1024 157 1024 157 862 c 128,-1,48
 157 700 157 700 232.5 564 c 128,-1,49
 308 428 308 428 440.5 349.5 c 128,-1,50
 573 271 573 271 733 271 c 128,-1,51
 893 271 893 271 1025.5 349.5 c 128,-1,52
 1158 428 1158 428 1233.5 564 c 128,-1,41
 1309 700 1309 700 1309 862 c 128,-1,42
EndSplineSet
EndChar

StartChar: macron
Encoding: 175 175 113
Width: 696
Flags: W
LayerCount: 2
UndoRedoHistory
Layer: 1
Undoes
EndUndoes
Redoes
EndRedoes
EndUndoRedoHistory
Fore
SplineSet
90 43 m 1,0,-1
 585 43 l 1,1,-1
 585 -70 l 1,2,-1
 90 -70 l 1,3,-1
 90 43 l 1,0,-1
EndSplineSet
EndChar

StartChar: degree
Encoding: 176 176 114
Width: 863
Flags: W
LayerCount: 2
UndoRedoHistory
Layer: 1
Undoes
EndUndoes
Redoes
EndRedoes
EndUndoRedoHistory
Fore
SplineSet
138.5 1263.5 m 128,-1,1
 88 1341 88 1341 88 1435 c 128,-1,2
 88 1529 88 1529 117.5 1594 c 128,-1,3
 147 1659 147 1659 196 1699 c 0,4,5
 298 1782 298 1782 431 1782 c 0,6,7
 626 1782 626 1782 724 1632 c 0,8,9
 775 1554 775 1554 775 1448 c 128,-1,10
 775 1342 775 1342 724 1264 c 128,-1,11
 673 1186 673 1186 596.5 1150 c 128,-1,12
 520 1114 520 1114 431 1114 c 128,-1,13
 342 1114 342 1114 265.5 1150 c 128,-1,0
 189 1186 189 1186 138.5 1263.5 c 128,-1,1
663 1448 m 128,-1,15
 663 1566 663 1566 594.5 1630.5 c 128,-1,16
 526 1695 526 1695 431.5 1695 c 128,-1,17
 337 1695 337 1695 269 1630.5 c 128,-1,18
 201 1566 201 1566 201 1448 c 128,-1,19
 201 1330 201 1330 269.5 1265.5 c 128,-1,20
 338 1201 338 1201 432.5 1201 c 128,-1,21
 527 1201 527 1201 595 1265.5 c 128,-1,14
 663 1330 663 1330 663 1448 c 128,-1,15
EndSplineSet
EndChar

StartChar: plusminus
Encoding: 177 177 115
Width: 854
Flags: W
LayerCount: 2
UndoRedoHistory
Layer: 1
Undoes
EndUndoes
Redoes
EndRedoes
EndUndoRedoHistory
Fore
SplineSet
368 1185 m 1,0,-1
 486 1185 l 1,1,-1
 486 926 l 1,2,-1
 720 926 l 1,3,-1
 720 820 l 1,4,-1
 486 820 l 1,5,-1
 486 554 l 1,6,-1
 368 554 l 1,7,-1
 368 820 l 1,8,-1
 138 820 l 1,9,-1
 138 926 l 1,10,-1
 368 926 l 1,11,-1
 368 1185 l 1,0,-1
173 377 m 1,12,-1
 689 377 l 1,13,-1
 689 259 l 1,14,-1
 173 259 l 1,15,-1
 173 377 l 1,12,-1
EndSplineSet
EndChar

StartChar: uni00B2
Encoding: 178 178 116
Width: 861
Flags: W
LayerCount: 2
UndoRedoHistory
Layer: 1
Undoes
EndUndoes
Redoes
EndRedoes
EndUndoRedoHistory
Fore
SplineSet
260 1314 m 1,0,1
 260 1486 260 1486 265.5 1527 c 128,-1,2
 271 1568 271 1568 276.5 1601.5 c 128,-1,3
 282 1635 282 1635 291 1655 c 128,-1,4
 300 1675 300 1675 312 1697.5 c 128,-1,5
 324 1720 324 1720 341 1732.5 c 128,-1,6
 358 1745 358 1745 379 1757 c 0,7,8
 416 1778 416 1778 476 1778 c 128,-1,9
 536 1778 536 1778 570.5 1754.5 c 128,-1,10
 605 1731 605 1731 623.5 1696.5 c 128,-1,11
 642 1662 642 1662 653 1609 c 0,12,13
 670 1527 670 1527 670 1417 c 128,-1,14
 670 1307 670 1307 643 1210 c 128,-1,15
 616 1113 616 1113 575.5 1031.5 c 0,16,17
 536 950 536 950 494 870 c 0,18,19
 392 671 392 671 375 498 c 1,20,-1
 651 498 l 1,21,-1
 651 420 l 1,22,-1
 264 420 l 1,23,-1
 264 492 l 2,24,25
 264 546 264 546 460 1017 c 0,26,27
 509 1135 509 1135 507 1135 c 1,28,29
 529 1183 529 1183 544.5 1267.5 c 128,-1,30
 560 1352 560 1352 560 1440 c 128,-1,31
 560 1528 560 1528 547 1587.5 c 128,-1,32
 534 1647 534 1647 516.5 1664 c 128,-1,33
 499 1681 499 1681 474.5 1681 c 128,-1,34
 450 1681 450 1681 434.5 1671.5 c 0,35,36
 418 1662 418 1662 404 1635 c 0,37,38
 374 1580 374 1580 375 1410 c 2,39,-1
 375 1232 l 1,40,-1
 259 1232 l 1,41,-1
 260 1314 l 1,0,1
EndSplineSet
EndChar

StartChar: uni00B3
Encoding: 179 179 117
Width: 880
Flags: W
LayerCount: 2
UndoRedoHistory
Layer: 1
Undoes
EndUndoes
Redoes
EndRedoes
EndUndoRedoHistory
Fore
SplineSet
237 1460 m 2,0,1
 237 1621 237 1621 282.5 1698 c 128,-1,2
 328 1775 328 1775 438.5 1775 c 128,-1,3
 549 1775 549 1775 599 1697 c 128,-1,4
 649 1619 649 1619 649 1460 c 0,5,6
 649 1227 649 1227 530 1181 c 1,7,8
 590 1154 590 1154 620.5 1068.5 c 128,-1,9
 651 983 651 983 651 844 c 128,-1,10
 651 705 651 705 599.5 623.5 c 128,-1,11
 548 542 548 542 437.5 542 c 128,-1,12
 327 542 327 542 280 623.5 c 128,-1,13
 233 705 233 705 233 880 c 2,14,-1
 233 909 l 1,15,-1
 333 909 l 1,16,-1
 333 879 l 2,17,18
 333 726 333 726 352.5 676 c 128,-1,19
 372 626 372 626 438 626 c 128,-1,20
 504 626 504 626 528.5 681 c 128,-1,21
 553 736 553 736 553 882.5 c 128,-1,22
 553 1029 553 1029 520.5 1084.5 c 128,-1,23
 488 1140 488 1140 410 1140 c 2,24,-1
 379 1140 l 1,25,-1
 379 1227 l 1,26,-1
 408 1227 l 2,27,28
 449 1227 449 1227 472.5 1234 c 128,-1,29
 496 1241 496 1241 516 1265 c 0,30,31
 550 1307 550 1307 550 1462 c 0,32,33
 550 1651 550 1651 480 1681 c 0,34,35
 462 1689 462 1689 433 1689 c 128,-1,36
 404 1689 404 1689 384 1672 c 0,37,38
 338 1633 338 1633 337 1459 c 2,39,-1
 337 1437 l 1,40,-1
 237 1437 l 1,41,-1
 237 1460 l 2,0,1
EndSplineSet
EndChar

StartChar: acute
Encoding: 180 180 118
Width: 650
Flags: W
LayerCount: 2
UndoRedoHistory
Layer: 1
Undoes
EndUndoes
Redoes
EndRedoes
EndUndoRedoHistory
Fore
SplineSet
254 1834 m 1,0,-1
 186 1834 l 1,1,-1
 268 2232 l 1,2,-1
 412 2232 l 1,3,-1
 254 1834 l 1,0,-1
EndSplineSet
EndChar

StartChar: paragraph
Encoding: 182 182 119
Width: 989
Flags: W
LayerCount: 2
UndoRedoHistory
Layer: 1
Undoes
EndUndoes
Redoes
EndRedoes
EndUndoRedoHistory
Fore
SplineSet
580 1760 m 2,0,-1
 823 1760 l 1,1,-1
 823 0 l 1,2,-1
 703 0 l 1,3,-1
 703 1620 l 1,4,-1
 550 1620 l 1,5,-1
 550 0 l 1,6,-1
 430 0 l 1,7,-1
 430 1180 l 1,8,9
 283 1196 283 1196 203 1274.5 c 128,-1,10
 123 1353 123 1353 123 1454 c 0,11,12
 122 1632 122 1632 244 1698 c 0,13,14
 356 1760 356 1760 580 1760 c 2,0,-1
EndSplineSet
EndChar

StartChar: periodcentered
Encoding: 183 183 120
Width: 480
Flags: W
LayerCount: 2
UndoRedoHistory
Layer: 1
Undoes
EndUndoes
Redoes
EndRedoes
EndUndoRedoHistory
Fore
SplineSet
163 961 m 1,0,-1
 333 961 l 1,1,-1
 333 786 l 1,2,-1
 163 786 l 1,3,-1
 163 961 l 1,0,-1
EndSplineSet
EndChar

StartChar: cedilla
Encoding: 184 184 121
Width: 1015
Flags: W
LayerCount: 2
UndoRedoHistory
Layer: 1
Undoes
EndUndoes
Redoes
EndRedoes
EndUndoRedoHistory
Fore
SplineSet
494 0 m 1,0,-1
 551 0 l 1,1,-1
 560 -147 l 1,2,3
 651 -193 651 -193 695 -253 c 128,-1,4
 739 -313 739 -313 739 -389 c 0,5,6
 739 -465 739 -465 662 -530.5 c 128,-1,7
 585 -596 585 -596 470 -596 c 0,8,9
 430 -596 430 -596 383 -587 c 1,10,-1
 383 -501 l 1,11,12
 513 -501 513 -501 563.5 -462.5 c 128,-1,13
 614 -424 614 -424 614 -360 c 0,14,15
 614 -296 614 -296 567.5 -253.5 c 128,-1,16
 521 -211 521 -211 454 -196 c 1,17,-1
 494 0 l 1,0,-1
EndSplineSet
EndChar

StartChar: uni00B9
Encoding: 185 185 122
Width: 626
Flags: W
LayerCount: 2
UndoRedoHistory
Layer: 1
Undoes
EndUndoes
Redoes
EndRedoes
EndUndoRedoHistory
Fore
SplineSet
309 1759 m 1,0,-1
 377 1759 l 1,1,-1
 377 414 l 1,2,-1
 266 414 l 1,3,-1
 266 1585 l 1,4,5
 242 1553 242 1553 195 1535 c 128,-1,6
 148 1517 148 1517 103 1517 c 1,7,-1
 103 1591 l 1,8,9
 166 1601 166 1601 221 1643.5 c 128,-1,10
 276 1686 276 1686 309 1759 c 1,0,-1
EndSplineSet
EndChar

StartChar: ordmasculine
Encoding: 186 186 123
Width: 908
Flags: W
LayerCount: 2
UndoRedoHistory
Layer: 1
Undoes
EndUndoes
Redoes
EndRedoes
EndUndoRedoHistory
Fore
SplineSet
239 1205 m 2,0,1
 240 1415 240 1415 278 1492 c 0,2,3
 316 1570 316 1570 384 1594 c 0,4,5
 424 1608 424 1608 481.5 1607.5 c 128,-1,6
 539 1607 539 1607 583 1586 c 128,-1,7
 627 1565 627 1565 651.5 1532.5 c 128,-1,8
 676 1500 676 1500 690 1444 c 0,9,10
 710 1359 710 1359 710 1205 c 2,11,-1
 710 801 l 2,12,13
 710 644 710 644 702.5 599 c 128,-1,14
 695 554 695 554 686.5 522.5 c 128,-1,15
 678 491 678 491 666 471 c 128,-1,16
 654 451 654 451 636.5 430.5 c 0,17,18
 618 410 618 410 596 399 c 0,19,20
 545 374 545 374 490.5 374 c 128,-1,21
 436 374 436 374 403 381.5 c 128,-1,22
 370 389 370 389 346 406 c 128,-1,23
 322 423 322 423 304 443 c 128,-1,24
 286 463 286 463 274.5 494.5 c 128,-1,25
 263 526 263 526 255.5 556 c 128,-1,26
 248 586 248 586 244 630 c 0,27,28
 238 699 238 699 239 801 c 2,29,-1
 239 1205 l 2,0,1
590 1234 m 2,30,31
 590 1442 590 1442 536 1484 c 0,32,33
 512 1502 512 1502 478.5 1502 c 128,-1,34
 445 1502 445 1502 423 1488.5 c 128,-1,35
 401 1475 401 1475 388.5 1454 c 128,-1,36
 376 1433 376 1433 369 1396 c 0,37,38
 358 1338 358 1338 358 1234 c 2,39,-1
 358 760 l 2,40,41
 358 607 358 607 371.5 570 c 128,-1,42
 385 533 385 533 398 514 c 0,43,44
 423 478 423 478 468.5 478 c 128,-1,45
 514 478 514 478 537 497 c 128,-1,46
 560 516 560 516 572 558 c 0,47,48
 590 625 590 625 590 760 c 2,49,-1
 590 1234 l 2,30,31
EndSplineSet
EndChar

StartChar: guillemotright
Encoding: 187 187 124
Width: 1304
Flags: W
LayerCount: 2
UndoRedoHistory
Layer: 1
Undoes
EndUndoes
Redoes
EndRedoes
EndUndoRedoHistory
Fore
SplineSet
716 915 m 1,0,-1
 716 1065 l 1,1,-1
 1182 794 l 1,2,-1
 1182 699 l 1,3,-1
 716 414 l 1,4,-1
 716 574 l 1,5,-1
 1028 749 l 1,6,-1
 716 915 l 1,0,-1
193 915 m 1,7,-1
 193 1065 l 1,8,-1
 659 794 l 1,9,-1
 659 699 l 1,10,-1
 193 414 l 1,11,-1
 193 574 l 1,12,-1
 505 749 l 1,13,-1
 193 915 l 1,7,-1
EndSplineSet
EndChar

StartChar: onequarter
Encoding: 188 188 125
Width: 1535
Flags: W
LayerCount: 2
UndoRedoHistory
Layer: 1
Undoes
EndUndoes
Redoes
EndRedoes
EndUndoRedoHistory
Fore
SplineSet
948 1782 m 1,0,-1
 1068 1782 l 1,1,-1
 607 0 l 1,2,-1
 489 0 l 1,3,-1
 948 1782 l 1,0,-1
312 1782 m 1,4,-1
 383 1782 l 1,5,-1
 383 424 l 1,6,-1
 267 424 l 1,7,-1
 267 1605 l 1,8,9
 242 1573 242 1573 194 1555 c 128,-1,10
 146 1537 146 1537 100 1537 c 1,11,-1
 100 1612 l 1,12,13
 165 1622 165 1622 222 1665 c 128,-1,14
 279 1708 279 1708 312 1782 c 1,4,-1
1190 326 m 1,15,-1
 1190 989 l 1,16,-1
 1007 326 l 1,17,-1
 1190 326 l 1,15,-1
1189 1224 m 1,18,-1
 1284 1224 l 1,19,-1
 1284 326 l 1,20,-1
 1393 326 l 1,21,-1
 1393 244 l 1,22,-1
 1284 244 l 1,23,-1
 1284 0 l 1,24,-1
 1190 0 l 1,25,-1
 1190 244 l 1,26,-1
 916 244 l 1,27,-1
 911 314 l 1,28,-1
 1189 1224 l 1,18,-1
EndSplineSet
EndChar

StartChar: onehalf
Encoding: 189 189 126
Width: 1620
Flags: W
LayerCount: 2
UndoRedoHistory
Layer: 1
Undoes
EndUndoes
Redoes
EndRedoes
EndUndoRedoHistory
Fore
SplineSet
312 1782 m 1,0,-1
 383 1782 l 1,1,-1
 383 424 l 1,2,-1
 267 424 l 1,3,-1
 267 1605 l 1,4,5
 242 1573 242 1573 194 1555 c 128,-1,6
 146 1537 146 1537 100 1537 c 1,7,-1
 100 1612 l 1,8,9
 165 1622 165 1622 222 1665 c 128,-1,10
 279 1708 279 1708 312 1782 c 1,0,-1
948 1782 m 1,11,-1
 1068 1782 l 1,12,-1
 607 0 l 1,13,-1
 489 0 l 1,14,-1
 948 1782 l 1,11,-1
1127 904 m 2,15,16
 1127 1089 1127 1089 1134.5 1136.5 c 128,-1,17
 1142 1184 1142 1184 1150 1218.5 c 128,-1,18
 1158 1253 1158 1253 1169.5 1273.5 c 128,-1,19
 1181 1294 1181 1294 1198.5 1315 c 128,-1,20
 1216 1336 1216 1336 1238 1347 c 0,21,22
 1289 1372 1289 1372 1344 1372 c 128,-1,23
 1399 1372 1399 1372 1430 1358.5 c 128,-1,24
 1461 1345 1461 1345 1480.5 1318 c 128,-1,25
 1500 1291 1500 1291 1513 1259.5 c 128,-1,26
 1526 1228 1526 1228 1532 1182 c 0,27,28
 1542 1108 1542 1108 1543 997 c 0,29,30
 1543 822 1543 822 1470 669 c 1,31,-1
 1305 315 l 1,32,33
 1255 210 1255 210 1246 126 c 2,34,-1
 1243 98 l 1,35,-1
 1523 98 l 1,36,-1
 1523 1 l 1,37,-1
 1131 1 l 1,38,-1
 1131 74 l 2,39,40
 1131 195 1131 195 1210 365 c 2,41,-1
 1377 724 l 2,42,43
 1431 840 1431 840 1431 979.5 c 128,-1,44
 1431 1119 1431 1119 1418 1179 c 128,-1,45
 1405 1239 1405 1239 1387 1256 c 128,-1,46
 1369 1273 1369 1273 1344 1273 c 128,-1,47
 1319 1273 1319 1273 1303.5 1263 c 128,-1,48
 1288 1253 1288 1253 1274 1226 c 0,49,50
 1244 1171 1244 1171 1244 1001 c 2,51,-1
 1244 821 l 1,52,-1
 1127 821 l 1,53,-1
 1127 904 l 2,15,16
EndSplineSet
EndChar

StartChar: threequarters
Encoding: 190 190 127
Width: 1555
Flags: W
LayerCount: 2
UndoRedoHistory
Layer: 1
Undoes
EndUndoes
Redoes
EndRedoes
EndUndoRedoHistory
Fore
SplineSet
1027 1782 m 1,0,-1
 1147 1782 l 1,1,-1
 686 0 l 1,2,-1
 568 0 l 1,3,-1
 1027 1782 l 1,0,-1
1268 1224 m 1,4,-1
 1363 1224 l 1,5,-1
 1363 326 l 1,6,-1
 1472 326 l 1,7,-1
 1472 244 l 1,8,-1
 1363 244 l 1,9,-1
 1363 0 l 1,10,-1
 1269 0 l 1,11,-1
 1269 244 l 1,12,-1
 995 244 l 1,13,-1
 990 314 l 1,14,-1
 1268 1224 l 1,4,-1
1269 326 m 1,15,-1
 1269 989 l 1,16,-1
 1086 326 l 1,17,-1
 1269 326 l 1,15,-1
151 1481 m 2,18,19
 151 1644 151 1644 198.5 1722 c 128,-1,20
 246 1800 246 1800 360 1800 c 128,-1,21
 474 1800 474 1800 526 1721 c 128,-1,22
 578 1642 578 1642 578 1481 c 0,23,24
 578 1245 578 1245 456 1199 c 1,25,26
 517 1171 517 1171 548.5 1085 c 128,-1,27
 580 999 580 999 580 857.5 c 128,-1,28
 580 716 580 716 526.5 633.5 c 128,-1,29
 473 551 473 551 358.5 551 c 128,-1,30
 244 551 244 551 195.5 633 c 128,-1,31
 147 715 147 715 147 893 c 2,32,-1
 147 924 l 1,33,-1
 252 924 l 1,34,-1
 252 893 l 2,35,36
 252 739 252 739 272 688.5 c 128,-1,37
 292 638 292 638 359 638 c 128,-1,38
 426 638 426 638 450.5 693.5 c 128,-1,39
 475 749 475 749 475 896.5 c 128,-1,40
 475 1044 475 1044 442 1100.5 c 128,-1,41
 409 1157 409 1157 329 1157 c 2,42,-1
 298 1157 l 1,43,-1
 298 1244 l 1,44,-1
 329 1244 l 2,45,46
 384 1244 384 1244 412 1259 c 0,47,48
 472 1291 472 1291 473 1482 c 0,49,50
 472 1626 472 1626 438 1671 c 0,51,52
 408 1711 408 1711 357 1711 c 128,-1,53
 306 1711 306 1711 281 1662.5 c 128,-1,54
 256 1614 256 1614 256 1480 c 2,55,-1
 256 1457 l 1,56,-1
 151 1457 l 1,57,-1
 151 1481 l 2,18,19
EndSplineSet
EndChar

StartChar: AE
Encoding: 198 198 135
Width: 1074
Flags: W
LayerCount: 2
UndoRedoHistory
Layer: 1
Undoes
EndUndoes
Redoes
EndRedoes
EndUndoRedoHistory
Fore
SplineSet
433 1760 m 1,0,-1
 989 1760 l 1,1,-1
 989 1644 l 1,2,-1
 684 1644 l 1,3,-1
 684 956 l 1,4,-1
 970 956 l 1,5,-1
 970 836 l 1,6,-1
 684 836 l 1,7,-1
 684 118 l 1,8,-1
 986 118 l 1,9,-1
 986 0 l 1,10,-1
 551 0 l 1,11,-1
 551 370 l 1,12,-1
 259 370 l 1,13,-1
 183 0 l 1,14,-1
 43 0 l 1,15,-1
 433 1760 l 1,0,-1
551 483 m 1,16,-1
 551 1646 l 1,17,-1
 533 1645 l 1,18,-1
 288 483 l 1,19,-1
 551 483 l 1,16,-1
EndSplineSet
EndChar

StartChar: multiply
Encoding: 215 215 152
Width: 710
Flags: W
LayerCount: 2
UndoRedoHistory
Layer: 1
Undoes
EndUndoes
Redoes
EndRedoes
EndUndoRedoHistory
Fore
SplineSet
542 936 m 1,0,-1
 626 852 l 1,1,-1
 438 665 l 1,2,-1
 626 478 l 1,3,-1
 542 394 l 1,4,-1
 355 582 l 1,5,-1
 168 394 l 1,6,-1
 84 478 l 1,7,-1
 272 665 l 1,8,-1
 84 852 l 1,9,-1
 168 936 l 1,10,-1
 355 748 l 1,11,-1
 542 936 l 1,0,-1
EndSplineSet
EndChar

StartChar: Oslash
Encoding: 216 216 153
Width: 891
Flags: W
LayerCount: 2
UndoRedoHistory
Layer: 1
Undoes
EndUndoes
Redoes
EndRedoes
EndUndoRedoHistory
Fore
SplineSet
577 1.5 m 128,-1,1
 523 -20 523 -20 444 -20 c 128,-1,2
 365 -20 365 -20 307 6 c 1,3,-1
 256 -225 l 1,4,-1
 197 -206 l 1,5,-1
 251 41 l 1,6,7
 239 51 239 51 215.5 77 c 128,-1,8
 192 103 192 103 172 171 c 0,9,10
 136 293 136 293 136 519 c 2,11,-1
 136 1268 l 2,12,13
 136 1588 136 1588 220 1690 c 0,14,15
 296 1782 296 1782 454 1782 c 0,16,17
 550 1782 550 1782 620 1744 c 1,18,-1
 666 1956 l 1,19,-1
 733 1941 l 1,20,-1
 678 1693 l 1,21,22
 744 1602 744 1602 753 1392 c 0,23,24
 755 1342 755 1342 755 1268 c 2,25,-1
 755 519 l 2,26,27
 755 290 755 290 727.5 196.5 c 128,-1,28
 700 103 700 103 665.5 63 c 128,-1,0
 631 23 631 23 577 1.5 c 128,-1,1
338 148 m 1,29,30
 370 102 370 102 433 102 c 1,31,32
 496 102 496 102 526 121 c 128,-1,33
 556 140 556 140 574 190 c 0,34,35
 606 275 606 275 606 519 c 2,36,-1
 606 1280 l 2,37,38
 606 1322 606 1322 605 1359 c 1,39,-1
 338 148 l 1,29,30
580 1560 m 1,40,41
 551 1658 551 1658 454 1658 c 128,-1,42
 357 1658 357 1658 321 1571.5 c 128,-1,43
 285 1485 285 1485 285 1281 c 2,44,-1
 285 519 l 2,45,46
 285 340 285 340 298 261 c 1,47,-1
 580 1560 l 1,40,41
EndSplineSet
EndChar

StartChar: Thorn
Encoding: 222 222 159
Width: 865
Flags: W
LayerCount: 2
UndoRedoHistory
Layer: 1
Undoes
EndUndoes
Redoes
EndRedoes
EndUndoRedoHistory
Fore
SplineSet
166 1760 m 1,0,-1
 315 1760 l 1,1,-1
 315 1535 l 1,2,-1
 472 1535 l 2,3,4
 644 1535 644 1535 710 1428 c 0,5,6
 753 1357 753 1357 763 1278 c 0,7,8
 777 1167 777 1167 777 1027 c 2,9,-1
 777 1007 l 2,10,11
 777 778 777 778 748 685 c 0,12,13
 720 592 720 592 684 552 c 0,14,15
 611 468 611 468 463 468 c 2,16,-1
 315 468 l 1,17,-1
 315 0 l 1,18,-1
 166 0 l 1,19,-1
 166 1760 l 1,0,-1
629 1042 m 2,20,21
 629 1245 629 1245 599 1328 c 128,-1,22
 569 1411 569 1411 480 1411 c 2,23,-1
 315 1411 l 1,24,-1
 315 594 l 1,25,-1
 474 594 l 2,26,27
 566 594 566 594 597.5 680.5 c 128,-1,28
 629 767 629 767 629 1006 c 2,29,-1
 629 1042 l 2,20,21
EndSplineSet
EndChar

StartChar: germandbls
Encoding: 223 223 160
Width: 933
Flags: W
LayerCount: 2
UndoRedoHistory
Layer: 1
Undoes
EndUndoes
Redoes
EndRedoes
EndUndoRedoHistory
Fore
SplineSet
157 1417 m 2,0,1
 157 1556 157 1556 163 1589.5 c 128,-1,2
 169 1623 169 1623 176.5 1650 c 128,-1,3
 184 1677 184 1677 194.5 1691 c 128,-1,4
 205 1705 205 1705 220.5 1722.5 c 128,-1,5
 236 1740 236 1740 257 1748.5 c 128,-1,6
 278 1757 278 1757 306 1766 c 0,7,8
 352 1781 352 1781 449.5 1781 c 128,-1,9
 547 1781 547 1781 609.5 1764.5 c 128,-1,10
 672 1748 672 1748 710 1704.5 c 128,-1,11
 748 1661 748 1661 761.5 1594 c 128,-1,12
 775 1527 775 1527 775 1417 c 2,13,-1
 775 1220 l 2,14,15
 775 1091 775 1091 740 1034 c 128,-1,16
 705 977 705 977 606 945 c 1,17,18
 696 923 696 923 744.5 882.5 c 128,-1,19
 793 842 793 842 814 765 c 128,-1,20
 835 688 835 688 835 553 c 2,21,-1
 835 476 l 2,22,23
 835 285 835 285 824.5 237.5 c 128,-1,24
 814 190 814 190 803 155 c 128,-1,25
 792 120 792 120 776 99.5 c 128,-1,26
 760 79 760 79 736.5 57.5 c 0,27,28
 712 36 712 36 682 25 c 0,29,30
 613 0 613 0 522 0 c 2,31,-1
 418 0 l 1,32,-1
 418 100 l 1,33,34
 545 100 545 100 585.5 119 c 128,-1,35
 626 138 626 138 643.5 157 c 128,-1,36
 661 176 661 176 671 212 c 0,37,38
 687 270 687 270 687 395 c 2,39,-1
 687 656 l 2,40,41
 687 783 687 783 630.5 836 c 128,-1,42
 574 889 574 889 427 889 c 1,43,-1
 427 997 l 1,44,45
 540 997 540 997 586 1035.5 c 128,-1,46
 632 1074 632 1074 632 1170 c 2,47,-1
 632 1500 l 2,48,49
 632 1609 632 1609 595.5 1648 c 128,-1,50
 559 1687 559 1687 464.5 1687 c 128,-1,51
 370 1687 370 1687 337 1647.5 c 128,-1,52
 304 1608 304 1608 304 1500 c 2,53,-1
 304 0 l 1,54,-1
 157 0 l 1,55,-1
 157 1417 l 2,0,1
EndSplineSet
EndChar

StartChar: ae
Encoding: 230 230 167
Width: 1236
Flags: W
LayerCount: 2
UndoRedoHistory
Layer: 1
Undoes
EndUndoes
Redoes
EndRedoes
EndUndoRedoHistory
Fore
SplineSet
433 1518 m 1,0,1
 593 1518 593 1518 638 1427 c 1,2,3
 710 1518 710 1518 860 1518 c 0,4,5
 1026 1518 1026 1518 1080 1405 c 0,6,7
 1117 1326 1117 1326 1124 1246 c 0,8,9
 1132 1140 1132 1140 1132 1002 c 2,10,-1
 1132 754 l 1,11,-1
 712 754 l 1,12,-1
 712 443 l 2,13,14
 712 248 712 248 727 209 c 128,-1,15
 742 170 742 170 758 150 c 0,16,17
 786 114 786 114 854 113 c 1,18,19
 854 16 854 16 942 152 c 0,20,21
 971 196 971 196 976 251 c 0,22,23
 983 326 983 326 983 439 c 2,24,-1
 983 556 l 1,25,-1
 1128 556 l 1,26,-1
 1128 505 l 2,27,28
 1128 263 1128 263 1117 218.5 c 128,-1,29
 1106 174 1106 174 1093.5 130.5 c 128,-1,30
 1081 87 1081 87 1060.5 66 c 128,-1,31
 1040 45 1040 45 1012 22 c 0,32,33
 962 -18 962 -18 851 -18 c 1,34,35
 676 -18 676 -18 609 103 c 1,36,37
 567 63 567 63 493 26 c 128,-1,38
 419 -11 419 -11 355 -11 c 0,39,40
 127 -11 127 -11 127 375 c 2,41,-1
 127 566 l 2,42,43
 127 638 127 638 151 691 c 128,-1,44
 175 744 175 744 242.5 791 c 128,-1,45
 310 838 310 838 355 860.5 c 128,-1,46
 400 883 400 883 462 910.5 c 128,-1,47
 524 938 524 938 530.5 940.5 c 128,-1,48
 537 943 537 943 547 947.5 c 128,-1,49
 557 952 557 952 566 956 c 1,50,-1
 566 1065 l 2,51,52
 566 1268 566 1268 552.5 1301.5 c 0,53,54
 539 1334 539 1334 524 1354 c 0,55,56
 498 1388 498 1388 446.5 1388 c 128,-1,57
 395 1388 395 1388 370 1375 c 128,-1,58
 345 1362 345 1362 330 1339.5 c 0,59,60
 316 1318 316 1318 308 1272 c 0,61,62
 296 1196 296 1196 295 1047 c 2,63,-1
 295 1011 l 1,64,-1
 145 1011 l 1,65,-1
 145 1051 l 2,66,67
 145 1214 145 1214 154 1261.5 c 128,-1,68
 163 1309 163 1309 173.5 1344.5 c 128,-1,69
 184 1380 184 1380 198.5 1403 c 128,-1,70
 213 1426 213 1426 234.5 1450 c 128,-1,71
 256 1474 256 1474 284 1488 c 0,72,73
 347 1518 347 1518 433 1518 c 1,0,1
566 211 m 1,74,-1
 566 840 l 1,75,76
 404 766 404 766 376 745 c 128,-1,77
 348 724 348 724 328 705 c 128,-1,78
 308 686 308 686 301 669.5 c 0,79,80
 294 654 294 654 286 628 c 0,81,82
 275 593 275 593 275 511 c 2,83,-1
 275 390 l 2,84,85
 275 234 275 234 299 173 c 128,-1,86
 323 112 323 112 385 112 c 128,-1,87
 447 112 447 112 496.5 144 c 128,-1,88
 546 176 546 176 566 211 c 1,74,-1
983 874 m 1,89,-1
 983 1082 l 2,90,91
 983 1250 983 1250 970 1301 c 0,92,93
 950 1375 950 1375 886 1385 c 1,94,-1
 860 1387 l 1,95,96
 766 1386 766 1386 737 1296 c 0,97,98
 712 1218 712 1218 712 1063 c 2,99,-1
 712 874 l 1,100,-1
 983 874 l 1,89,-1
EndSplineSet
EndChar

StartChar: eth
Encoding: 240 240 177
Width: 910
Flags: W
LayerCount: 2
UndoRedoHistory
Layer: 1
Undoes
EndUndoes
Redoes
EndRedoes
EndUndoRedoHistory
Fore
SplineSet
543 1534 m 1,0,1
 453 1640 453 1640 307 1640 c 1,2,3
 300 1640 300 1640 293 1640 c 1,4,-1
 293 1780 l 1,5,6
 300 1780 300 1780 308 1780 c 0,7,8
 552 1780 552 1780 678 1616 c 1,9,-1
 878 1735 l 1,10,-1
 931 1635 l 1,11,-1
 732 1516 l 1,12,13
 748 1468 748 1468 763 958 c 1,14,-1
 763 506 l 2,15,16
 763 202 763 202 666 80 c 0,17,18
 587 -20 587 -20 431 -20 c 1,19,20
 246 -20 246 -20 176 100 c 0,21,22
 112 212 112 212 111 442 c 2,23,-1
 111 557 l 2,24,25
 111 866 111 866 177.5 984.5 c 128,-1,26
 244 1103 244 1103 411 1103 c 0,27,28
 422 1103 422 1103 451.5 1102 c 128,-1,29
 481 1101 481 1101 533.5 1076.5 c 128,-1,30
 586 1052 586 1052 616 1009 c 1,31,32
 608 1392 608 1392 596 1434 c 1,33,-1
 371 1299 l 1,34,-1
 318 1399 l 1,35,-1
 543 1534 l 1,0,1
614 926 m 1,36,37
 610 926 610 926 580 940 c 0,38,39
 495 978 495 978 425 978 c 0,40,41
 326 978 326 978 293 886.5 c 128,-1,42
 260 795 260 795 260 545 c 2,43,-1
 260 446 l 2,44,45
 260 305 260 305 275.5 234 c 128,-1,46
 291 163 291 163 326.5 135 c 128,-1,47
 362 107 362 107 431 107 c 0,48,49
 539 107 539 107 576.5 196.5 c 128,-1,50
 614 286 614 286 614 505 c 2,51,-1
 614 926 l 1,36,37
EndSplineSet
EndChar

StartChar: divide
Encoding: 247 247 184
Width: 804
Flags: W
LayerCount: 2
UndoRedoHistory
Layer: 1
Undoes
EndUndoes
Redoes
EndRedoes
EndUndoRedoHistory
Fore
SplineSet
94 823 m 1,0,-1
 710 823 l 1,1,-1
 710 708 l 1,2,-1
 94 708 l 1,3,-1
 94 823 l 1,0,-1
343 535 m 1,4,-1
 471 535 l 1,5,-1
 471 327 l 1,6,-1
 343 327 l 1,7,-1
 343 535 l 1,4,-1
343 1174 m 1,8,-1
 471 1174 l 1,9,-1
 471 976 l 1,10,-1
 343 976 l 1,11,-1
 343 1174 l 1,8,-1
EndSplineSet
EndChar

StartChar: oslash
Encoding: 248 248 185
Width: 845
Flags: W
LayerCount: 2
UndoRedoHistory
Layer: 1
Undoes
EndUndoes
Redoes
EndRedoes
EndUndoRedoHistory
Fore
SplineSet
346 139 m 1,0,1
 379 113 379 113 425 113 c 128,-1,2
 471 113 471 113 500 136.5 c 0,3,4
 530 160 530 160 544 210 c 0,5,6
 568 295 568 295 568 463 c 2,7,-1
 568 1053 l 2,8,9
 568 1208 568 1208 545 1290 c 1,10,-1
 346 139 l 1,0,1
501.5 -12 m 128,-1,12
 467 -18 467 -18 416.5 -18 c 128,-1,13
 366 -18 366 -18 322 -5 c 1,14,-1
 284 -223 l 1,15,-1
 223 -215 l 1,16,-1
 264 21 l 1,17,18
 199 65 199 65 178.5 118.5 c 128,-1,19
 158 172 158 172 149 209.5 c 128,-1,20
 140 247 140 247 136 301 c 0,21,22
 128 391 128 391 128 515 c 2,23,-1
 128 1018 l 2,24,25
 128 1278 128 1278 176 1375 c 0,26,27
 224 1474 224 1474 310 1502 c 0,28,29
 360 1518 360 1518 419 1518 c 128,-1,30
 478 1518 478 1518 520 1507 c 1,31,-1
 561 1746 l 1,32,-1
 622 1738 l 1,33,-1
 578 1484 l 1,34,35
 684 1427 684 1427 706 1240 c 0,36,37
 716 1150 716 1150 717 1018 c 2,38,-1
 717 515 l 2,39,40
 717 338 717 338 709.5 285.5 c 128,-1,41
 702 233 702 233 695 195.5 c 128,-1,42
 688 158 688 158 676.5 133.5 c 128,-1,43
 665 109 665 109 649 82 c 128,-1,44
 633 55 633 55 611.5 38.5 c 128,-1,45
 590 22 590 22 563 8 c 128,-1,11
 536 -6 536 -6 501.5 -12 c 128,-1,12
496 1367 m 1,46,47
 468 1387 468 1387 427 1387 c 128,-1,48
 386 1387 386 1387 358.5 1370.5 c 128,-1,49
 331 1354 331 1354 315 1327.5 c 0,50,51
 298 1301 298 1301 290 1255 c 0,52,53
 276 1182 276 1182 277 1053 c 2,54,-1
 277 463 l 2,55,56
 277 294 277 294 298 220 c 1,57,-1
 496 1367 l 1,46,47
EndSplineSet
EndChar

StartChar: thorn
Encoding: 254 254 191
Width: 875
Flags: W
LayerCount: 2
UndoRedoHistory
Layer: 1
Undoes
EndUndoes
Redoes
EndRedoes
EndUndoRedoHistory
Fore
SplineSet
160 1782 m 1,0,-1
 310 1782 l 1,1,-1
 310 1385 l 1,2,3
 363 1511 363 1511 509 1511 c 0,4,5
 678 1510 678 1510 722 1310 c 0,6,7
 746 1198 746 1198 747 1013 c 2,8,-1
 747 475 l 2,9,10
 747 110 747 110 607 20 c 0,11,12
 551 -16 551 -16 484.5 -16 c 128,-1,13
 418 -16 418 -16 374 19.5 c 128,-1,14
 330 55 330 55 310 108 c 1,15,-1
 310 -265 l 1,16,-1
 160 -265 l 1,17,-1
 160 1782 l 1,0,-1
597 1062 m 2,18,19
 597 1238 597 1238 582.5 1281.5 c 0,20,21
 568 1324 568 1324 554 1346 c 0,22,23
 528 1386 528 1386 481.5 1386.5 c 128,-1,24
 435 1387 435 1387 413.5 1381 c 128,-1,25
 392 1375 392 1375 370.5 1355.5 c 128,-1,26
 349 1336 349 1336 337 1300 c 0,27,28
 310 1220 310 1220 310 1059 c 2,29,-1
 310 463 l 2,30,31
 310 270 310 270 341 188 c 128,-1,32
 372 106 372 106 455 106 c 0,33,34
 456 106 l 0,35,36
 540 106 540 106 568.5 188 c 128,-1,37
 597 270 597 270 597 468 c 2,38,-1
 597 1062 l 2,18,19
EndSplineSet
EndChar

StartChar: Delta
Encoding: 916 916 202
Width: 868
Flags: W
LayerCount: 2
UndoRedoHistory
Layer: 1
Undoes
EndUndoes
Redoes
EndRedoes
EndUndoRedoHistory
Fore
SplineSet
495 1760 m 1,0,-1
 808 0 l 1,1,-1
 60 0 l 1,2,-1
 343 1760 l 1,3,-1
 495 1760 l 1,0,-1
219 123 m 1,4,-1
 644 123 l 1,5,-1
 424 1476 l 1,6,-1
 422 1476 l 1,7,-1
 219 123 l 1,4,-1
EndSplineSet
EndChar

StartChar: Euro
Encoding: 8364 8364 208
Width: 830
Flags: W
LayerCount: 2
UndoRedoHistory
Layer: 1
Undoes
EndUndoes
Redoes
EndRedoes
EndUndoRedoHistory
Fore
SplineSet
98 1251 m 2,0,1
 98 1570 98 1570 183 1682 c 0,2,3
 259 1782 259 1782 416 1782 c 0,4,5
 556 1782 556 1782 620 1709 c 0,6,7
 666 1656 666 1656 680 1603.5 c 128,-1,8
 694 1551 694 1551 699.5 1516.5 c 128,-1,9
 705 1482 705 1482 708 1430 c 0,10,11
 713 1344 713 1344 713 1239 c 2,12,-1
 713 1087 l 1,13,-1
 562 1087 l 1,14,-1
 562 1257 l 2,15,16
 562 1461 562 1461 542 1535 c 128,-1,17
 522 1609 522 1609 492 1633.5 c 128,-1,18
 462 1658 462 1658 415 1658 c 0,19,20
 320 1658 320 1658 283.5 1562 c 128,-1,21
 247 1466 247 1466 247 1258 c 2,22,-1
 247 1076 l 1,23,-1
 437 1076 l 1,24,-1
 437 986 l 1,25,-1
 247 986 l 1,26,-1
 247 849 l 1,27,-1
 437 849 l 1,28,-1
 437 751 l 1,29,-1
 247 751 l 1,30,-1
 247 552 l 2,31,32
 247 297 247 297 279 199.5 c 128,-1,33
 311 102 311 102 407 102 c 128,-1,34
 503 102 503 102 532.5 199 c 128,-1,35
 562 296 562 296 562 551 c 2,36,-1
 562 692 l 1,37,-1
 712 692 l 1,38,-1
 712 552 l 2,39,40
 712 321 712 321 686 219.5 c 128,-1,41
 660 118 660 118 627 74 c 0,42,43
 557 -20 557 -20 410 -20 c 0,44,45
 263 -20 263 -20 189 73 c 0,46,47
 98 187 98 187 98 550 c 2,48,-1
 98 751 l 1,49,-1
 10 751 l 1,50,-1
 10 849 l 1,51,-1
 98 849 l 1,52,-1
 98 986 l 1,53,-1
 10 986 l 1,54,-1
 10 1076 l 1,55,-1
 98 1076 l 1,56,-1
 98 1251 l 2,0,1
EndSplineSet
EndChar

StartChar: Hbar
Encoding: 294 294 213
Width: 932
Flags: W
LayerCount: 2
UndoRedoHistory
Layer: 1
Undoes
EndUndoes
Redoes
EndRedoes
EndUndoRedoHistory
Fore
SplineSet
637 1760 m 1,0,-1
 786 1760 l 1,1,-1
 786 1498 l 1,2,-1
 900 1498 l 1,3,-1
 900 1416 l 1,4,-1
 786 1416 l 1,5,-1
 786 0 l 1,6,-1
 637 0 l 1,7,-1
 637 886 l 1,8,-1
 315 886 l 1,9,-1
 315 0 l 1,10,-1
 166 0 l 1,11,-1
 166 1416 l 1,12,-1
 55 1416 l 1,13,-1
 55 1498 l 1,14,-1
 166 1498 l 1,15,-1
 166 1760 l 1,16,-1
 315 1760 l 1,17,-1
 315 1498 l 1,18,-1
 637 1498 l 1,19,-1
 637 1760 l 1,0,-1
315 1416 m 1,20,-1
 315 998 l 1,21,-1
 637 998 l 1,22,-1
 637 1416 l 1,23,-1
 315 1416 l 1,20,-1
EndSplineSet
EndChar

StartChar: Lslash
Encoding: 321 321 227
Width: 705
Flags: W
LayerCount: 2
UndoRedoHistory
Layer: 1
Undoes
EndUndoes
Redoes
EndRedoes
EndUndoRedoHistory
Fore
SplineSet
166 1760 m 1,0,-1
 315 1760 l 1,1,-1
 315 1054 l 1,2,-1
 497 1133 l 1,3,-1
 497 1011 l 1,4,-1
 315 932 l 1,5,-1
 315 118 l 1,6,-1
 627 118 l 1,7,-1
 627 0 l 1,8,-1
 166 0 l 1,9,-1
 166 867 l 1,10,-1
 -1 794 l 1,11,-1
 -1 916 l 1,12,-1
 166 989 l 1,13,-1
 166 1760 l 1,0,-1
EndSplineSet
EndChar

StartChar: OE
Encoding: 338 338 231
Width: 1168
Flags: W
LayerCount: 2
UndoRedoHistory
Layer: 1
Undoes
EndUndoes
Redoes
EndRedoes
EndUndoRedoHistory
Fore
SplineSet
453 1760 m 2,0,-1
 1082 1760 l 1,1,-1
 1082 1644 l 1,2,-1
 755 1644 l 1,3,-1
 755 956 l 1,4,-1
 1063 956 l 1,5,-1
 1063 836 l 1,6,-1
 755 836 l 1,7,-1
 755 118 l 1,8,-1
 1080 118 l 1,9,-1
 1080 0 l 1,10,-1
 446 0 l 2,11,12
 300 0 300 0 226 76 c 0,13,14
 134 171 134 171 134 519 c 2,15,-1
 134 1269 l 2,16,17
 134 1465 134 1465 159 1551 c 0,18,19
 184 1638 184 1638 218 1676 c 0,20,21
 294 1760 294 1760 453 1760 c 2,0,-1
606 126 m 1,22,-1
 606 1634 l 1,23,-1
 453 1634 l 2,24,25
 354 1634 354 1634 318.5 1558 c 128,-1,26
 283 1482 283 1482 283 1282 c 2,27,-1
 283 518 l 2,28,29
 283 226 283 226 331 170 c 0,30,31
 369 126 369 126 446 126 c 2,32,-1
 606 126 l 1,22,-1
EndSplineSet
EndChar

StartChar: approxequal
Encoding: 8776 8776 263
Width: 1117
Flags: W
LayerCount: 2
UndoRedoHistory
Layer: 1
Undoes
EndUndoes
Redoes
EndRedoes
EndUndoRedoHistory
Fore
SplineSet
746 1044 m 1,0,1
 813 1053 813 1053 846 1162 c 1,2,-1
 989 1120 l 1,3,4
 955 986 955 986 899 947 c 0,5,6
 853 915 853 915 784 915 c 1,7,8
 715 915 715 915 561 955 c 128,-1,9
 407 995 407 995 353.5 995 c 128,-1,10
 300 995 300 995 260 902 c 1,11,-1
 132 937 l 1,12,13
 210 1123 210 1123 346 1123 c 0,14,15
 403 1123 403 1123 561 1083.5 c 128,-1,16
 719 1044 719 1044 746 1044 c 1,0,1
746 642 m 1,17,18
 813 649 813 649 846 760 c 1,19,-1
 989 718 l 1,20,21
 955 584 955 584 899 545 c 0,22,23
 853 513 853 513 784 513 c 1,24,25
 715 513 715 513 561 553 c 128,-1,26
 407 593 407 593 353.5 593 c 128,-1,27
 300 593 300 593 260 500 c 1,28,-1
 132 535 l 1,29,30
 211 721 211 721 346 721 c 0,31,32
 403 721 403 721 561 681.5 c 128,-1,33
 719 642 719 642 746 642 c 1,17,18
EndSplineSet
EndChar

StartChar: breve
Encoding: 728 728 264
Width: 1016
Flags: W
LayerCount: 2
UndoRedoHistory
Layer: 1
Undoes
EndUndoes
Redoes
EndRedoes
EndUndoRedoHistory
Fore
SplineSet
632 1823 m 1,0,-1
 696 1823 l 1,1,-1
 696 1810 l 2,2,3
 696 1722 696 1722 647.5 1670.5 c 128,-1,4
 599 1619 599 1619 506 1619 c 0,5,6
 413 1619 413 1619 364 1669.5 c 128,-1,7
 315 1720 315 1720 315 1808 c 2,8,-1
 315 1823 l 1,9,-1
 379 1823 l 1,10,11
 380 1710 380 1710 506 1710 c 0,12,13
 632 1710 632 1710 632 1823 c 1,0,-1
EndSplineSet
EndChar

StartChar: bullet
Encoding: 8226 8226 265
Width: 861
Flags: W
LayerCount: 2
UndoRedoHistory
Layer: 1
Undoes
EndUndoes
Redoes
EndRedoes
EndUndoRedoHistory
Fore
SplineSet
227 861 m 0,0,1
 226 1089 226 1089 430 1089 c 128,-1,2
 634 1089 634 1089 634 861 c 128,-1,3
 634 633 634 633 430 633 c 128,-1,4
 226 633 226 633 227 861 c 0,0,1
EndSplineSet
EndChar

StartChar: caron
Encoding: 711 711 267
Width: 970
Flags: W
LayerCount: 2
UndoRedoHistory
Layer: 1
Undoes
EndUndoes
Redoes
EndRedoes
EndUndoRedoHistory
Fore
SplineSet
571 1830 m 1,0,-1
 688 1830 l 1,1,-1
 568 1577 l 1,2,-1
 402 1577 l 1,3,-1
 281 1830 l 1,4,-1
 399 1830 l 1,5,-1
 485 1655 l 1,6,-1
 571 1830 l 1,0,-1
EndSplineSet
EndChar

StartChar: circumflex
Encoding: 710 710 271
Width: 970
Flags: W
LayerCount: 2
UndoRedoHistory
Layer: 1
Undoes
EndUndoes
Redoes
EndRedoes
EndUndoRedoHistory
Fore
SplineSet
402 1831 m 1,0,-1
 568 1831 l 1,1,-1
 688 1577 l 1,2,-1
 571 1577 l 1,3,-1
 485 1752 l 1,4,-1
 399 1577 l 1,5,-1
 281 1577 l 1,6,-1
 402 1831 l 1,0,-1
EndSplineSet
EndChar

StartChar: commaaccentcomb
Encoding: 806 806 272
Width: 528
Flags: W
LayerCount: 2
UndoRedoHistory
Layer: 1
Undoes
EndUndoes
Redoes
EndRedoes
EndUndoRedoHistory
Fore
SplineSet
168 242 m 1,0,-1
 365 242 l 1,1,-1
 365 59 l 1,2,-1
 287 -223 l 1,3,-1
 225 -223 l 1,4,-1
 268 50 l 1,5,-1
 168 50 l 1,6,-1
 168 242 l 1,0,-1
EndSplineSet
EndChar

StartChar: dagger
Encoding: 8224 8224 273
Width: 909
Flags: W
LayerCount: 2
UndoRedoHistory
Layer: 1
Undoes
EndUndoes
Redoes
EndRedoes
EndUndoRedoHistory
Fore
SplineSet
382 1592 m 1,0,-1
 530 1592 l 1,1,-1
 530 1182 l 1,2,-1
 818 1182 l 1,3,-1
 818 1066 l 1,4,-1
 530 1066 l 1,5,-1
 530 0 l 1,6,-1
 382 0 l 1,7,-1
 382 1066 l 1,8,-1
 91 1066 l 1,9,-1
 91 1182 l 1,10,-1
 382 1182 l 1,11,-1
 382 1592 l 1,0,-1
EndSplineSet
EndChar

StartChar: daggerdbl
Encoding: 8225 8225 274
Width: 830
Flags: W
LayerCount: 2
UndoRedoHistory
Layer: 1
Undoes
EndUndoes
Redoes
EndRedoes
EndUndoRedoHistory
Fore
SplineSet
757 1066 m 1,0,-1
 475 1066 l 1,1,-1
 475 612 l 1,2,-1
 757 612 l 1,3,-1
 757 506 l 1,4,-1
 475 506 l 1,5,-1
 475 0 l 1,6,-1
 358 0 l 1,7,-1
 358 506 l 1,8,-1
 73 506 l 1,9,-1
 73 612 l 1,10,-1
 358 612 l 1,11,-1
 358 1066 l 1,12,-1
 73 1066 l 1,13,-1
 73 1172 l 1,14,-1
 358 1172 l 1,15,-1
 358 1592 l 1,16,-1
 475 1592 l 1,17,-1
 475 1172 l 1,18,-1
 757 1172 l 1,19,-1
 757 1066 l 1,0,-1
EndSplineSet
EndChar

StartChar: dblgravecmb
Encoding: 783 783 275
Width: 626
Flags: W
LayerCount: 2
UndoRedoHistory
Layer: 1
Undoes
EndUndoes
Redoes
EndRedoes
EndUndoRedoHistory
Fore
SplineSet
89 1726 m 1,0,-1
 194 1783 l 1,1,-1
 294 1435 l 1,2,-1
 245 1411 l 1,3,-1
 89 1726 l 1,0,-1
340 1726 m 1,4,-1
 441 1783 l 1,5,-1
 504 1435 l 1,6,-1
 455 1411 l 1,7,-1
 340 1726 l 1,4,-1
EndSplineSet
EndChar

StartChar: dcroat
Encoding: 273 273 277
Width: 872
Flags: W
LayerCount: 2
UndoRedoHistory
Layer: 1
Undoes
EndUndoes
Redoes
EndRedoes
EndUndoRedoHistory
Fore
SplineSet
565 1037 m 2,0,1
 566 1230 566 1230 536 1308 c 0,2,3
 507 1385 507 1385 422 1385 c 0,4,5
 421 1384 l 0,6,7
 336 1384 336 1384 307 1305 c 128,-1,8
 278 1226 278 1226 278 1030 c 2,9,-1
 278 436 l 2,10,11
 278 230 278 230 311 171 c 0,12,13
 343 114 343 114 409 114 c 1,14,15
 471 114 471 114 498.5 137.5 c 128,-1,16
 526 161 526 161 538 195 c 0,17,18
 565 271 565 271 565 434 c 2,19,-1
 565 1037 l 2,0,1
564 1783 m 1,20,-1
 714 1783 l 1,21,-1
 714 1682 l 1,22,-1
 834 1682 l 1,23,-1
 834 1601 l 1,24,-1
 714 1601 l 1,25,-1
 714 0 l 1,26,-1
 564 0 l 1,27,-1
 564 114 l 1,28,29
 512 -11 512 -11 365 -11 c 1,30,31
 198 -10 198 -10 153 188 c 0,32,33
 128 297 128 297 128 481 c 2,34,-1
 128 1008 l 2,35,36
 128 1310 128 1310 207 1423 c 0,37,38
 273 1518 273 1518 405 1518 c 0,39,40
 456 1518 456 1518 499.5 1481.5 c 128,-1,41
 543 1445 543 1445 564 1393 c 1,42,-1
 564 1601 l 1,43,-1
 211 1601 l 1,44,-1
 211 1682 l 1,45,-1
 564 1682 l 1,46,-1
 564 1783 l 1,20,-1
EndSplineSet
EndChar

StartChar: dotaccent
Encoding: 729 729 278
Width: 572
Flags: W
LayerCount: 2
UndoRedoHistory
Layer: 1
Undoes
EndUndoes
Redoes
EndRedoes
EndUndoRedoHistory
Fore
SplineSet
213 78 m 1,0,-1
 372 78 l 1,1,-1
 372 -55 l 1,2,-1
 213 -55 l 1,3,-1
 213 78 l 1,0,-1
EndSplineSet
EndChar

StartChar: dotlessi
Encoding: 305 305 279
Width: 474
Flags: W
LayerCount: 2
UndoRedoHistory
Layer: 1
Undoes
EndUndoes
Redoes
EndRedoes
EndUndoRedoHistory
Fore
SplineSet
162 1500 m 1,0,-1
 312 1500 l 1,1,-1
 312 0 l 1,2,-1
 162 0 l 1,3,-1
 162 1500 l 1,0,-1
EndSplineSet
EndChar

StartChar: emdash
Encoding: 8212 8212 284
Width: 1153
Flags: W
LayerCount: 2
UndoRedoHistory
Layer: 1
Undoes
EndUndoes
Redoes
EndRedoes
EndUndoRedoHistory
Fore
SplineSet
100 741 m 1,0,-1
 1052 741 l 1,1,-1
 1052 626 l 1,2,-1
 100 626 l 1,3,-1
 100 741 l 1,0,-1
EndSplineSet
EndChar

StartChar: endash
Encoding: 8211 8211 285
Width: 756
Flags: W
LayerCount: 2
UndoRedoHistory
Layer: 1
Undoes
EndUndoes
Redoes
EndRedoes
EndUndoRedoHistory
Fore
SplineSet
120 741 m 1,0,-1
 636 741 l 1,1,-1
 636 626 l 1,2,-1
 120 626 l 1,3,-1
 120 741 l 1,0,-1
EndSplineSet
EndChar

StartChar: florin
Encoding: 402 402 287
Width: 687
Flags: W
LayerCount: 2
UndoRedoHistory
Layer: 1
Undoes
EndUndoes
Redoes
EndRedoes
EndUndoRedoHistory
Fore
SplineSet
282 1563 m 2,0,1
 282 1720 282 1720 375 1760 c 0,2,3
 431 1784 431 1784 497.5 1783.5 c 128,-1,4
 564 1783 564 1783 618 1776 c 1,5,-1
 618 1673 l 1,6,7
 556 1678 556 1678 533 1678 c 128,-1,8
 510 1678 510 1678 506 1678 c 0,9,10
 462 1678 462 1678 440.5 1651 c 128,-1,11
 419 1624 419 1624 419 1560 c 2,12,-1
 419 1044 l 1,13,-1
 635 1044 l 1,14,-1
 635 940 l 1,15,-1
 419 940 l 1,16,-1
 419 63 l 2,17,18
 420 -76 420 -76 338 -122 c 0,19,20
 279 -155 279 -155 169 -155 c 0,21,22
 128 -155 128 -155 81 -150 c 1,23,-1
 81 -52 l 1,24,25
 119 -54 119 -54 145.5 -54 c 128,-1,26
 172 -54 172 -54 198.5 -51.5 c 128,-1,27
 225 -49 225 -49 248 -28.5 c 128,-1,28
 271 -8 271 -8 276.5 24.5 c 128,-1,29
 282 57 282 57 282 123 c 2,30,-1
 282 940 l 1,31,-1
 77 940 l 1,32,-1
 77 1044 l 1,33,-1
 282 1044 l 1,34,-1
 282 1563 l 2,0,1
EndSplineSet
EndChar

StartChar: fraction
Encoding: 8260 8260 288
Width: 829
Flags: W
LayerCount: 2
UndoRedoHistory
Layer: 1
Undoes
EndUndoes
Redoes
EndRedoes
EndUndoRedoHistory
Fore
SplineSet
536 1768 m 1,0,-1
 673 1768 l 1,1,-1
 231 0 l 1,2,-1
 94 0 l 1,3,-1
 536 1768 l 1,0,-1
EndSplineSet
EndChar

StartChar: greaterequal
Encoding: 8805 8805 293
Width: 781
Flags: W
LayerCount: 2
UndoRedoHistory
Layer: 1
Undoes
EndUndoes
Redoes
EndRedoes
EndUndoRedoHistory
Fore
SplineSet
100 1042 m 1,0,-1
 100 1209 l 1,1,-1
 679 813 l 1,2,-1
 679 679 l 1,3,-1
 100 279 l 1,4,-1
 100 439 l 1,5,-1
 567 749 l 1,6,-1
 100 1042 l 1,0,-1
92 111 m 1,7,-1
 641 111 l 1,8,-1
 641 0 l 1,9,-1
 92 0 l 1,10,-1
 92 111 l 1,7,-1
EndSplineSet
EndChar

StartChar: guilsinglleft
Encoding: 8249 8249 294
Width: 606
Flags: W
LayerCount: 2
UndoRedoHistory
Layer: 1
Undoes
EndUndoes
Redoes
EndRedoes
EndUndoRedoHistory
Fore
SplineSet
82 794 m 1,0,-1
 548 1065 l 1,1,-1
 548 915 l 1,2,-1
 236 749 l 1,3,-1
 548 574 l 1,4,-1
 548 414 l 1,5,-1
 82 699 l 1,6,-1
 82 794 l 1,0,-1
EndSplineSet
EndChar

StartChar: guilsinglright
Encoding: 8250 8250 295
Width: 727
Flags: W
LayerCount: 2
UndoRedoHistory
Layer: 1
Undoes
EndUndoes
Redoes
EndRedoes
EndUndoRedoHistory
Fore
SplineSet
166 915 m 1,0,-1
 166 1065 l 1,1,-1
 632 794 l 1,2,-1
 632 699 l 1,3,-1
 166 414 l 1,4,-1
 166 574 l 1,5,-1
 478 749 l 1,6,-1
 166 915 l 1,0,-1
EndSplineSet
EndChar

StartChar: hbar
Encoding: 295 295 296
Width: 924
Flags: W
LayerCount: 2
UndoRedoHistory
Layer: 1
Undoes
EndUndoes
Redoes
EndRedoes
EndUndoRedoHistory
Fore
SplineSet
160 1783 m 1,0,-1
 309 1783 l 1,1,-1
 309 1682 l 1,2,-1
 623 1682 l 1,3,-1
 623 1601 l 1,4,-1
 309 1601 l 1,5,-1
 309 1353 l 1,6,7
 329 1420 329 1420 398.5 1469.5 c 128,-1,8
 468 1519 468 1519 561 1519 c 128,-1,9
 654 1519 654 1519 713.5 1442 c 128,-1,10
 773 1365 773 1365 773 1211 c 2,11,-1
 773 0 l 1,12,-1
 623 0 l 1,13,-1
 623 1201 l 2,14,15
 623 1303 623 1303 587.5 1342 c 128,-1,16
 552 1381 552 1381 501.5 1381 c 128,-1,17
 451 1381 451 1381 422 1372 c 0,18,19
 392 1362 392 1362 366 1342 c 0,20,21
 308 1298 308 1298 309 1191 c 2,22,-1
 309 0 l 1,23,-1
 160 0 l 1,24,-1
 160 1601 l 1,25,-1
 0 1601 l 1,26,-1
 0 1682 l 1,27,-1
 160 1682 l 1,28,-1
 160 1783 l 1,0,-1
EndSplineSet
EndChar

StartChar: hungarumlaut
Encoding: 733 733 298
Width: 882
Flags: W
LayerCount: 2
UndoRedoHistory
Layer: 1
Undoes
EndUndoes
Redoes
EndRedoes
EndUndoRedoHistory
Fore
SplineSet
449 1273 m 1,0,-1
 683 1782 l 1,1,-1
 790 1733 l 1,2,-1
 517 1241 l 1,3,-1
 449 1273 l 1,0,-1
198 1281 m 1,4,-1
 375 1782 l 1,5,-1
 479 1744 l 1,6,-1
 267 1252 l 1,7,-1
 198 1281 l 1,4,-1
EndSplineSet
EndChar

StartChar: infinity
Encoding: 8734 8734 302
Width: 1300
Flags: W
LayerCount: 2
UndoRedoHistory
Layer: 1
Undoes
EndUndoes
Redoes
EndRedoes
EndUndoRedoHistory
Fore
SplineSet
639 855 m 1,0,1
 706 939 706 939 781 990 c 128,-1,2
 856 1041 856 1041 912 1041 c 0,3,4
 1042 1041 1042 1041 1122 959.5 c 128,-1,5
 1202 878 1202 878 1202 742 c 128,-1,6
 1202 606 1202 606 1122 522.5 c 128,-1,7
 1042 439 1042 439 912 439 c 0,8,9
 851 439 851 439 776 487.5 c 128,-1,10
 701 536 701 536 639 615 c 1,11,12
 574 541 574 541 500 496.5 c 128,-1,13
 426 452 426 452 370 452 c 0,14,15
 243 452 243 452 165.5 532.5 c 0,16,17
 88 612 88 612 88 742 c 128,-1,18
 88 872 88 872 165.5 950 c 128,-1,19
 243 1028 243 1028 370 1028 c 0,20,21
 422 1028 422 1028 495.5 980.5 c 128,-1,22
 569 933 569 933 639 855 c 1,0,1
588 740 m 1,23,24
 542 813 542 813 483.5 857 c 0,25,26
 424 901 424 901 364 901 c 128,-1,27
 304 901 304 901 261 857 c 128,-1,28
 218 813 218 813 218 740 c 128,-1,29
 218 667 218 667 261 622.5 c 128,-1,30
 304 578 304 578 364 578 c 128,-1,31
 424 578 424 578 483 622.5 c 128,-1,32
 542 667 542 667 588 740 c 1,23,24
1074 740 m 128,-1,34
 1074 813 1074 813 1029 857.5 c 128,-1,35
 984 902 984 902 921 902 c 128,-1,36
 858 902 858 902 795.5 857.5 c 128,-1,37
 733 813 733 813 683 740 c 1,38,39
 729 667 729 667 791.5 622.5 c 128,-1,40
 854 578 854 578 919 578 c 128,-1,41
 984 578 984 578 1029 622.5 c 128,-1,33
 1074 667 1074 667 1074 740 c 128,-1,34
EndSplineSet
EndChar

StartChar: integral
Encoding: 8747 8747 303
Width: 767
Flags: W
LayerCount: 2
UndoRedoHistory
Layer: 1
Undoes
EndUndoes
Redoes
EndRedoes
EndUndoRedoHistory
Fore
SplineSet
316 1539 m 2,0,1
 316 1787 316 1787 496 1787 c 0,2,3
 558 1787 558 1787 652 1752 c 1,4,-1
 652 1630 l 1,5,6
 575 1654 575 1654 533 1654 c 0,7,8
 491 1654 491 1654 472 1623 c 128,-1,9
 453 1592 453 1592 453 1521 c 2,10,-1
 453 221 l 2,11,12
 453 -12 453 -12 252 -12 c 0,13,14
 194 -12 194 -12 115 8 c 1,15,-1
 115 130 l 1,16,17
 155 128 155 128 170 128 c 0,18,19
 264 128 264 128 290 161 c 128,-1,20
 316 194 316 194 316 305 c 2,21,-1
 316 1539 l 2,0,1
EndSplineSet
EndChar

StartChar: kgreenlandic
Encoding: 312 312 308
Width: 835
Flags: W
LayerCount: 2
UndoRedoHistory
Layer: 1
Undoes
EndUndoes
Redoes
EndRedoes
EndUndoRedoHistory
Fore
SplineSet
160 1500 m 1,0,-1
 309 1500 l 1,1,-1
 309 760 l 1,2,-1
 640 1500 l 1,3,-1
 789 1500 l 1,4,-1
 448 756 l 1,5,-1
 807 0 l 1,6,-1
 651 0 l 1,7,-1
 309 742 l 1,8,-1
 309 0 l 1,9,-1
 160 0 l 1,10,-1
 160 1500 l 1,0,-1
EndSplineSet
EndChar

StartChar: lessequal
Encoding: 8804 8804 313
Width: 781
Flags: W
LayerCount: 2
UndoRedoHistory
Layer: 1
Undoes
EndUndoes
Redoes
EndRedoes
EndUndoRedoHistory
Fore
SplineSet
59 813 m 1,0,-1
 638 1209 l 1,1,-1
 638 1042 l 1,2,-1
 171 749 l 1,3,-1
 638 439 l 1,4,-1
 638 279 l 1,5,-1
 59 679 l 1,6,-1
 59 813 l 1,0,-1
93 111 m 1,7,-1
 642 111 l 1,8,-1
 642 0 l 1,9,-1
 93 0 l 1,10,-1
 93 111 l 1,7,-1
EndSplineSet
EndChar

StartChar: lozenge
Encoding: 9674 9674 314
Width: 921
Flags: W
LayerCount: 2
UndoRedoHistory
Layer: 1
Undoes
EndUndoes
Redoes
EndRedoes
EndUndoRedoHistory
Fore
SplineSet
367 1762 m 1,0,-1
 558 1762 l 1,1,-1
 807 883 l 1,2,-1
 558 0 l 1,3,-1
 367 0 l 1,4,-1
 114 883 l 1,5,-1
 367 1762 l 1,0,-1
659 883 m 1,6,-1
 465 1623 l 1,7,-1
 453 1623 l 1,8,-1
 259 883 l 1,9,-1
 453 129 l 1,10,-1
 465 129 l 1,11,-1
 659 883 l 1,6,-1
EndSplineSet
EndChar

StartChar: lslash
Encoding: 322 322 315
Width: 731
Flags: W
LayerCount: 2
UndoRedoHistory
Layer: 1
Undoes
EndUndoes
Redoes
EndRedoes
EndUndoRedoHistory
Fore
SplineSet
256 1783 m 1,0,-1
 406 1783 l 1,1,-1
 406 1060 l 1,2,-1
 610 1153 l 1,3,-1
 610 1010 l 1,4,-1
 406 917 l 1,5,-1
 406 0 l 1,6,-1
 256 0 l 1,7,-1
 256 849 l 1,8,-1
 99 778 l 1,9,-1
 99 921 l 1,10,-1
 256 992 l 1,11,-1
 256 1783 l 1,0,-1
EndSplineSet
EndChar

StartChar: minus
Encoding: 8722 8722 316
Width: 637
Flags: W
LayerCount: 2
UndoRedoHistory
Layer: 1
Undoes
EndUndoes
Redoes
EndRedoes
EndUndoRedoHistory
Fore
SplineSet
20 741 m 1,0,-1
 616 741 l 1,1,-1
 616 626 l 1,2,-1
 20 626 l 1,3,-1
 20 741 l 1,0,-1
EndSplineSet
EndChar

StartChar: mu
Encoding: 956 956 317
Width: 915
Flags: W
LayerCount: 2
UndoRedoHistory
Layer: 1
Undoes
EndUndoes
Redoes
EndRedoes
EndUndoRedoHistory
Fore
SplineSet
298 -186 m 1,0,-1
 148 -186 l 1,1,-1
 148 1500 l 1,2,-1
 298 1500 l 1,3,-1
 298 125 l 1,4,5
 334 82 334 82 408 82 c 0,6,7
 482 82 482 82 547 140.5 c 128,-1,8
 612 199 612 199 612 300 c 2,9,-1
 612 1500 l 1,10,-1
 762 1500 l 1,11,-1
 762 0 l 1,12,-1
 613 0 l 1,13,-1
 613 150 l 1,14,15
 595 85 595 85 540.5 32.5 c 128,-1,16
 486 -20 486 -20 412 -20 c 0,17,18
 338 -20 338 -20 298 7 c 1,19,-1
 298 -186 l 1,0,-1
EndSplineSet
EndChar

StartChar: oe
Encoding: 339 339 323
Width: 1241
Flags: W
LayerCount: 2
UndoRedoHistory
Layer: 1
Undoes
EndUndoes
Redoes
EndRedoes
EndUndoRedoHistory
Fore
SplineSet
643 1396 m 1,0,1
 720 1518 720 1518 864 1518 c 0,2,3
 1000 1518 1000 1518 1054 1447 c 0,4,5
 1084 1408 1084 1408 1101.5 1370.5 c 0,6,7
 1118 1332 1118 1332 1126 1262 c 0,8,9
 1136 1163 1136 1163 1137 1002 c 2,10,-1
 1137 754 l 1,11,-1
 716 754 l 1,12,-1
 716 450 l 2,13,14
 716 217 716 217 752 164 c 0,15,16
 786 113 786 113 858 113 c 1,17,18
 920 112 920 112 946 152 c 0,19,20
 975 196 975 196 980 251 c 0,21,22
 987 326 987 326 987 439 c 2,23,-1
 987 556 l 1,24,-1
 1132 556 l 1,25,-1
 1132 505 l 2,26,27
 1132 284 1132 284 1117 201 c 0,28,29
 1091 53 1091 53 992 7 c 0,30,31
 939 -18 939 -18 859 -18 c 0,32,33
 711 -18 711 -18 636 106 c 1,34,35
 562 -18 562 -18 425 -18 c 0,36,37
 255 -18 255 -18 192 94 c 0,38,39
 150 170 150 170 141 253 c 0,40,41
 128 372 128 372 128 515 c 2,42,-1
 128 1018 l 2,43,44
 128 1280 128 1280 176 1375 c 0,45,46
 226 1474 226 1474 310 1502 c 0,47,48
 360 1518 360 1518 425 1518 c 0,49,50
 571 1518 571 1518 643 1396 c 1,0,1
567 1053 m 2,51,52
 567 1258 567 1258 529 1328 c 0,53,54
 496 1388 496 1388 425 1388 c 1,55,56
 358 1388 358 1388 327 1344 c 0,57,58
 284 1283 284 1283 278 1147 c 0,59,60
 276 1108 276 1108 277 1053 c 2,61,-1
 277 463 l 2,62,63
 278 242 278 242 316 174 c 0,64,65
 350 112 350 112 425 113 c 1,66,67
 552 113 552 113 564 345 c 0,68,69
 566 393 566 393 567 463 c 2,70,-1
 567 1053 l 2,51,52
988 874 m 1,71,-1
 988 1138 l 2,72,73
 988 1271 988 1271 978 1295.5 c 128,-1,74
 968 1320 968 1320 961.5 1336 c 128,-1,75
 955 1352 955 1352 946 1359 c 0,76,77
 938 1366 938 1366 926 1374 c 0,78,79
 907 1387 907 1387 867.5 1387 c 128,-1,80
 828 1387 828 1387 800.5 1371.5 c 128,-1,81
 773 1356 773 1356 757 1330 c 128,-1,82
 741 1304 741 1304 732 1261 c 0,83,84
 717 1189 717 1189 717 1063 c 2,85,-1
 717 874 l 1,86,-1
 988 874 l 1,71,-1
EndSplineSet
EndChar

StartChar: ogonek
Encoding: 731 731 324
Width: 456
Flags: W
LayerCount: 2
UndoRedoHistory
Layer: 1
Undoes
EndUndoes
Redoes
EndRedoes
EndUndoRedoHistory
Fore
SplineSet
390 -411 m 1,0,1
 346 -431 346 -431 262 -431 c 0,2,3
 68 -431 68 -431 69 -285 c 0,4,5
 69 -216 69 -216 113 -141 c 128,-1,6
 157 -66 157 -66 245 0 c 1,7,-1
 309 0 l 1,8,9
 236 -62 236 -62 199.5 -129.5 c 128,-1,10
 163 -197 163 -197 163 -252 c 0,11,12
 163 -339 163 -339 271 -339 c 0,13,14
 323 -339 323 -339 356 -329 c 128,-1,15
 389 -319 389 -319 390 -318 c 1,16,-1
 390 -411 l 1,0,1
EndSplineSet
EndChar

StartChar: partialdiff
Encoding: 8706 8706 327
Width: 961
Flags: W
LayerCount: 2
UndoRedoHistory
Layer: 1
Undoes
EndUndoes
Redoes
EndRedoes
EndUndoRedoHistory
Fore
SplineSet
335 1034.5 m 128,-1,1
 419 1093 419 1093 503 1093 c 128,-1,2
 587 1093 587 1093 709 1047 c 1,3,4
 721 1199 721 1199 721 1264.5 c 128,-1,5
 721 1330 721 1330 712 1377.5 c 0,6,7
 702 1425 702 1425 680 1465 c 0,8,9
 635 1545 635 1545 508 1545 c 0,10,11
 398 1545 398 1545 225 1485 c 1,12,-1
 201 1607 l 1,13,14
 408 1673 408 1673 542 1673 c 0,15,16
 716 1673 716 1673 792.5 1564 c 128,-1,17
 869 1455 869 1455 869 1227 c 0,18,19
 869 1104 869 1104 847 925 c 2,20,-1
 783 417 l 1,21,22
 757 201 757 201 648 88 c 0,23,24
 547 -17 547 -17 427.5 -17 c 128,-1,25
 308 -17 308 -17 230 49 c 0,26,27
 82 173 82 173 82 444 c 0,28,29
 82 682 82 682 197 882 c 0,30,0
 251 976 251 976 335 1034.5 c 128,-1,1
687 919 m 1,31,32
 581 960 581 960 523.5 960 c 128,-1,33
 466 960 466 960 411 912 c 128,-1,34
 356 864 356 864 321 787 c 0,35,36
 247 624 247 624 247 435 c 0,37,38
 246 246 246 246 320 162 c 0,39,40
 358 118 358 118 422 117.5 c 128,-1,41
 486 117 486 117 547 196 c 128,-1,42
 608 275 608 275 626 419 c 2,43,-1
 687 919 l 1,31,32
EndSplineSet
EndChar

StartChar: perthousand
Encoding: 8240 8240 328
Width: 2930
Flags: W
LayerCount: 2
UndoRedoHistory
Layer: 1
Undoes
EndUndoes
Redoes
EndRedoes
EndUndoRedoHistory
Fore
SplineSet
1347 1760 m 1,0,-1
 1487 1760 l 1,1,-1
 765 0 l 1,2,-1
 617 0 l 1,3,-1
 1347 1760 l 1,0,-1
576 1436 m 2,4,5
 576 1559 576 1559 547.5 1602.5 c 128,-1,6
 519 1646 519 1646 439.5 1646 c 128,-1,7
 360 1646 360 1646 331 1602.5 c 128,-1,8
 302 1559 302 1559 302 1436 c 2,9,-1
 302 936 l 2,10,11
 302 808 302 808 330.5 763 c 128,-1,12
 359 718 359 718 439 718 c 128,-1,13
 519 718 519 718 547.5 763 c 128,-1,14
 576 808 576 808 576 936 c 2,15,-1
 576 1436 l 2,4,5
155 1364 m 2,16,17
 156 1658 156 1658 244 1730 c 0,18,19
 308 1782 308 1782 439 1782 c 128,-1,20
 570 1782 570 1782 635 1730 c 0,21,22
 724 1658 724 1658 724 1364 c 2,23,-1
 724 1012 l 2,24,25
 724 881 724 881 711.5 800.5 c 128,-1,26
 699 720 699 720 665 669.5 c 128,-1,27
 631 619 631 619 578.5 600 c 128,-1,28
 526 581 526 581 439.5 581 c 128,-1,29
 353 581 353 581 300 600 c 128,-1,30
 247 619 247 619 213.5 669.5 c 128,-1,31
 180 720 180 720 167.5 800.5 c 128,-1,32
 155 881 155 881 155 1012 c 2,33,-1
 155 1364 l 2,16,17
1399 763 m 2,34,35
 1400 1056 1400 1056 1488 1128 c 0,36,37
 1552 1180 1552 1180 1683.5 1180.5 c 0,38,39
 1814 1180 1814 1180 1878 1128 c 0,40,41
 1966 1055 1966 1055 1967 763 c 2,42,-1
 1967 411 l 2,43,44
 1967 280 1967 280 1954.5 199.5 c 128,-1,45
 1942 119 1942 119 1908.5 68.5 c 128,-1,46
 1875 18 1875 18 1822 -1 c 128,-1,47
 1769 -20 1769 -20 1683 -20 c 128,-1,48
 1597 -20 1597 -20 1544 -1 c 128,-1,49
 1491 18 1491 18 1457.5 68.5 c 128,-1,50
 1424 119 1424 119 1411.5 199.5 c 128,-1,51
 1399 280 1399 280 1399 411 c 2,52,-1
 1399 763 l 2,34,35
1820 835 m 2,53,54
 1820 958 1820 958 1791 1001.5 c 128,-1,55
 1762 1045 1762 1045 1682.5 1045 c 128,-1,56
 1603 1045 1603 1045 1574.5 1001.5 c 128,-1,57
 1546 958 1546 958 1546 835 c 2,58,-1
 1546 335 l 2,59,60
 1546 207 1546 207 1574.5 162 c 128,-1,61
 1603 117 1603 117 1683 117 c 128,-1,62
 1763 117 1763 117 1791.5 162 c 128,-1,63
 1820 207 1820 207 1820 335 c 2,64,-1
 1820 835 l 2,53,54
2207 763 m 2,65,66
 2208 1056 2208 1056 2296 1128 c 0,67,68
 2360 1180 2360 1180 2491.5 1180.5 c 0,69,70
 2622 1180 2622 1180 2686 1128 c 0,71,72
 2774 1055 2774 1055 2775 763 c 2,73,-1
 2775 411 l 2,74,75
 2775 280 2775 280 2762.5 199.5 c 128,-1,76
 2750 119 2750 119 2716.5 68.5 c 128,-1,77
 2683 18 2683 18 2630 -1 c 128,-1,78
 2577 -20 2577 -20 2491 -20 c 128,-1,79
 2405 -20 2405 -20 2352 -1 c 128,-1,80
 2299 18 2299 18 2265.5 68.5 c 128,-1,81
 2232 119 2232 119 2219.5 199.5 c 128,-1,82
 2207 280 2207 280 2207 411 c 2,83,-1
 2207 763 l 2,65,66
2628 835 m 2,84,85
 2628 958 2628 958 2599.5 1001.5 c 128,-1,86
 2571 1045 2571 1045 2491.5 1045 c 128,-1,87
 2412 1045 2412 1045 2383 1001.5 c 128,-1,88
 2354 958 2354 958 2354 835 c 2,89,-1
 2354 335 l 2,90,91
 2354 207 2354 207 2382.5 162 c 128,-1,92
 2411 117 2411 117 2491 117 c 128,-1,93
 2571 117 2571 117 2599.5 162 c 128,-1,94
 2628 207 2628 207 2628 335 c 2,95,-1
 2628 835 l 2,84,85
EndSplineSet
EndChar

StartChar: product
Encoding: 8719 8719 329
Width: 955
Flags: W
LayerCount: 2
UndoRedoHistory
Layer: 1
Undoes
EndUndoes
Redoes
EndRedoes
EndUndoRedoHistory
Fore
SplineSet
166 1760 m 1,0,-1
 789 1760 l 1,1,-1
 789 0 l 1,2,-1
 639 0 l 1,3,-1
 639 1649 l 1,4,-1
 316 1649 l 1,5,-1
 316 0 l 1,6,-1
 166 0 l 1,7,-1
 166 1760 l 1,0,-1
EndSplineSet
EndChar

StartChar: quotedblbase
Encoding: 8222 8222 330
Width: 1016
Flags: W
LayerCount: 2
UndoRedoHistory
Layer: 1
Undoes
EndUndoes
Redoes
EndRedoes
EndUndoRedoHistory
Fore
SplineSet
628 206 m 1,0,-1
 903 206 l 1,1,-1
 903 9 l 1,2,-1
 783 -428 l 1,3,-1
 680 -428 l 1,4,-1
 774 0 l 1,5,-1
 628 0 l 1,6,-1
 628 206 l 1,0,-1
181 206 m 1,7,-1
 456 206 l 1,8,-1
 456 9 l 1,9,-1
 336 -428 l 1,10,-1
 233 -428 l 1,11,-1
 327 0 l 1,12,-1
 181 0 l 1,13,-1
 181 206 l 1,7,-1
EndSplineSet
EndChar

StartChar: quotedblleft
Encoding: 8220 8220 331
Width: 1030
Flags: W
LayerCount: 2
UndoRedoHistory
Layer: 1
Undoes
EndUndoes
Redoes
EndRedoes
EndUndoRedoHistory
Fore
SplineSet
742 1783 m 1,0,-1
 845 1783 l 1,1,-1
 752 1355 l 1,2,-1
 898 1355 l 1,3,-1
 898 1149 l 1,4,-1
 623 1149 l 1,5,-1
 623 1346 l 1,6,-1
 742 1783 l 1,0,-1
295 1783 m 1,7,-1
 399 1783 l 1,8,-1
 305 1355 l 1,9,-1
 451 1355 l 1,10,-1
 451 1149 l 1,11,-1
 176 1149 l 1,12,-1
 176 1346 l 1,13,-1
 295 1783 l 1,7,-1
EndSplineSet
EndChar

StartChar: quotedblright
Encoding: 8221 8221 332
Width: 1077
Flags: W
LayerCount: 2
UndoRedoHistory
Layer: 1
Undoes
EndUndoes
Redoes
EndRedoes
EndUndoRedoHistory
Fore
SplineSet
638 1782 m 1,0,-1
 913 1782 l 1,1,-1
 913 1585 l 1,2,-1
 793 1148 l 1,3,-1
 690 1148 l 1,4,-1
 783 1576 l 1,5,-1
 638 1576 l 1,6,-1
 638 1782 l 1,0,-1
191 1782 m 1,7,-1
 466 1782 l 1,8,-1
 466 1585 l 1,9,-1
 346 1148 l 1,10,-1
 243 1148 l 1,11,-1
 337 1576 l 1,12,-1
 191 1576 l 1,13,-1
 191 1782 l 1,7,-1
EndSplineSet
EndChar

StartChar: quoteleft
Encoding: 8216 8216 333
Width: 597
Flags: W
LayerCount: 2
UndoRedoHistory
Layer: 1
Undoes
EndUndoes
Redoes
EndRedoes
EndUndoRedoHistory
Fore
SplineSet
281 1782 m 1,0,-1
 387 1782 l 1,1,-1
 296 1365 l 1,2,-1
 438 1365 l 1,3,-1
 438 1163 l 1,4,-1
 167 1163 l 1,5,-1
 167 1356 l 1,6,-1
 281 1782 l 1,0,-1
EndSplineSet
EndChar

StartChar: quoteright
Encoding: 8217 8217 334
Width: 597
Flags: W
LayerCount: 2
UndoRedoHistory
Layer: 1
Undoes
EndUndoes
Redoes
EndRedoes
EndUndoRedoHistory
Fore
SplineSet
189 1782 m 1,0,-1
 460 1782 l 1,1,-1
 460 1589 l 1,2,-1
 346 1163 l 1,3,-1
 240 1163 l 1,4,-1
 331 1580 l 1,5,-1
 189 1580 l 1,6,-1
 189 1782 l 1,0,-1
EndSplineSet
EndChar

StartChar: quotesinglbase
Encoding: 8218 8218 335
Width: 484
Flags: W
LayerCount: 2
UndoRedoHistory
Layer: 1
Undoes
EndUndoes
Redoes
EndRedoes
EndUndoRedoHistory
Fore
SplineSet
113 207 m 1,0,-1
 388 207 l 1,1,-1
 388 9 l 1,2,-1
 269 -437 l 1,3,-1
 166 -437 l 1,4,-1
 259 0 l 1,5,-1
 113 0 l 1,6,-1
 113 207 l 1,0,-1
EndSplineSet
EndChar

StartChar: radical
Encoding: 8730 8730 337
Width: 1152
Flags: W
LayerCount: 2
UndoRedoHistory
Layer: 1
Undoes
EndUndoes
Redoes
EndRedoes
EndUndoRedoHistory
Fore
SplineSet
638 1500 m 1,0,-1
 1091 1500 l 1,1,-1
 1091 1367 l 1,2,-1
 777 1367 l 1,3,-1
 503 0 l 1,4,-1
 349 0 l 1,5,-1
 58 741 l 1,6,-1
 197 741 l 1,7,-1
 411 218 l 1,8,-1
 638 1500 l 1,0,-1
EndSplineSet
EndChar

StartChar: ring
Encoding: 730 730 340
Width: 923
Flags: W
LayerCount: 2
UndoRedoHistory
Layer: 1
Undoes
EndUndoes
Redoes
EndRedoes
EndUndoRedoHistory
Fore
SplineSet
338.5 1523 m 128,-1,1
 294 1569 294 1569 294 1629.5 c 128,-1,2
 294 1690 294 1690 338.5 1736 c 128,-1,3
 383 1782 383 1782 463.5 1782 c 128,-1,4
 544 1782 544 1782 588 1736 c 128,-1,5
 632 1690 632 1690 632 1629 c 128,-1,6
 632 1568 632 1568 588 1522.5 c 128,-1,7
 544 1477 544 1477 463.5 1477 c 128,-1,0
 383 1477 383 1477 338.5 1523 c 128,-1,1
563 1630 m 128,-1,9
 563 1672 563 1672 536.5 1702 c 128,-1,10
 510 1732 510 1732 464 1732 c 128,-1,11
 418 1732 418 1732 392 1701.5 c 128,-1,12
 366 1671 366 1671 366 1630 c 128,-1,13
 366 1589 366 1589 392 1558.5 c 128,-1,14
 418 1528 418 1528 464 1528 c 128,-1,15
 510 1528 510 1528 536.5 1558 c 128,-1,8
 563 1588 563 1588 563 1630 c 128,-1,9
EndSplineSet
EndChar

StartChar: summation
Encoding: 8721 8721 346
Width: 681
Flags: W
LayerCount: 2
UndoRedoHistory
Layer: 1
Undoes
EndUndoes
Redoes
EndRedoes
EndUndoRedoHistory
Fore
SplineSet
102 1761 m 1,0,-1
 553 1761 l 1,1,-1
 553 1649 l 1,2,-1
 265 1649 l 1,3,-1
 505 880 l 1,4,-1
 265 125 l 1,5,-1
 553 125 l 1,6,-1
 553 0 l 1,7,-1
 102 0 l 1,8,-1
 102 101 l 1,9,-1
 347 881 l 1,10,-1
 102 1673 l 1,11,-1
 102 1761 l 1,0,-1
EndSplineSet
EndChar

StartChar: tilde
Encoding: 732 732 348
Width: 683
Flags: W
LayerCount: 2
UndoRedoHistory
Layer: 1
Undoes
EndUndoes
Redoes
EndRedoes
EndUndoRedoHistory
Fore
SplineSet
50 1650 m 1,0,1
 78 1746 78 1746 126 1768 c 0,2,3
 163 1784 163 1784 212.5 1784.5 c 128,-1,4
 262 1785 262 1785 354.5 1748 c 128,-1,5
 447 1711 447 1711 468 1711 c 2,6,-1
 472 1711 l 1,7,8
 489 1714 489 1714 501.5 1727.5 c 128,-1,9
 514 1741 514 1741 528 1782 c 1,10,-1
 633 1754 l 1,11,-1
 624 1728 l 1,12,13
 595 1637 595 1637 565.5 1610 c 128,-1,14
 536 1583 536 1583 487 1583 c 128,-1,15
 438 1583 438 1583 348 1624 c 128,-1,16
 258 1665 258 1665 229.5 1665 c 0,17,18
 201 1664 201 1664 190 1662 c 0,19,20
 170 1657 170 1657 143 1604 c 1,21,-1
 50 1650 l 1,0,1
EndSplineSet
EndChar

StartChar: trademark
Encoding: 8482 8482 349
Width: 1407
Flags: W
LayerCount: 2
UndoRedoHistory
Layer: 1
Undoes
EndUndoes
Redoes
EndRedoes
EndUndoRedoHistory
Fore
SplineSet
1143 1761 m 1,0,-1
 1274 1761 l 1,1,-1
 1274 447 l 1,2,-1
 1179 447 l 1,3,-1
 1179 1005 l 1,4,-1
 1195 1525 l 1,5,-1
 1013 447 l 1,6,-1
 899 447 l 1,7,-1
 710 1525 l 1,8,-1
 727 1005 l 1,9,-1
 727 447 l 1,10,-1
 631 447 l 1,11,-1
 631 1761 l 1,12,-1
 763 1761 l 1,13,-1
 956 562 l 1,14,-1
 1143 1761 l 1,0,-1
123 1761 m 1,15,-1
 492 1761 l 1,16,-1
 492 1674 l 1,17,-1
 369 1674 l 1,18,-1
 369 447 l 1,19,-1
 260 447 l 1,20,-1
 260 1674 l 1,21,-1
 123 1674 l 1,22,-1
 123 1761 l 1,15,-1
EndSplineSet
EndChar

StartChar: uni0237
Encoding: 567 567 393
Width: 479
Flags: W
LayerCount: 2
UndoRedoHistory
Layer: 1
Undoes
EndUndoes
Redoes
EndRedoes
EndUndoRedoHistory
Fore
SplineSet
274 -185 m 0,0,1
 252 -203 252 -203 229 -213.5 c 128,-1,2
 206 -224 206 -224 154 -224 c 128,-1,3
 102 -224 102 -224 72 -218 c 1,4,-1
 68 -218 l 1,5,-1
 68 -110 l 1,6,7
 88 -114 88 -114 107 -114 c 0,8,9
 124 -114 124 -114 140 -111 c 0,10,11
 176 -105 176 -105 176 -44 c 2,12,-1
 176 1500 l 1,13,-1
 325 1500 l 1,14,-1
 325 -34 l 2,15,16
 324 -145 324 -145 274 -185 c 0,0,1
EndSplineSet
EndChar

StartChar: uni02C9
Encoding: 713 713 394
Width: 696
Flags: W
LayerCount: 2
UndoRedoHistory
Layer: 1
Undoes
EndUndoes
Redoes
EndRedoes
EndUndoRedoHistory
Fore
SplineSet
90 741 m 1,0,-1
 606 741 l 1,1,-1
 606 626 l 1,2,-1
 90 626 l 1,3,-1
 90 741 l 1,0,-1
EndSplineSet
EndChar

StartChar: uni0307
Encoding: 775 775 395
Width: 572
Flags: W
LayerCount: 2
UndoRedoHistory
Layer: 1
Undoes
EndUndoes
Redoes
EndRedoes
EndUndoRedoHistory
Fore
SplineSet
215 310 m 1,0,-1
 383 310 l 1,1,-1
 383 -8 l 1,2,-1
 215 -8 l 1,3,-1
 215 310 l 1,0,-1
EndSplineSet
EndChar

StartChar: uni0311
Encoding: 785 785 396
Width: 1016
Flags: W
LayerCount: 2
UndoRedoHistory
Layer: 1
Undoes
EndUndoes
Redoes
EndRedoes
EndUndoRedoHistory
Fore
SplineSet
631 1606 m 1,0,1
 629 1715 629 1715 502 1715 c 128,-1,2
 375 1715 375 1715 377 1599 c 1,3,-1
 313 1596 l 1,4,-1
 313 1609 l 2,5,6
 313 1613 313 1613 313 1616 c 0,7,8
 313 1699 313 1699 359 1752 c 0,9,10
 407 1807 407 1807 501 1806.5 c 128,-1,11
 595 1806 595 1806 644 1759 c 128,-1,12
 693 1712 693 1712 695 1624 c 1,13,-1
 695 1609 l 1,14,-1
 631 1606 l 1,0,1
EndSplineSet
EndChar

StartChar: uni2074
Encoding: 8308 8308 411
Width: 857
Flags: W
LayerCount: 2
UndoRedoHistory
Layer: 1
Undoes
EndUndoes
Redoes
EndRedoes
EndUndoRedoHistory
Fore
SplineSet
495 1760 m 1,0,-1
 580 1760 l 1,1,-1
 580 873 l 1,2,-1
 688 873 l 1,3,-1
 688 795 l 1,4,-1
 580 795 l 1,5,-1
 580 554 l 1,6,-1
 489 554 l 1,7,-1
 489 795 l 1,8,-1
 224 795 l 1,9,-1
 224 862 l 1,10,-1
 495 1760 l 1,0,-1
489 873 m 1,11,-1
 489 1533 l 1,12,-1
 310 873 l 1,13,-1
 489 873 l 1,11,-1
EndSplineSet
EndChar

StartChar: uni2215
Encoding: 8725 8725 412
Width: 767
Flags: W
LayerCount: 2
UndoRedoHistory
Layer: 1
Undoes
EndUndoes
Redoes
EndRedoes
EndUndoRedoHistory
Fore
SplineSet
536 1782 m 1,0,-1
 673 1782 l 1,1,-1
 231 0 l 1,2,-1
 94 0 l 1,3,-1
 536 1782 l 1,0,-1
EndSplineSet
EndChar

StartChar: uniFB00
Encoding: 65539 -1 414
Width: 1220
Flags: W
LayerCount: 2
UndoRedoHistory
Layer: 1
Undoes
EndUndoes
Redoes
EndRedoes
EndUndoRedoHistory
Fore
SplineSet
834 1442 m 1,0,-1
 834 1512 l 2,1,2
 834 1650 834 1650 883 1719.5 c 128,-1,3
 932 1789 932 1789 1048 1789 c 0,4,5
 1129 1789 1129 1789 1183 1771 c 1,6,-1
 1183 1650 l 1,7,8
 1138 1657 1138 1657 1082 1657 c 0,9,10
 1026 1657 1026 1657 1005 1627.5 c 128,-1,11
 984 1598 984 1598 984 1534 c 2,12,-1
 984 1442 l 1,13,-1
 1183 1442 l 1,14,-1
 1183 1329 l 1,15,-1
 984 1329 l 1,16,-1
 984 0 l 1,17,-1
 834 0 l 1,18,-1
 834 1329 l 1,19,-1
 374 1329 l 1,20,-1
 374 0 l 1,21,-1
 224 0 l 1,22,-1
 224 1329 l 1,23,-1
 84 1329 l 1,24,-1
 84 1442 l 1,25,-1
 224 1442 l 1,26,-1
 224 1512 l 2,27,28
 224 1650 224 1650 273 1719.5 c 128,-1,29
 322 1789 322 1789 438 1789 c 0,30,31
 519 1789 519 1789 573 1771 c 1,32,-1
 573 1650 l 1,33,34
 528 1657 528 1657 472 1657 c 0,35,36
 416 1657 416 1657 395 1627.5 c 128,-1,37
 374 1598 374 1598 374 1534 c 2,38,-1
 374 1442 l 1,39,-1
 834 1442 l 1,0,-1
EndSplineSet
EndChar

StartChar: uniFB01
Encoding: 64257 64257 415
Width: 1084
Flags: W
LayerCount: 2
UndoRedoHistory
Layer: 1
Undoes
EndUndoes
Redoes
EndRedoes
EndUndoRedoHistory
Fore
SplineSet
922 1615 m 1,0,-1
 772 1615 l 1,1,-1
 772 1800 l 1,2,-1
 922 1800 l 1,3,-1
 922 1615 l 1,0,-1
922 0 m 1,4,-1
 772 0 l 1,5,-1
 772 1388 l 1,6,-1
 374 1388 l 1,7,-1
 374 0 l 1,8,-1
 224 0 l 1,9,-1
 224 1388 l 1,10,-1
 84 1388 l 1,11,-1
 84 1501 l 1,12,-1
 224 1501 l 1,13,-1
 224 1518 l 2,14,15
 224 1656 224 1656 273 1725.5 c 128,-1,16
 322 1795 322 1795 438 1795 c 0,17,18
 519 1795 519 1795 573 1777 c 1,19,-1
 573 1656 l 1,20,21
 528 1663 528 1663 472 1663 c 0,22,23
 416 1663 416 1663 395 1633.5 c 128,-1,24
 374 1604 374 1604 374 1540 c 2,25,-1
 374 1500 l 1,26,-1
 922 1500 l 1,27,-1
 922 0 l 1,4,-1
EndSplineSet
EndChar

StartChar: uniFB02
Encoding: 64258 64258 416
Width: 1080
Flags: W
LayerCount: 2
UndoRedoHistory
Layer: 1
Undoes
EndUndoes
Redoes
EndRedoes
EndUndoRedoHistory
Fore
SplineSet
920 1744 m 1,0,-1
 920 0 l 1,1,-1
 770 0 l 1,2,-1
 770 1660 l 1,3,4
 638 1691 638 1691 568 1691 c 128,-1,5
 498 1691 498 1691 463 1680 c 128,-1,6
 428 1669 428 1669 411 1655 c 0,7,8
 394 1640 394 1640 385 1616 c 0,9,10
 374 1586 374 1586 374 1541 c 2,11,-1
 374 1442 l 1,12,-1
 573 1442 l 1,13,-1
 573 1329 l 1,14,-1
 374 1329 l 1,15,-1
 374 0 l 1,16,-1
 224 0 l 1,17,-1
 224 1329 l 1,18,-1
 84 1329 l 1,19,-1
 84 1442 l 1,20,-1
 224 1442 l 1,21,-1
 224 1512 l 2,22,23
 224 1696 224 1696 300 1756 c 0,24,25
 368 1810 368 1810 512 1810.5 c 128,-1,26
 656 1811 656 1811 920 1744 c 1,0,-1
EndSplineSet
EndChar

StartChar: uniFB03
Encoding: 65540 -1 417
Width: 1694
Flags: W
LayerCount: 2
UndoRedoHistory
Layer: 1
Undoes
EndUndoes
Redoes
EndRedoes
EndUndoRedoHistory
Fore
SplineSet
1382 1800 m 1,0,-1
 1532 1800 l 1,1,-1
 1532 1615 l 1,2,-1
 1382 1615 l 1,3,-1
 1382 1800 l 1,0,-1
984 1500 m 1,4,-1
 1532 1500 l 1,5,-1
 1532 0 l 1,6,-1
 1382 0 l 1,7,-1
 1382 1387 l 1,8,-1
 984 1387 l 1,9,-1
 984 0 l 1,10,-1
 834 0 l 1,11,-1
 834 1387 l 1,12,-1
 374 1387 l 1,13,-1
 374 0 l 1,14,-1
 224 0 l 1,15,-1
 224 1387 l 1,16,-1
 84 1387 l 1,17,-1
 84 1500 l 1,18,-1
 224 1500 l 1,19,-1
 224 1519 l 2,20,21
 224 1657 224 1657 273 1726.5 c 128,-1,22
 322 1796 322 1796 438 1796 c 0,23,24
 519 1796 519 1796 573 1778 c 1,25,-1
 573 1657 l 1,26,27
 528 1664 528 1664 472 1664 c 0,28,29
 416 1664 416 1664 395 1634.5 c 128,-1,30
 374 1605 374 1605 374 1541 c 2,31,-1
 374 1500 l 1,32,-1
 834 1500 l 1,33,-1
 834 1519 l 2,34,35
 834 1657 834 1657 883 1726.5 c 128,-1,36
 932 1796 932 1796 1048 1796 c 0,37,38
 1129 1796 1129 1796 1183 1778 c 1,39,-1
 1183 1657 l 1,40,41
 1138 1664 1138 1664 1082 1664 c 0,42,43
 1026 1664 1026 1664 1005 1634.5 c 128,-1,44
 984 1605 984 1605 984 1541 c 2,45,-1
 984 1500 l 1,4,-1
EndSplineSet
EndChar

StartChar: uniFB04
Encoding: 65541 -1 418
Width: 1635
Flags: W
LayerCount: 2
UndoRedoHistory
Layer: 1
Undoes
EndUndoes
Redoes
EndRedoes
EndUndoRedoHistory
Fore
SplineSet
779 1442 m 1,0,-1
 779 1512 l 2,1,2
 778 1696 778 1696 854 1756 c 0,3,4
 922 1810 922 1810 1066.5 1810.5 c 128,-1,5
 1211 1811 1211 1811 1475 1744 c 1,6,-1
 1475 0 l 1,7,-1
 1325 0 l 1,8,-1
 1325 1660 l 1,9,10
 1193 1691 1193 1691 1123 1691 c 128,-1,11
 1053 1691 1053 1691 1018 1680 c 128,-1,12
 983 1669 983 1669 966 1655 c 0,13,14
 949 1640 949 1640 940 1616 c 0,15,16
 929 1586 929 1586 929 1541 c 2,17,-1
 929 1442 l 1,18,-1
 1128 1442 l 1,19,-1
 1128 1329 l 1,20,-1
 929 1329 l 1,21,-1
 929 0 l 1,22,-1
 779 0 l 1,23,-1
 779 1329 l 1,24,-1
 374 1329 l 1,25,-1
 374 0 l 1,26,-1
 224 0 l 1,27,-1
 224 1329 l 1,28,-1
 84 1329 l 1,29,-1
 84 1442 l 1,30,-1
 224 1442 l 1,31,-1
 224 1512 l 2,32,33
 224 1650 224 1650 273 1719.5 c 128,-1,34
 322 1789 322 1789 438 1789 c 0,35,36
 519 1789 519 1789 573 1771 c 1,37,-1
 573 1650 l 1,38,39
 528 1657 528 1657 472 1657 c 128,-1,40
 416 1657 416 1657 395 1627.5 c 128,-1,41
 374 1598 374 1598 374 1534 c 2,42,-1
 374 1442 l 1,43,-1
 779 1442 l 1,0,-1
EndSplineSet
EndChar

StartChar: uni0302
Encoding: 770 770 431
Width: 616
Flags: W
LayerCount: 2
UndoRedoHistory
Layer: 1
Undoes
EndUndoes
Redoes
EndRedoes
EndUndoRedoHistory
Fore
SplineSet
232 1638 m 1,0,-1
 398 1638 l 1,1,-1
 518 1384 l 1,2,-1
 401 1384 l 1,3,-1
 315 1559 l 1,4,-1
 229 1384 l 1,5,-1
 111 1384 l 1,6,-1
 232 1638 l 1,0,-1
EndSplineSet
EndChar
